<svg id="Capa_1" data-name="Capa 1" xmlns="http://www.w3.org/2000/svg" viewBox="0 0 255.7 199.9"><g id="Capa_2" data-name="Capa 2"><g id="Capa_5" data-name="Capa 5"><rect x="9.6" y="12.9" width="210.2" height="187" style="fill:#cacaca"/><rect x="196" y="98.46" width="59.7" height="54.5" style="fill:#cacaca"/><rect x="0.8" y="0.8" width="210.1" height="187.3" style="fill:#fff"/><path d="M211.6,188.8H0V0H211.6ZM1.5,187.3H210.1V1.5H1.5Z" style="fill:#1b1b1b"/><rect x="0.8" y="19.9" width="210.1" height="1" style="fill:#1b1b1b"/><rect x="159.3" y="15.4" width="11.3" height="1" style="fill:#1b1b1b"/><rect x="200.77" y="3.8" width="1" height="13.9" transform="translate(51.37 145.5) rotate(-45.01)" style="fill:#1b1b1b"/><rect x="194.4" y="10.26" width="13.9" height="1" transform="translate(51.37 145.52) rotate(-45)" style="fill:#1b1b1b"/><path d="M185.6,13.2h-8.8V4.4h8.8Zm-7.8-1h6.8V5.4h-6.8Z" style="fill:#1b1b1b"/><path d="M189.5,17.2h-8.8V8.3h8.8Zm-7.8-1h6.8V9.3h-6.8Z" style="fill:#1b1b1b"/><line x1="155.9" y1="0.8" x2="155.9" y2="19.8" style="fill:none;stroke:#1b1b1b;stroke-miterlimit:10"/><rect x="173.6" y="0.8" width="1" height="19.1" style="fill:#1b1b1b"/><rect x="191.7" y="0.8" width="1" height="19.1" style="fill:#1b1b1b"/><rect x="189.9" y="90.06" width="59.7" height="54.4" style="fill:#fff"/><path d="M250.4,145.26H189.2V89.36h61.2Zm-59.7-1.5h58.2V90.86H190.7Z" style="fill:#1b1b1b"/><rect x="189.9" y="102.47" width="59.7" height="1" transform="translate(-0.2 0.42) rotate(-0.11)" style="fill:#1b1b1b"/><rect x="219.32" y="87.44" width="1" height="72.7" transform="translate(-7.17 233.88) rotate(-55.26)" style="fill:#1b1b1b"/><rect x="183.37" y="123.18" width="72.8" height="1" transform="translate(-31.28 147.5) rotate(-34.79)" style="fill:#1b1b1b"/><path d="M197.3,99a2.7,2.7,0,1,1,2.7-2.7h0a2.68,2.68,0,0,1-2.68,2.7Zm0-4.4a1.7,1.7,0,1,0,1.7,1.7h0a1.69,1.69,0,0,0-1.68-1.7Z" style="fill:#1b1b1b"/><path d="M205.7,99a2.7,2.7,0,1,1,2.7-2.7h0a2.68,2.68,0,0,1-2.68,2.7Zm0-4.4a1.7,1.7,0,1,0,1.7,1.7h0a1.69,1.69,0,0,0-1.68-1.7Z" style="fill:#1b1b1b"/><path d="M214.1,99a2.7,2.7,0,1,1,2.7-2.7h0a2.68,2.68,0,0,1-2.68,2.7Zm0-4.4a1.7,1.7,0,1,0,1.7,1.7h0a1.69,1.69,0,0,0-1.68-1.7Z" style="fill:#1b1b1b"/><path d="M23.2,49.3A1.66,1.66,0,0,1,22,48.83a1.72,1.72,0,0,1,.32-2.65,6.21,6.21,0,0,1,2.58-.69,1.53,1.53,0,0,0-.24-.79.91.91,0,0,0-.81-.34,2.11,2.11,0,0,0-.82.17,4.88,4.88,0,0,0-.79.4l-.49-.9a5.6,5.6,0,0,1,1.07-.52,3.51,3.51,0,0,1,1.29-.23c1.42,0,2.14.82,2.14,2.47v3.41H25.12l-.1-.64h0a4,4,0,0,1-.83.55A2.05,2.05,0,0,1,23.2,49.3Zm.43-1.06a1.24,1.24,0,0,0,.64-.16,3.23,3.23,0,0,0,.61-.47V46.33a4.08,4.08,0,0,0-1.62.45.85.85,0,0,0-.46.73.65.65,0,0,0,.24.56A.92.92,0,0,0,23.63,48.24Z" style="fill:#742cff"/><path d="M27.84,51.42v-8H29L29,44h.05a3.78,3.78,0,0,1,.81-.53,2,2,0,0,1,.92-.22,1.93,1.93,0,0,1,1.66.79,3.45,3.45,0,0,1,.59,2.13,3.27,3.27,0,0,1-.74,2.28,2.25,2.25,0,0,1-1.71.82,2.31,2.31,0,0,1-1.47-.63l0,.95v1.8Zm2.5-3.23a1.17,1.17,0,0,0,1-.51,2.41,2.41,0,0,0,.38-1.47,2.52,2.52,0,0,0-.29-1.34,1,1,0,0,0-.95-.48,1.87,1.87,0,0,0-1.26.64v2.68a2.2,2.2,0,0,0,.61.36A1.44,1.44,0,0,0,30.34,48.19Z" style="fill:#742cff"/><path d="M35.11,42.41a.88.88,0,0,1-.6-.21.75.75,0,0,1-.23-.55.73.73,0,0,1,.23-.55.84.84,0,0,1,.6-.22.8.8,0,0,1,.59.22.71.71,0,0,1,.24.55.72.72,0,0,1-.24.55A.84.84,0,0,1,35.11,42.41Zm-.68,6.75V43.42h1.34v5.74Z" style="fill:#742cff"/><path d="M39,49.16l-2.39-7.65H38l1.07,3.85c.13.43.24.84.34,1.24s.21.81.34,1.25h0c.13-.44.25-.86.34-1.25s.21-.81.33-1.24l1.06-3.85H43l-2.37,7.65Z" style="fill:#742cff"/><path d="M46,49.3a2.79,2.79,0,0,1-2-.8,3,3,0,0,1-.82-2.21,3.28,3.28,0,0,1,.38-1.61,2.84,2.84,0,0,1,1-1,2.47,2.47,0,0,1,1.27-.36A2.14,2.14,0,0,1,47.6,44a3.06,3.06,0,0,1,.6,2,2.7,2.7,0,0,1-.06.65H44.49A1.8,1.8,0,0,0,45,47.83a1.59,1.59,0,0,0,1.15.43,2.17,2.17,0,0,0,.69-.11,3,3,0,0,0,.64-.32l.46.85a4.35,4.35,0,0,1-.92.44A3,3,0,0,1,46,49.3Zm-1.53-3.56H47a1.69,1.69,0,0,0-.29-1,1,1,0,0,0-.88-.38,1.26,1.26,0,0,0-.9.37A1.67,1.67,0,0,0,44.48,45.74Z" style="fill:#742cff"/><path d="M49.48,49.16V43.42h1.11l.1,1h0a1.86,1.86,0,0,1,1.63-1.15,1.65,1.65,0,0,1,.65.11l-.23,1.17-.28-.07-.32,0a1.35,1.35,0,0,0-.72.26,2,2,0,0,0-.63.92v3.51Z" style="fill:#742cff"/><path d="M55.37,49.3a3.25,3.25,0,0,1-1.17-.23,3.58,3.58,0,0,1-1-.57l.63-.86a3.54,3.54,0,0,0,.77.47,2,2,0,0,0,.82.17,1.09,1.09,0,0,0,.69-.19.63.63,0,0,0,.22-.5A.62.62,0,0,0,56,47c-.26-.12-.54-.25-.85-.36A5,5,0,0,1,54,46.09,1.25,1.25,0,0,1,53.49,45a1.57,1.57,0,0,1,.57-1.24,2.27,2.27,0,0,1,1.52-.48,2.67,2.67,0,0,1,1.08.21,4.11,4.11,0,0,1,.83.48l-.62.81a3.5,3.5,0,0,0-.62-.35,1.57,1.57,0,0,0-.64-.14.91.91,0,0,0-.64.19.57.57,0,0,0,.16,1,7.48,7.48,0,0,0,.83.34,5.34,5.34,0,0,1,1.11.58,1.27,1.27,0,0,1,.53,1.16A1.65,1.65,0,0,1,57,48.78,2.41,2.41,0,0,1,55.37,49.3Z" style="fill:#742cff"/><path d="M59.49,42.41a.88.88,0,0,1-.6-.21.71.71,0,0,1-.23-.55.7.7,0,0,1,.23-.55.84.84,0,0,1,.6-.22.8.8,0,0,1,.59.22.71.71,0,0,1,.24.55.72.72,0,0,1-.24.55A.84.84,0,0,1,59.49,42.41Zm-.68,6.75V43.42h1.34v5.74Z" style="fill:#742cff"/><path d="M64.22,49.3a2.69,2.69,0,0,1-1.9-.79,2.94,2.94,0,0,1-.82-2.22,2.91,2.91,0,0,1,.82-2.22,2.68,2.68,0,0,1,3.8,0A2.87,2.87,0,0,1,67,46.29a2.9,2.9,0,0,1-.83,2.22A2.69,2.69,0,0,1,64.22,49.3Zm0-1.1a1.14,1.14,0,0,0,1-.53,2.4,2.4,0,0,0,.37-1.38,2.43,2.43,0,0,0-.37-1.39,1.2,1.2,0,0,0-2,0,2.43,2.43,0,0,0-.35,1.39,2.4,2.4,0,0,0,.35,1.38A1.14,1.14,0,0,0,64.22,48.2Z" style="fill:#742cff"/><path d="M68.29,49.16V43.42H69.4l.09.77h.05a4.06,4.06,0,0,1,.84-.64,2,2,0,0,1,1-.27,1.54,1.54,0,0,1,1.34.59,2.91,2.91,0,0,1,.42,1.69v3.6H71.84V45.73a1.68,1.68,0,0,0-.22-1,.78.78,0,0,0-.68-.3,1.14,1.14,0,0,0-.66.19,3.79,3.79,0,0,0-.65.53v4Z" style="fill:#742cff"/><path d="M75.59,45.3A.82.82,0,0,1,75,45a1,1,0,0,1,0-1.31.89.89,0,0,1,1.24,0,1,1,0,0,1,0,1.31A.82.82,0,0,1,75.59,45.3Zm0,4A.82.82,0,0,1,75,49a1,1,0,0,1,0-1.31.87.87,0,0,1,1.24,0,1,1,0,0,1,0,1.31A.82.82,0,0,1,75.59,49.3Z"/><path d="M80.74,44.57l-.25-2.13,0-1.32h1.38l0,1.32-.26,2.13Zm2.42,0-.25-2.13,0-1.32h1.38l0,1.32-.26,2.13Z" style="fill:#999"/><path d="M88.21,49.3a2.79,2.79,0,0,1-2-.8,3,3,0,0,1-.82-2.21,3.28,3.28,0,0,1,.38-1.61,2.84,2.84,0,0,1,1-1A2.48,2.48,0,0,1,88,43.28,2.14,2.14,0,0,1,89.8,44a3.06,3.06,0,0,1,.6,2,2.7,2.7,0,0,1-.06.65H86.69a1.8,1.8,0,0,0,.55,1.18,1.59,1.59,0,0,0,1.15.43,2.17,2.17,0,0,0,.69-.11,3,3,0,0,0,.64-.32l.46.85a4.35,4.35,0,0,1-.92.44A3,3,0,0,1,88.21,49.3Zm-1.53-3.56h2.55a1.69,1.69,0,0,0-.29-1,1,1,0,0,0-.88-.38,1.26,1.26,0,0,0-.9.37A1.67,1.67,0,0,0,86.68,45.74Z" style="fill:#999"/><path d="M91.68,49.16V43.42h1.11l.1.77h0a4.4,4.4,0,0,1,.85-.64,2,2,0,0,1,1-.27,1.54,1.54,0,0,1,1.34.59,2.91,2.91,0,0,1,.42,1.69v3.6H95.24V45.73a1.76,1.76,0,0,0-.22-1,.78.78,0,0,0-.68-.3,1.14,1.14,0,0,0-.66.19,3.44,3.44,0,0,0-.65.53v4Z" style="fill:#999"/><path d="M99.83,49.3a3.25,3.25,0,0,1-1.17-.23,3.79,3.79,0,0,1-1-.57l.64-.86a3.49,3.49,0,0,0,.76.47,2.05,2.05,0,0,0,.83.17,1,1,0,0,0,.68-.19.64.64,0,0,0,.23-.5.61.61,0,0,0-.39-.56c-.26-.12-.54-.25-.84-.36a4.77,4.77,0,0,1-1.09-.58A1.25,1.25,0,0,1,98,45a1.59,1.59,0,0,1,.56-1.24,2.3,2.3,0,0,1,1.53-.48,2.62,2.62,0,0,1,1.07.21,3.85,3.85,0,0,1,.83.48l-.62.81a3.42,3.42,0,0,0-.61-.35,1.62,1.62,0,0,0-.65-.14.86.86,0,0,0-.63.19.57.57,0,0,0-.21.45.56.56,0,0,0,.36.51,7.48,7.48,0,0,0,.83.34,5.68,5.68,0,0,1,1.12.58,1.29,1.29,0,0,1,.53,1.16,1.65,1.65,0,0,1-.57,1.26A2.43,2.43,0,0,1,99.83,49.3Z" style="fill:#999"/><path d="M105.72,49.3a2.76,2.76,0,0,1-2-.8,2.91,2.91,0,0,1-.82-2.21,3.28,3.28,0,0,1,.38-1.61,2.68,2.68,0,0,1,1-1,2.45,2.45,0,0,1,1.27-.36,2.11,2.11,0,0,1,1.77.76,3.06,3.06,0,0,1,.6,2,3.48,3.48,0,0,1-.05.65H104.2a1.79,1.79,0,0,0,.54,1.18,1.61,1.61,0,0,0,1.15.43,2.23,2.23,0,0,0,.7-.11,3.19,3.19,0,0,0,.64-.32l.45.85a4,4,0,0,1-.91.44A3.09,3.09,0,0,1,105.72,49.3Zm-1.53-3.56h2.55a1.63,1.63,0,0,0-.3-1,1,1,0,0,0-.87-.38,1.22,1.22,0,0,0-.9.37A1.67,1.67,0,0,0,104.19,45.74Z" style="fill:#999"/><path d="M109.19,49.16V43.42h1.11l.09.78h0a3.75,3.75,0,0,1,.79-.65,1.74,1.74,0,0,1,1-.27,1.7,1.7,0,0,1,1,.27,1.65,1.65,0,0,1,.58.76,4.77,4.77,0,0,1,.86-.73,1.75,1.75,0,0,1,1-.3,1.54,1.54,0,0,1,1.34.59,2.83,2.83,0,0,1,.44,1.69v3.6h-1.36V45.73a1.68,1.68,0,0,0-.22-1,.75.75,0,0,0-.66-.3,1.81,1.81,0,0,0-1.2.72v4h-1.34V45.73a1.76,1.76,0,0,0-.22-1,.77.77,0,0,0-.67-.3,1.82,1.82,0,0,0-1.21.72v4Z" style="fill:#999"/><path d="M121.82,49.3a2.21,2.21,0,0,1-1.56-.75h0l-.11.61H119V40.9h1.35V43l0,1a3.2,3.2,0,0,1,.8-.51,1.9,1.9,0,0,1,.86-.2,2,2,0,0,1,1.67.79,3.44,3.44,0,0,1,.6,2.12,3.24,3.24,0,0,1-.75,2.29A2.25,2.25,0,0,1,121.82,49.3Zm-.28-1.11a1.17,1.17,0,0,0,1-.51,2.34,2.34,0,0,0,.39-1.47,2.51,2.51,0,0,0-.3-1.34,1,1,0,0,0-.94-.48,1.83,1.83,0,0,0-1.26.64v2.68a1.91,1.91,0,0,0,.6.36A1.48,1.48,0,0,0,121.54,48.19Z" style="fill:#999"/><path d="M126.93,49.3a1.15,1.15,0,0,1-1-.44,2,2,0,0,1-.3-1.18V40.9H127v6.85a.53.53,0,0,0,.09.35.3.3,0,0,0,.2.1l.21,0,.17,1A1.75,1.75,0,0,1,126.93,49.3Z" style="fill:#999"/><path d="M131.24,49.3a2.79,2.79,0,0,1-2-.8,3,3,0,0,1-.81-2.21,3.17,3.17,0,0,1,.38-1.61,2.73,2.73,0,0,1,1-1,2.48,2.48,0,0,1,1.28-.36,2.11,2.11,0,0,1,1.77.76,3.06,3.06,0,0,1,.6,2,2.7,2.7,0,0,1-.06.65h-3.65a1.8,1.8,0,0,0,.55,1.18,1.61,1.61,0,0,0,1.15.43,2.17,2.17,0,0,0,.69-.11,3,3,0,0,0,.64-.32l.46.85a4.51,4.51,0,0,1-.91.44A3.15,3.15,0,0,1,131.24,49.3Zm-1.53-3.56h2.55a1.69,1.69,0,0,0-.29-1,1,1,0,0,0-.88-.38,1.26,1.26,0,0,0-.9.37A1.72,1.72,0,0,0,129.71,45.74Z" style="fill:#999"/><path d="M137.06,49.3a2.71,2.71,0,0,1-1.9-.79,3,3,0,0,1-.82-2.22,2.94,2.94,0,0,1,.82-2.22,2.69,2.69,0,0,1,3.81,0,2.91,2.91,0,0,1,.83,2.22,2.94,2.94,0,0,1-.83,2.22A2.71,2.71,0,0,1,137.06,49.3Zm0-1.1a1.16,1.16,0,0,0,1-.53,2.4,2.4,0,0,0,.36-1.38,2.43,2.43,0,0,0-.36-1.39,1.15,1.15,0,0,0-1-.52,1.1,1.1,0,0,0-1,.52,2.43,2.43,0,0,0-.36,1.39,2.4,2.4,0,0,0,.36,1.38A1.11,1.11,0,0,0,137.06,48.2Z" style="fill:#999"/><path d="M142.68,49.3a3.19,3.19,0,0,1-1.16-.23,3.64,3.64,0,0,1-1-.57l.63-.86a3.54,3.54,0,0,0,.77.47,2,2,0,0,0,.82.17,1.09,1.09,0,0,0,.69-.19.63.63,0,0,0,.22-.5.62.62,0,0,0-.38-.56c-.26-.12-.54-.25-.84-.36a4.83,4.83,0,0,1-1.1-.58A1.27,1.27,0,0,1,140.8,45a1.57,1.57,0,0,1,.57-1.24,2.3,2.3,0,0,1,1.53-.48,2.65,2.65,0,0,1,1.07.21,3.85,3.85,0,0,1,.83.48l-.62.81a3.81,3.81,0,0,0-.61-.35,1.65,1.65,0,0,0-.65-.14.91.91,0,0,0-.64.19.59.59,0,0,0-.2.45.56.56,0,0,0,.36.51,7.48,7.48,0,0,0,.83.34,5.34,5.34,0,0,1,1.11.58,1.27,1.27,0,0,1,.54,1.16,1.63,1.63,0,0,1-.58,1.26A2.41,2.41,0,0,1,142.68,49.3Z" style="fill:#999"/><path d="M147.72,49.3a3.25,3.25,0,0,1-1.17-.23,3.58,3.58,0,0,1-1-.57l.63-.86a3.74,3.74,0,0,0,.76.47,2.09,2.09,0,0,0,.83.17,1.09,1.09,0,0,0,.69-.19.63.63,0,0,0,.22-.5.61.61,0,0,0-.39-.56,8.47,8.47,0,0,0-.84-.36,5,5,0,0,1-1.09-.58,1.25,1.25,0,0,1-.52-1.09,1.57,1.57,0,0,1,.57-1.24,2.27,2.27,0,0,1,1.52-.48,2.67,2.67,0,0,1,1.08.21,4.11,4.11,0,0,1,.83.48l-.62.81a3.89,3.89,0,0,0-.62-.35,1.57,1.57,0,0,0-.64-.14.91.91,0,0,0-.64.19.57.57,0,0,0-.21.45.55.55,0,0,0,.37.51,6.76,6.76,0,0,0,.83.34,5.34,5.34,0,0,1,1.11.58,1.27,1.27,0,0,1,.53,1.16,1.65,1.65,0,0,1-.57,1.26A2.41,2.41,0,0,1,147.72,49.3Z" style="fill:#999"/><path d="M151.92,49.3a.86.86,0,0,1-.63-.26,1,1,0,0,1,0-1.31.86.86,0,0,1,.63-.26.84.84,0,0,1,.62.26,1,1,0,0,1,0,1.31A.84.84,0,0,1,151.92,49.3Z" style="fill:#999"/><path d="M155.05,42.41a.88.88,0,0,1-.6-.21.75.75,0,0,1-.23-.55.73.73,0,0,1,.23-.55.93.93,0,0,1,1.2,0,.73.73,0,0,1,.23.55.75.75,0,0,1-.23.55A.88.88,0,0,1,155.05,42.41Zm-.68,6.75V43.42h1.35v5.74Z" style="fill:#999"/><path d="M159.78,49.3a2.71,2.71,0,0,1-1.9-.79,2.94,2.94,0,0,1-.82-2.22,2.91,2.91,0,0,1,.82-2.22,2.69,2.69,0,0,1,3.81,0,2.91,2.91,0,0,1,.83,2.22,2.94,2.94,0,0,1-.83,2.22A2.73,2.73,0,0,1,159.78,49.3Zm0-1.1a1.17,1.17,0,0,0,1-.53,2.4,2.4,0,0,0,.36-1.38,2.43,2.43,0,0,0-.36-1.39,1.16,1.16,0,0,0-1-.52,1.13,1.13,0,0,0-1,.52,2.51,2.51,0,0,0-.35,1.39,2.47,2.47,0,0,0,.35,1.38A1.14,1.14,0,0,0,159.78,48.2Z" style="fill:#999"/><path d="M163.14,51l2.72-10.17h.91L164.05,51Z" style="fill:#999"/><path d="M169.16,49.16l-2-5.74h1.36l.92,3c.07.28.15.56.24.85l.24.88h0c.08-.3.16-.59.25-.88s.17-.57.24-.85l.91-3h1.3l-1.95,5.74Z" style="fill:#999"/><path d="M173.67,49.16v-1.1h1.66V43.17H174v-.84a5.18,5.18,0,0,0,1.72-.61h1v6.34h1.46v1.1Z" style="fill:#999"/><path d="M180,44.57l-.26-2.13,0-1.32h1.38l0,1.32-.27,2.13Zm2.42,0-.26-2.13,0-1.32h1.38l0,1.32-.27,2.13Z" style="fill:#999"/><path d="M21.81,65.16V56.9h1.32v5.16h0l2.13-2.64h1.47l-2,2.33L27,65.16H25.5L24,62.67l-.9,1v1.47Z" style="fill:#742cff"/><path d="M28.59,58.41a.88.88,0,0,1-.6-.21.71.71,0,0,1-.23-.55A.7.7,0,0,1,28,57.1a.84.84,0,0,1,.6-.22.8.8,0,0,1,.59.22.71.71,0,0,1,.24.55.72.72,0,0,1-.24.55A.84.84,0,0,1,28.59,58.41Zm-.68,6.75V59.42h1.34v5.74Z" style="fill:#742cff"/><path d="M31,65.16V59.42h1.11l.09.77h0a4.67,4.67,0,0,1,.84-.64,2,2,0,0,1,1-.27,1.55,1.55,0,0,1,1.35.59,2.91,2.91,0,0,1,.42,1.69v3.6H34.52V61.73a1.77,1.77,0,0,0-.21-1,.79.79,0,0,0-.69-.3,1.14,1.14,0,0,0-.66.19,4.22,4.22,0,0,0-.65.53v4Z" style="fill:#742cff"/><path d="M39.53,65.3a2.1,2.1,0,0,1-1.72-.8,3.4,3.4,0,0,1-.65-2.21,3.13,3.13,0,0,1,.75-2.21,2.28,2.28,0,0,1,1.69-.8,1.78,1.78,0,0,1,.83.17,2.77,2.77,0,0,1,.67.46l0-.93V56.9H42.4v8.26H41.29l-.09-.62h-.05a2.85,2.85,0,0,1-.74.53A1.83,1.83,0,0,1,39.53,65.3Zm.32-1.11a1.63,1.63,0,0,0,1.21-.65V60.87a2,2,0,0,0-.59-.38,1.69,1.69,0,0,0-.58-.1,1.15,1.15,0,0,0-.94.49,2.24,2.24,0,0,0-.39,1.4C38.56,63.55,39,64.19,39.85,64.19Z" style="fill:#742cff"/><path d="M44.87,61.3a.86.86,0,0,1-.63-.26,1,1,0,0,1,0-1.31.85.85,0,0,1,.63-.25.83.83,0,0,1,.62.25,1,1,0,0,1,0,1.31A.84.84,0,0,1,44.87,61.3Zm0,4a.86.86,0,0,1-.63-.26,1,1,0,0,1,0-1.31.86.86,0,0,1,.63-.26.84.84,0,0,1,.62.26,1,1,0,0,1,0,1.31A.84.84,0,0,1,44.87,65.3Z"/><path d="M52.83,65.3a3.28,3.28,0,0,1-2.45-1,4,4,0,0,1-1-2.92,4.61,4.61,0,0,1,.47-2.15,3.41,3.41,0,0,1,1.27-1.36,3.31,3.31,0,0,1,1.75-.48,2.85,2.85,0,0,1,1.29.29,3.49,3.49,0,0,1,.92.68l-.72.88a2.71,2.71,0,0,0-.65-.49,1.77,1.77,0,0,0-.8-.18,1.9,1.9,0,0,0-1.54.74,3.17,3.17,0,0,0-.6,2,3.27,3.27,0,0,0,.57,2,1.82,1.82,0,0,0,1.53.75,1.91,1.91,0,0,0,.91-.22,2.63,2.63,0,0,0,.73-.57l.72.86A3.06,3.06,0,0,1,52.83,65.3Z"/><path d="M57.7,65.3a1.13,1.13,0,0,1-1-.44,2,2,0,0,1-.3-1.18V56.9h1.34v6.85a.47.47,0,0,0,.1.35.3.3,0,0,0,.2.1.76.76,0,0,0,.21,0l.17,1A1.78,1.78,0,0,1,57.7,65.3Z"/><path d="M61.26,65.3a1.52,1.52,0,0,1-1.34-.6A2.9,2.9,0,0,1,59.5,63v-3.6h1.34v3.42a1.81,1.81,0,0,0,.21,1,.8.8,0,0,0,.68.29,1.14,1.14,0,0,0,.66-.19,2.49,2.49,0,0,0,.61-.61V59.42h1.35v5.74h-1.1l-.11-.85h0a3.24,3.24,0,0,1-.82.72A2,2,0,0,1,61.26,65.3Z"/><path d="M67.66,65.3a3.25,3.25,0,0,1-1.17-.23,3.64,3.64,0,0,1-1-.57l.63-.86a3.54,3.54,0,0,0,.77.47,2,2,0,0,0,.82.17,1.09,1.09,0,0,0,.69-.19.63.63,0,0,0,.22-.5.6.6,0,0,0-.38-.56c-.26-.12-.54-.25-.84-.36a4.83,4.83,0,0,1-1.1-.58A1.27,1.27,0,0,1,65.77,61a1.57,1.57,0,0,1,.57-1.24,2.3,2.3,0,0,1,1.53-.48,2.65,2.65,0,0,1,1.07.21,3.85,3.85,0,0,1,.83.48l-.62.81a3.81,3.81,0,0,0-.61-.35,1.62,1.62,0,0,0-.65-.14.91.91,0,0,0-.64.19.59.59,0,0,0-.2.45.56.56,0,0,0,.36.51,7.48,7.48,0,0,0,.83.34,5.68,5.68,0,0,1,1.12.58,1.29,1.29,0,0,1,.53,1.16,1.63,1.63,0,0,1-.58,1.26A2.4,2.4,0,0,1,67.66,65.3Z"/><path d="M72.88,65.3a1.62,1.62,0,0,1-1.41-.58,2.47,2.47,0,0,1-.41-1.5V60.48h-.82v-1l.89-.06.16-1.57h1.12v1.57h1.46v1.06H72.41v2.74c0,.67.27,1,.81,1a1.43,1.43,0,0,0,.59-.13l.24,1a5,5,0,0,1-.53.14A3.22,3.22,0,0,1,72.88,65.3Z"/><path d="M77.34,65.3a2.79,2.79,0,0,1-2-.8,3,3,0,0,1-.81-2.21,3.17,3.17,0,0,1,.38-1.61,2.73,2.73,0,0,1,1-1,2.48,2.48,0,0,1,1.28-.36,2.11,2.11,0,0,1,1.77.76,3.06,3.06,0,0,1,.6,2,2.7,2.7,0,0,1-.06.65H75.82a1.8,1.8,0,0,0,.55,1.18,1.61,1.61,0,0,0,1.15.43,2.17,2.17,0,0,0,.69-.11,3,3,0,0,0,.64-.32l.46.85a4.51,4.51,0,0,1-.91.44A3.15,3.15,0,0,1,77.34,65.3Zm-1.53-3.56h2.55a1.69,1.69,0,0,0-.29-1,1,1,0,0,0-.88-.38,1.26,1.26,0,0,0-.9.37A1.78,1.78,0,0,0,75.81,61.74Z"/><path d="M80.81,65.16V59.42h1.12l.09,1h0a1.85,1.85,0,0,1,1.62-1.15,1.65,1.65,0,0,1,.65.11l-.23,1.17-.28-.07-.32,0a1.3,1.3,0,0,0-.71.26,1.9,1.9,0,0,0-.64.92v3.51Z"/><path d="M21.81,81.16V75.42h1.11l.09.78h0a3.75,3.75,0,0,1,.79-.65,1.74,1.74,0,0,1,1-.27,1.7,1.7,0,0,1,1,.27,1.65,1.65,0,0,1,.58.76,4.45,4.45,0,0,1,.86-.73,1.75,1.75,0,0,1,1-.3,1.56,1.56,0,0,1,1.34.59A2.83,2.83,0,0,1,30,77.56v3.6H28.67V77.73a1.68,1.68,0,0,0-.22-1,.75.75,0,0,0-.66-.3,1.79,1.79,0,0,0-1.2.72v4H25.24V77.73a1.77,1.77,0,0,0-.21-1,.78.78,0,0,0-.67-.3,1.82,1.82,0,0,0-1.21.72v4Z" style="fill:#742cff"/><path d="M34.11,81.3a2.79,2.79,0,0,1-2-.8,3,3,0,0,1-.81-2.21,3.17,3.17,0,0,1,.38-1.61,2.73,2.73,0,0,1,1-1,2.48,2.48,0,0,1,1.28-.36A2.11,2.11,0,0,1,35.7,76a3.06,3.06,0,0,1,.6,2,2.7,2.7,0,0,1-.06.65H32.6a1.75,1.75,0,0,0,.54,1.18,1.61,1.61,0,0,0,1.15.43,2.28,2.28,0,0,0,.7-.11,3.12,3.12,0,0,0,.63-.32l.46.85a4.26,4.26,0,0,1-.91.44A3.15,3.15,0,0,1,34.11,81.3Zm-1.53-3.56h2.55a1.69,1.69,0,0,0-.29-1,1,1,0,0,0-.88-.38,1.26,1.26,0,0,0-.9.37A1.78,1.78,0,0,0,32.58,77.74Z" style="fill:#742cff"/><path d="M39.49,81.3a1.62,1.62,0,0,1-1.41-.58,2.47,2.47,0,0,1-.41-1.5V76.48h-.82v-1l.89-.06.16-1.57H39v1.57h1.46v1.06H39v2.74c0,.67.27,1,.81,1a1.51,1.51,0,0,0,.6-.13l.23,1a5,5,0,0,1-.53.14A3.22,3.22,0,0,1,39.49,81.3Z" style="fill:#742cff"/><path d="M42.83,81.3a1.61,1.61,0,0,1-1.69-1.69,1.6,1.6,0,0,1,.8-1.43,6.12,6.12,0,0,1,2.58-.69,1.54,1.54,0,0,0-.25-.79.91.91,0,0,0-.81-.34,2.15,2.15,0,0,0-.82.17,5.33,5.33,0,0,0-.79.4l-.49-.9a5.42,5.42,0,0,1,1.08-.52,3.42,3.42,0,0,1,1.28-.23c1.43,0,2.14.82,2.14,2.47v3.41H44.75l-.09-.64h0a3.92,3.92,0,0,1-.82.55A2.09,2.09,0,0,1,42.83,81.3Zm.44-1.06a1.23,1.23,0,0,0,.63-.16,3.27,3.27,0,0,0,.62-.47V78.33a4.14,4.14,0,0,0-1.63.45.86.86,0,0,0-.45.73.64.64,0,0,0,.23.56A.93.93,0,0,0,43.27,80.24Z" style="fill:#742cff"/><path d="M49.48,81.3a2.12,2.12,0,0,1-1.72-.8,3.46,3.46,0,0,1-.64-2.21,3.13,3.13,0,0,1,.75-2.21,2.27,2.27,0,0,1,1.68-.8,1.8,1.8,0,0,1,.84.17,2.77,2.77,0,0,1,.67.46L51,75V72.9h1.35v8.26H51.25l-.1-.62h0a2.85,2.85,0,0,1-.74.53A1.87,1.87,0,0,1,49.48,81.3Zm.33-1.11a1.59,1.59,0,0,0,1.2-.65V76.87a1.89,1.89,0,0,0-.59-.38,1.65,1.65,0,0,0-.58-.1,1.18,1.18,0,0,0-.94.49,2.24,2.24,0,0,0-.39,1.4C48.51,79.55,48.94,80.19,49.81,80.19Z" style="fill:#742cff"/><path d="M55.45,81.3a1.69,1.69,0,0,1-1.22-.47,1.66,1.66,0,0,1-.47-1.22,1.62,1.62,0,0,1,.8-1.43,6.12,6.12,0,0,1,2.58-.69,1.54,1.54,0,0,0-.25-.79.9.9,0,0,0-.8-.34,2.2,2.2,0,0,0-.83.17,5.33,5.33,0,0,0-.79.4L54,76a5.42,5.42,0,0,1,1.08-.52,3.42,3.42,0,0,1,1.28-.23c1.43,0,2.14.82,2.14,2.47v3.41H57.37l-.09-.64h-.05a3.92,3.92,0,0,1-.82.55A2.09,2.09,0,0,1,55.45,81.3Zm.44-1.06a1.23,1.23,0,0,0,.63-.16,3.27,3.27,0,0,0,.62-.47V78.33a4.19,4.19,0,0,0-1.63.45.86.86,0,0,0-.45.73.64.64,0,0,0,.23.56A1,1,0,0,0,55.89,80.24Z" style="fill:#742cff"/><path d="M61.93,81.3a1.62,1.62,0,0,1-1.41-.58,2.47,2.47,0,0,1-.41-1.5V76.48h-.82v-1l.89-.06.16-1.57h1.12v1.57h1.46v1.06H61.46v2.74c0,.67.27,1,.81,1a1.43,1.43,0,0,0,.59-.13l.24,1c-.16,0-.34.1-.53.14A3.22,3.22,0,0,1,61.93,81.3Z" style="fill:#742cff"/><path d="M65.27,81.3a1.67,1.67,0,0,1-1.22-.47,1.62,1.62,0,0,1-.47-1.22,1.6,1.6,0,0,1,.8-1.43A6.11,6.11,0,0,1,67,77.49a1.45,1.45,0,0,0-.24-.79.91.91,0,0,0-.81-.34,2.15,2.15,0,0,0-.82.17,5.33,5.33,0,0,0-.79.4L63.8,76a5.6,5.6,0,0,1,1.07-.52,3.51,3.51,0,0,1,1.29-.23c1.43,0,2.14.82,2.14,2.47v3.41H67.19l-.1-.64h0a3.74,3.74,0,0,1-.83.55A2.05,2.05,0,0,1,65.27,81.3Zm.43-1.06a1.24,1.24,0,0,0,.64-.16,3,3,0,0,0,.61-.47V78.33a4.08,4.08,0,0,0-1.62.45.88.88,0,0,0-.46.73.65.65,0,0,0,.24.56A.92.92,0,0,0,65.7,80.24Z" style="fill:#742cff"/><path d="M70.67,77.3A.86.86,0,0,1,70,77a1,1,0,0,1,0-1.31.85.85,0,0,1,.63-.25.81.81,0,0,1,.62.25,1,1,0,0,1,0,1.31A.82.82,0,0,1,70.67,77.3Zm0,4A.86.86,0,0,1,70,81a1,1,0,0,1,0-1.31.86.86,0,0,1,.63-.26.82.82,0,0,1,.62.26,1,1,0,0,1,0,1.31A.82.82,0,0,1,70.67,81.3Z"/><path d="M31.16,97.16V91.42h1.11l.09.77h0a4.67,4.67,0,0,1,.84-.64,2,2,0,0,1,1-.27,1.53,1.53,0,0,1,1.34.59,2.91,2.91,0,0,1,.42,1.69v3.6H34.71V93.73a1.68,1.68,0,0,0-.22-1,.78.78,0,0,0-.68-.3,1.14,1.14,0,0,0-.66.19,3.79,3.79,0,0,0-.65.53v4Z" style="fill:#742cff"/><path d="M39.09,97.3a1.61,1.61,0,0,1-1.69-1.69,1.62,1.62,0,0,1,.8-1.43,6.12,6.12,0,0,1,2.58-.69,1.54,1.54,0,0,0-.25-.79.91.91,0,0,0-.81-.34,2.15,2.15,0,0,0-.82.17,5.33,5.33,0,0,0-.79.4l-.49-.9a5.42,5.42,0,0,1,1.08-.52A3.42,3.42,0,0,1,40,91.28c1.43,0,2.14.82,2.14,2.47v3.41H41l-.09-.64h-.05a3.92,3.92,0,0,1-.82.55A2.09,2.09,0,0,1,39.09,97.3Zm.44-1.06a1.23,1.23,0,0,0,.63-.16,3.27,3.27,0,0,0,.62-.47V94.33a4.19,4.19,0,0,0-1.63.45.86.86,0,0,0-.45.73.64.64,0,0,0,.23.56A.93.93,0,0,0,39.53,96.24Z" style="fill:#742cff"/><path d="M43.73,97.16V91.42h1.11l.1.78h0a4,4,0,0,1,.79-.65,1.79,1.79,0,0,1,1-.27,1.72,1.72,0,0,1,1,.27,1.8,1.8,0,0,1,.58.76,4.4,4.4,0,0,1,.85-.73,1.75,1.75,0,0,1,1-.3,1.57,1.57,0,0,1,1.35.59A2.91,2.91,0,0,1,52,93.56v3.6H50.59V93.73a1.77,1.77,0,0,0-.21-1,.77.77,0,0,0-.66-.3,1.82,1.82,0,0,0-1.21.72v4H47.17V93.73a1.68,1.68,0,0,0-.22-1,.77.77,0,0,0-.67-.3,1.79,1.79,0,0,0-1.2.72v4Z" style="fill:#742cff"/><path d="M56,97.3a2.76,2.76,0,0,1-2-.8,2.91,2.91,0,0,1-.82-2.21,3.28,3.28,0,0,1,.38-1.61,2.68,2.68,0,0,1,1-1,2.45,2.45,0,0,1,1.27-.36,2.11,2.11,0,0,1,1.77.76,3.06,3.06,0,0,1,.6,2,3.48,3.48,0,0,1,0,.65H54.52a1.75,1.75,0,0,0,.54,1.18,1.61,1.61,0,0,0,1.15.43,2.23,2.23,0,0,0,.7-.11,3.19,3.19,0,0,0,.64-.32l.45.85a4,4,0,0,1-.91.44A3.09,3.09,0,0,1,56,97.3Zm-1.53-3.56h2.55a1.63,1.63,0,0,0-.3-1,1,1,0,0,0-.87-.38,1.22,1.22,0,0,0-.9.37A1.67,1.67,0,0,0,54.51,93.74Z" style="fill:#742cff"/><path d="M60.27,93.3a.86.86,0,0,1-.63-.26,1,1,0,0,1,0-1.31.85.85,0,0,1,.63-.25.81.81,0,0,1,.62.25,1,1,0,0,1,0,1.31A.82.82,0,0,1,60.27,93.3Zm0,4a.86.86,0,0,1-.63-.26,1,1,0,0,1,0-1.31.86.86,0,0,1,.63-.26.82.82,0,0,1,.62.26,1,1,0,0,1,0,1.31A.82.82,0,0,1,60.27,97.3Z"/><path d="M64.61,97.16v-.73l2.71-4H64.91V91.42H69v.71l-2.7,4h2.79v1.08Z"/><path d="M70.24,97.16V88.9h1.32v5.16h0l2.13-2.64h1.47l-2,2.33,2.16,3.41H73.93l-1.47-2.49-.9,1v1.47Z"/><path d="M76.35,97.16v-1.1H78V91.17H76.64v-.84a5.1,5.1,0,0,0,1.72-.61h1v6.34h1.46v1.1Z"/><path d="M23.41,113.3a3.25,3.25,0,0,1-1.17-.23,3.58,3.58,0,0,1-1-.57l.63-.86a3.49,3.49,0,0,0,.76.47,2.09,2.09,0,0,0,.83.17,1.09,1.09,0,0,0,.69-.19.67.67,0,0,0,.22-.5A.61.61,0,0,0,24,111c-.25-.12-.54-.25-.84-.36a4.77,4.77,0,0,1-1.09-.58,1.25,1.25,0,0,1-.52-1.09,1.58,1.58,0,0,1,.56-1.24,2.3,2.3,0,0,1,1.53-.48,2.59,2.59,0,0,1,1.07.21,3.85,3.85,0,0,1,.83.48l-.61.81a3.89,3.89,0,0,0-.62-.35,1.62,1.62,0,0,0-.65-.14.91.91,0,0,0-.63.18.6.6,0,0,0-.21.45.56.56,0,0,0,.36.52,8.37,8.37,0,0,0,.83.34,5.41,5.41,0,0,1,1.12.58,1.29,1.29,0,0,1,.53,1.16,1.65,1.65,0,0,1-.57,1.26A2.43,2.43,0,0,1,23.41,113.3Z" style="fill:#742cff"/><path d="M26.85,115.42v-8H28l.09.6h.05a4.16,4.16,0,0,1,.81-.52,2,2,0,0,1,.92-.22,1.94,1.94,0,0,1,1.66.79,3.52,3.52,0,0,1,.59,2.13,3.23,3.23,0,0,1-.75,2.28,2.27,2.27,0,0,1-1.7.82,2.33,2.33,0,0,1-1.48-.64l0,1v1.8Zm2.5-3.23a1.14,1.14,0,0,0,.95-.51,2.34,2.34,0,0,0,.39-1.47,2.61,2.61,0,0,0-.29-1.34,1,1,0,0,0-.95-.48,1.87,1.87,0,0,0-1.26.64v2.68a2.07,2.07,0,0,0,.61.36A1.4,1.4,0,0,0,29.35,112.19Z" style="fill:#742cff"/><path d="M35.89,113.3a2.79,2.79,0,0,1-2-.8,3,3,0,0,1-.82-2.21,3.28,3.28,0,0,1,.38-1.61,2.76,2.76,0,0,1,1-1,2.45,2.45,0,0,1,1.27-.36,2.11,2.11,0,0,1,1.77.76,3,3,0,0,1,.61,2,2.7,2.7,0,0,1-.06.65H34.37a1.8,1.8,0,0,0,.55,1.18,1.59,1.59,0,0,0,1.15.43,1.92,1.92,0,0,0,.69-.12,2.51,2.51,0,0,0,.64-.31l.45.85a4,4,0,0,1-.91.44A3,3,0,0,1,35.89,113.3Zm-1.53-3.56h2.55a1.69,1.69,0,0,0-.29-1,1,1,0,0,0-.88-.38,1.29,1.29,0,0,0-.9.36A1.72,1.72,0,0,0,34.36,109.74Z" style="fill:#742cff"/><path d="M41.76,113.3a2.72,2.72,0,0,1-2-.79,3,3,0,0,1-.8-2.22,2.86,2.86,0,0,1,.86-2.22,2.89,2.89,0,0,1,2-.79,2.35,2.35,0,0,1,1,.18,3.35,3.35,0,0,1,.73.46l-.66.88a1.47,1.47,0,0,0-1-.42,1.38,1.38,0,0,0-1.12.52,2.07,2.07,0,0,0-.44,1.39,2.14,2.14,0,0,0,.42,1.38,1.42,1.42,0,0,0,1.74.38,3.38,3.38,0,0,0,.55-.34l.55.88a2.7,2.7,0,0,1-.89.53A2.87,2.87,0,0,1,41.76,113.3Z" style="fill:#742cff"/><path d="M45.52,109.3a.82.82,0,0,1-.62-.26,1,1,0,0,1,0-1.31.89.89,0,0,1,1.24,0,1,1,0,0,1,0,1.31A.82.82,0,0,1,45.52,109.3Zm0,4a.82.82,0,0,1-.62-.26,1,1,0,0,1,0-1.31.87.87,0,0,1,1.24,0,1,1,0,0,1,0,1.31A.82.82,0,0,1,45.52,113.3Z"/><path d="M33.94,129.3a2.21,2.21,0,0,1-1.57-.75h0l-.12.61H31.16V120.9H32.5V123l0,1a3.14,3.14,0,0,1,.79-.51,2.11,2.11,0,0,1,2.54.59,3.51,3.51,0,0,1,.59,2.12,3.28,3.28,0,0,1-.74,2.29A2.29,2.29,0,0,1,33.94,129.3Zm-.28-1.11a1.17,1.17,0,0,0,1-.51,2.41,2.41,0,0,0,.38-1.47,2.52,2.52,0,0,0-.29-1.34,1,1,0,0,0-1-.48,1.87,1.87,0,0,0-1.26.64v2.68a1.91,1.91,0,0,0,.6.36A1.53,1.53,0,0,0,33.66,128.19Z" style="fill:#742cff"/><path d="M39,129.3a1.66,1.66,0,0,1-1.22-.47,1.72,1.72,0,0,1,.32-2.65,6.21,6.21,0,0,1,2.58-.69,1.53,1.53,0,0,0-.24-.79.89.89,0,0,0-.81-.34,2.11,2.11,0,0,0-.82.17,5.79,5.79,0,0,0-.79.39l-.49-.9a7.11,7.11,0,0,1,1.07-.52,3.68,3.68,0,0,1,1.29-.22c1.42,0,2.14.82,2.14,2.47v3.41H40.9l-.09-.64h-.05a3.68,3.68,0,0,1-.82.55A2.05,2.05,0,0,1,39,129.3Zm.43-1.06a1.27,1.27,0,0,0,.64-.16,3.23,3.23,0,0,0,.61-.47v-1.28a4.08,4.08,0,0,0-1.62.45.85.85,0,0,0-.46.73.68.68,0,0,0,.23.56A1,1,0,0,0,39.42,128.24Z" style="fill:#742cff"/><path d="M46,129.3a2.73,2.73,0,0,1-2-.79,3,3,0,0,1-.8-2.22,2.84,2.84,0,0,1,2.88-3,2.42,2.42,0,0,1,1,.18,3.28,3.28,0,0,1,.72.46l-.65.88a1.47,1.47,0,0,0-1-.42,1.4,1.4,0,0,0-1.13.52,2.12,2.12,0,0,0-.44,1.39,2.09,2.09,0,0,0,.43,1.38,1.35,1.35,0,0,0,1.1.53,1.39,1.39,0,0,0,.63-.15,2.7,2.7,0,0,0,.55-.34l.55.88a2.6,2.6,0,0,1-.89.53A2.78,2.78,0,0,1,46,129.3Z" style="fill:#742cff"/><path d="M49,129.16V120.9h1.32v5.16h0l2.13-2.64H54l-2,2.33,2.16,3.41H52.72l-1.47-2.49-.9,1v1.47Z" style="fill:#742cff"/><path d="M57.31,129.3a2.79,2.79,0,0,1-2-.8,3,3,0,0,1-.82-2.21,3.28,3.28,0,0,1,.38-1.61,2.84,2.84,0,0,1,1-1,2.48,2.48,0,0,1,1.28-.36,2.11,2.11,0,0,1,1.77.76,3.06,3.06,0,0,1,.6,2,2.7,2.7,0,0,1-.06.65H55.79a1.8,1.8,0,0,0,.55,1.18,1.61,1.61,0,0,0,1.15.43,1.92,1.92,0,0,0,.69-.12,2.51,2.51,0,0,0,.64-.31l.46.85a4.51,4.51,0,0,1-.91.44A3.15,3.15,0,0,1,57.31,129.3Zm-1.53-3.56h2.55a1.69,1.69,0,0,0-.29-1,1,1,0,0,0-.88-.38,1.29,1.29,0,0,0-.9.36A1.72,1.72,0,0,0,55.78,125.74Z" style="fill:#742cff"/><path d="M60.78,129.16v-5.74h1.11l.1.77h0a4,4,0,0,1,.85-.64,2,2,0,0,1,1-.27,1.54,1.54,0,0,1,1.34.59,2.91,2.91,0,0,1,.42,1.69v3.6H64.34v-3.43a1.68,1.68,0,0,0-.22-1,.78.78,0,0,0-.68-.3,1.14,1.14,0,0,0-.66.19,3.79,3.79,0,0,0-.65.53v4Z" style="fill:#742cff"/><path d="M69.34,129.3a2.1,2.1,0,0,1-1.72-.8,3.42,3.42,0,0,1-.64-2.21,3.13,3.13,0,0,1,.75-2.21,2.26,2.26,0,0,1,1.68-.8,1.76,1.76,0,0,1,.83.17,2.81,2.81,0,0,1,.68.46l0-.93V120.9h1.34v8.26H71.1l-.09-.62H71a2.79,2.79,0,0,1-.73.53A1.87,1.87,0,0,1,69.34,129.3Zm.33-1.11a1.61,1.61,0,0,0,1.2-.65v-2.67a1.89,1.89,0,0,0-.59-.38,1.65,1.65,0,0,0-.58-.1,1.15,1.15,0,0,0-.94.49,2.22,2.22,0,0,0-.39,1.4C68.37,127.55,68.8,128.19,69.67,128.19Z" style="fill:#742cff"/><path d="M74.68,125.3a.86.86,0,0,1-.63-.26,1,1,0,0,1,0-1.31.85.85,0,0,1,.63-.25.81.81,0,0,1,.62.25,1,1,0,0,1,0,1.31A.82.82,0,0,1,74.68,125.3Zm0,4a.86.86,0,0,1-.63-.26,1,1,0,0,1,0-1.31.86.86,0,0,1,.63-.26.82.82,0,0,1,.62.26,1,1,0,0,1,0,1.31A.82.82,0,0,1,74.68,129.3Z"/><path d="M40.51,145.16v-5.74h1.11l.09.77h0a4.25,4.25,0,0,1,.84-.64,2,2,0,0,1,1-.27,1.54,1.54,0,0,1,1.34.59,2.91,2.91,0,0,1,.42,1.69v3.6H44.06v-3.43a1.68,1.68,0,0,0-.22-1,.78.78,0,0,0-.68-.3,1.14,1.14,0,0,0-.66.19,3.79,3.79,0,0,0-.65.53v4Z" style="fill:#742cff"/><path d="M48.44,145.3a1.61,1.61,0,0,1-1.69-1.69,1.6,1.6,0,0,1,.8-1.43,6.12,6.12,0,0,1,2.58-.69,1.54,1.54,0,0,0-.25-.79.89.89,0,0,0-.81-.34,2.15,2.15,0,0,0-.82.17,6.43,6.43,0,0,0-.79.39L47,140a6.8,6.8,0,0,1,1.08-.52,3.63,3.63,0,0,1,1.28-.22c1.43,0,2.14.82,2.14,2.47v3.41H50.36l-.09-.64h-.05a3.92,3.92,0,0,1-.82.55A2.09,2.09,0,0,1,48.44,145.3Zm.44-1.06a1.23,1.23,0,0,0,.63-.16,3.27,3.27,0,0,0,.62-.47v-1.28a4.14,4.14,0,0,0-1.63.45.86.86,0,0,0-.45.73.65.65,0,0,0,.23.56A.93.93,0,0,0,48.88,144.24Z" style="fill:#742cff"/><path d="M53.08,145.16v-5.74h1.11l.1.78h0a3.69,3.69,0,0,1,.79-.65,1.79,1.79,0,0,1,1-.27,1.72,1.72,0,0,1,1,.27,1.8,1.8,0,0,1,.58.76,4.4,4.4,0,0,1,.85-.73,1.75,1.75,0,0,1,1-.3,1.57,1.57,0,0,1,1.35.59,2.91,2.91,0,0,1,.43,1.69v3.6H59.94v-3.43a1.77,1.77,0,0,0-.21-1,.77.77,0,0,0-.66-.3,1.82,1.82,0,0,0-1.21.72v4H56.52v-3.43a1.68,1.68,0,0,0-.22-1,.77.77,0,0,0-.67-.3,1.79,1.79,0,0,0-1.2.72v4Z" style="fill:#742cff"/><path d="M65.39,145.3a2.76,2.76,0,0,1-2-.8,2.93,2.93,0,0,1-.82-2.21,3.28,3.28,0,0,1,.38-1.61,2.68,2.68,0,0,1,1-1,2.45,2.45,0,0,1,1.27-.36A2.11,2.11,0,0,1,67,140a3.06,3.06,0,0,1,.6,2,3.48,3.48,0,0,1,0,.65H63.87a1.75,1.75,0,0,0,.54,1.18,1.61,1.61,0,0,0,1.15.43,2,2,0,0,0,.7-.12,2.68,2.68,0,0,0,.64-.31l.45.85a4,4,0,0,1-.91.44A3.13,3.13,0,0,1,65.39,145.3Zm-1.53-3.56h2.55a1.63,1.63,0,0,0-.3-1,1,1,0,0,0-.87-.38,1.25,1.25,0,0,0-.9.36A1.72,1.72,0,0,0,63.86,141.74Z" style="fill:#742cff"/><path d="M69.62,141.3A.86.86,0,0,1,69,141a1,1,0,0,1,0-1.31.85.85,0,0,1,.63-.25.83.83,0,0,1,.62.25,1,1,0,0,1,0,1.31A.84.84,0,0,1,69.62,141.3Zm0,4A.86.86,0,0,1,69,145a1,1,0,0,1,0-1.31.86.86,0,0,1,.63-.26.84.84,0,0,1,.62.26,1,1,0,0,1,0,1.31A.84.84,0,0,1,69.62,145.3Z"/><path d="M74,145.16v-.82l3.7-5.68H74.36v-1.15h5v.82L75.7,144h3.72v1.15Z"/><path d="M82.87,145.3a2.71,2.71,0,0,1-1.9-.79,2.94,2.94,0,0,1-.82-2.22,2.91,2.91,0,0,1,.82-2.22,2.69,2.69,0,0,1,3.81,0,2.91,2.91,0,0,1,.83,2.22,2.94,2.94,0,0,1-.83,2.22A2.73,2.73,0,0,1,82.87,145.3Zm0-1.1a1.17,1.17,0,0,0,1-.53,2.4,2.4,0,0,0,.36-1.38,2.43,2.43,0,0,0-.36-1.39,1.16,1.16,0,0,0-1-.52,1.13,1.13,0,0,0-1,.52,2.51,2.51,0,0,0-.35,1.39,2.47,2.47,0,0,0,.35,1.38A1.14,1.14,0,0,0,82.87,144.2Z"/><path d="M89.29,145.3a2.69,2.69,0,0,1-1.9-.79,2.94,2.94,0,0,1-.83-2.22,2.91,2.91,0,0,1,.83-2.22,2.68,2.68,0,0,1,3.8,0,2.87,2.87,0,0,1,.83,2.22,2.9,2.9,0,0,1-.83,2.22A2.71,2.71,0,0,1,89.29,145.3Zm0-1.1a1.14,1.14,0,0,0,1-.53,2.4,2.4,0,0,0,.36-1.38,2.43,2.43,0,0,0-.36-1.39,1.2,1.2,0,0,0-2,0,2.43,2.43,0,0,0-.36,1.39,2.4,2.4,0,0,0,.36,1.38A1.14,1.14,0,0,0,89.29,144.2Z"/><path d="M93.35,145.16V136.9h1.33v5.16h0l2.13-2.64h1.47l-2,2.33,2.16,3.41H97.05l-1.47-2.49-.9,1v1.47Z"/><path d="M101.64,145.3a2.79,2.79,0,0,1-2-.8,3,3,0,0,1-.82-2.21,3.28,3.28,0,0,1,.38-1.61,2.84,2.84,0,0,1,1-1,2.47,2.47,0,0,1,1.27-.36,2.14,2.14,0,0,1,1.78.76,3.06,3.06,0,0,1,.6,2,2.7,2.7,0,0,1-.06.65h-3.65a1.8,1.8,0,0,0,.55,1.18,1.59,1.59,0,0,0,1.15.43,1.92,1.92,0,0,0,.69-.12,2.51,2.51,0,0,0,.64-.31l.45.85a4,4,0,0,1-.91.44A3,3,0,0,1,101.64,145.3Zm-1.53-3.56h2.55a1.69,1.69,0,0,0-.29-1,1,1,0,0,0-.88-.38,1.29,1.29,0,0,0-.9.36A1.72,1.72,0,0,0,100.11,141.74Z"/><path d="M107.57,145.3a2.76,2.76,0,0,1-2-.8,2.93,2.93,0,0,1-.82-2.21,3.17,3.17,0,0,1,.38-1.61,2.68,2.68,0,0,1,1-1,2.45,2.45,0,0,1,1.27-.36,2.11,2.11,0,0,1,1.77.76,3.06,3.06,0,0,1,.6,2,2.7,2.7,0,0,1-.06.65h-3.64a1.75,1.75,0,0,0,.54,1.18,1.61,1.61,0,0,0,1.15.43,2,2,0,0,0,.7-.12,2.63,2.63,0,0,0,.63-.31l.46.85a4.26,4.26,0,0,1-.91.44A3.13,3.13,0,0,1,107.57,145.3ZM106,141.74h2.54a1.63,1.63,0,0,0-.29-1,1,1,0,0,0-.88-.38,1.29,1.29,0,0,0-.9.36A1.77,1.77,0,0,0,106,141.74Z"/><path d="M111,147.42v-8h1.11l.09.6h.05a4.16,4.16,0,0,1,.81-.52,2,2,0,0,1,.92-.22,1.94,1.94,0,0,1,1.66.79,3.45,3.45,0,0,1,.59,2.13,3.27,3.27,0,0,1-.74,2.28,2.29,2.29,0,0,1-1.71.82,2.33,2.33,0,0,1-1.47-.64l0,1v1.8Zm2.5-3.23a1.17,1.17,0,0,0,1-.51,2.41,2.41,0,0,0,.38-1.47,2.52,2.52,0,0,0-.29-1.34,1,1,0,0,0-1-.48,1.87,1.87,0,0,0-1.26.64v2.68a2.07,2.07,0,0,0,.61.36A1.44,1.44,0,0,0,113.54,144.19Z"/><path d="M120.08,145.3a2.79,2.79,0,0,1-2-.8,3,3,0,0,1-.82-2.21,3.28,3.28,0,0,1,.38-1.61,2.84,2.84,0,0,1,1-1,2.48,2.48,0,0,1,1.28-.36,2.11,2.11,0,0,1,1.77.76,3.06,3.06,0,0,1,.6,2,2.7,2.7,0,0,1-.06.65h-3.65a1.8,1.8,0,0,0,.55,1.18,1.61,1.61,0,0,0,1.15.43,1.92,1.92,0,0,0,.69-.12,2.51,2.51,0,0,0,.64-.31l.46.85a4.51,4.51,0,0,1-.91.44A3.15,3.15,0,0,1,120.08,145.3Zm-1.53-3.56h2.55a1.69,1.69,0,0,0-.29-1,1,1,0,0,0-.88-.38,1.29,1.29,0,0,0-.9.36A1.72,1.72,0,0,0,118.55,141.74Z"/><path d="M123.55,145.16v-5.74h1.11l.1,1h0a1.87,1.87,0,0,1,1.63-1.15,1.65,1.65,0,0,1,.65.11l-.23,1.17-.28-.07-.32,0a1.3,1.3,0,0,0-.71.26,1.9,1.9,0,0,0-.64.92v3.51Z"/><path d="M31.16,161.16v-5.74h1.11l.09,1h0A1.85,1.85,0,0,1,34,155.28a1.71,1.71,0,0,1,.66.11l-.24,1.17-.28-.07-.31,0a1.3,1.3,0,0,0-.72.26,2,2,0,0,0-.64.92v3.51Z" style="fill:#742cff"/><path d="M37.85,161.3a2.79,2.79,0,0,1-2-.8,3,3,0,0,1-.81-2.21,3.17,3.17,0,0,1,.38-1.61,2.73,2.73,0,0,1,1-1,2.48,2.48,0,0,1,1.28-.36,2.11,2.11,0,0,1,1.77.76,3.06,3.06,0,0,1,.6,2,2.7,2.7,0,0,1-.06.65H36.33a1.8,1.8,0,0,0,.55,1.18,1.61,1.61,0,0,0,1.15.43,2,2,0,0,0,.7-.12,2.63,2.63,0,0,0,.63-.31l.46.85a4.51,4.51,0,0,1-.91.44A3.15,3.15,0,0,1,37.85,161.3Zm-1.53-3.56h2.55a1.69,1.69,0,0,0-.29-1,1,1,0,0,0-.88-.38,1.29,1.29,0,0,0-.9.36A1.84,1.84,0,0,0,36.32,157.74Z" style="fill:#742cff"/><path d="M41.33,163.42v-8h1.11l.09.6h0a4.16,4.16,0,0,1,.81-.52,2,2,0,0,1,.92-.22,1.94,1.94,0,0,1,1.66.79,3.52,3.52,0,0,1,.59,2.13,3.23,3.23,0,0,1-.75,2.28,2.27,2.27,0,0,1-1.7.82,2.33,2.33,0,0,1-1.48-.64l0,1v1.8Zm2.5-3.23a1.14,1.14,0,0,0,1-.51,2.34,2.34,0,0,0,.39-1.47,2.61,2.61,0,0,0-.29-1.34,1,1,0,0,0-1-.48,1.87,1.87,0,0,0-1.26.64v2.68a2.07,2.07,0,0,0,.61.36A1.4,1.4,0,0,0,43.83,160.19Z" style="fill:#742cff"/><path d="M49.23,161.3a1.15,1.15,0,0,1-1-.44,2.1,2.1,0,0,1-.29-1.18V152.9h1.34v6.85a.53.53,0,0,0,.09.35.32.32,0,0,0,.2.1.76.76,0,0,0,.21,0l.18,1A1.78,1.78,0,0,1,49.23,161.3Z" style="fill:#742cff"/><path d="M51.76,154.41a.84.84,0,0,1-.59-.21.72.72,0,0,1-.24-.55.71.71,0,0,1,.24-.55.8.8,0,0,1,.59-.22.84.84,0,0,1,.6.22.73.73,0,0,1,.23.55.75.75,0,0,1-.23.55A.88.88,0,0,1,51.76,154.41Zm-.68,6.75v-5.74h1.35v5.74Z" style="fill:#742cff"/><path d="M56.54,161.3a2.73,2.73,0,0,1-2-.79,3,3,0,0,1-.8-2.22,2.84,2.84,0,0,1,2.88-3,2.33,2.33,0,0,1,1,.18,3.13,3.13,0,0,1,.73.46l-.65.88a1.47,1.47,0,0,0-1-.42,1.4,1.4,0,0,0-1.13.52,2.12,2.12,0,0,0-.44,1.39,2.09,2.09,0,0,0,.43,1.38,1.35,1.35,0,0,0,1.1.53,1.39,1.39,0,0,0,.63-.15,2.7,2.7,0,0,0,.55-.34l.55.88a2.6,2.6,0,0,1-.89.53A2.78,2.78,0,0,1,56.54,161.3Z" style="fill:#742cff"/><path d="M60.82,161.3a1.66,1.66,0,0,1-1.22-.47,1.72,1.72,0,0,1,.32-2.65,6.21,6.21,0,0,1,2.58-.69,1.53,1.53,0,0,0-.24-.79.89.89,0,0,0-.81-.34,2.15,2.15,0,0,0-.82.17,5.79,5.79,0,0,0-.79.39l-.49-.9a7.11,7.11,0,0,1,1.07-.52,3.72,3.72,0,0,1,1.29-.22c1.42,0,2.14.82,2.14,2.47v3.41H62.74l-.1-.64h0a4,4,0,0,1-.83.55A2.05,2.05,0,0,1,60.82,161.3Zm.43-1.06a1.24,1.24,0,0,0,.64-.16,3.23,3.23,0,0,0,.61-.47v-1.28a4.08,4.08,0,0,0-1.62.45.85.85,0,0,0-.46.73.66.66,0,0,0,.24.56A.92.92,0,0,0,61.25,160.24Z" style="fill:#742cff"/><path d="M67.06,161.3a3.25,3.25,0,0,1-1.17-.23,3.58,3.58,0,0,1-1-.57l.63-.86a3.49,3.49,0,0,0,.76.47,2.09,2.09,0,0,0,.83.17,1.09,1.09,0,0,0,.69-.19.67.67,0,0,0,.22-.5.61.61,0,0,0-.39-.56c-.25-.12-.54-.25-.84-.36a4.77,4.77,0,0,1-1.09-.58,1.25,1.25,0,0,1-.52-1.09,1.56,1.56,0,0,1,.57-1.24,2.25,2.25,0,0,1,1.52-.48,2.67,2.67,0,0,1,1.08.21,4,4,0,0,1,.82.48l-.61.81a3.89,3.89,0,0,0-.62-.35,1.58,1.58,0,0,0-.65-.14.91.91,0,0,0-.63.18.6.6,0,0,0-.21.45.56.56,0,0,0,.36.52,8.37,8.37,0,0,0,.83.34,5.41,5.41,0,0,1,1.12.58,1.29,1.29,0,0,1,.53,1.16,1.65,1.65,0,0,1-.57,1.26A2.43,2.43,0,0,1,67.06,161.3Z" style="fill:#742cff"/><path d="M71.26,157.3a.86.86,0,0,1-.63-.26,1,1,0,0,1,0-1.31.91.91,0,0,1,1.25,0,1,1,0,0,1,0,1.31A.85.85,0,0,1,71.26,157.3Zm0,4a.86.86,0,0,1-.63-.26,1,1,0,0,1,0-1.31.88.88,0,0,1,1.25,0,1,1,0,0,1,0,1.31A.85.85,0,0,1,71.26,161.3Z"/><path d="M78,161.3a3.38,3.38,0,0,1-1.51-.31,3.3,3.3,0,0,1-1-.75l.65-.86a3.46,3.46,0,0,0,.77.58,2,2,0,0,0,1,.24,1.54,1.54,0,0,0,1-.3,1,1,0,0,0,.38-.82,1.09,1.09,0,0,0-.46-.93,3.14,3.14,0,0,0-1.73-.34v-1a2.46,2.46,0,0,0,1.52-.34,1,1,0,0,0,.42-.85.91.91,0,0,0-.29-.73,1.12,1.12,0,0,0-.8-.26,1.67,1.67,0,0,0-.81.19,3.82,3.82,0,0,0-.69.51l-.69-.83a4.43,4.43,0,0,1,1-.68,2.82,2.82,0,0,1,1.21-.26,2.77,2.77,0,0,1,1.74.51,1.71,1.71,0,0,1,.67,1.46,1.59,1.59,0,0,1-.35,1,2.09,2.09,0,0,1-1,.66v.05a2.34,2.34,0,0,1,1.1.64,1.66,1.66,0,0,1,.44,1.21,1.86,1.86,0,0,1-.76,1.58A3,3,0,0,1,78,161.3Z" style="fill:#742cff"/></g></g></svg>