<svg id="Capa_1" data-name="Capa 1" xmlns="http://www.w3.org/2000/svg" viewBox="0 0 322.8 313.1"><g id="Capa_2" data-name="Capa 2"><g id="Capa_5" data-name="Capa 5"><g style="opacity:0.019999999552965164;isolation:isolate"><rect x="222.9" y="0.5" width="97.7" height="97.7" style="fill:#fff"/><path d="M321.2,98.7H222.5V0h98.7Zm-97.7-1h96.7V1H223.5V97.7Z" style="fill:#4d4d4d"/></g><g style="opacity:0.019999999552965164;isolation:isolate"><rect x="222.9" y="107.4" width="97.7" height="97.7" style="fill:#fff"/><path d="M321.2,205.6H222.5V106.9h98.7Zm-97.7-1h96.7V107.9H223.5v96.7Z" style="fill:#4d4d4d"/></g><g style="opacity:0.019999999552965164;isolation:isolate"><rect x="112.3" y="214.9" width="97.7" height="97.7" style="fill:#fff"/><path d="M210.6,313.1H111.9V214.4h98.7Zm-97.8-1h96.7V215.4H112.8Z" style="fill:#4d4d4d"/></g><g style="opacity:0.019999999552965164;isolation:isolate"><rect x="224.5" y="214.9" width="97.7" height="97.7" style="fill:#fff"/><path d="M322.8,313.1H224V214.4h98.7v98.7Zm-97.8-1h96.7V215.4H225Z" style="fill:#4d4d4d"/></g><g style="opacity:0.019999999552965164;isolation:isolate"><rect x="2.1" y="107.4" width="97.7" height="97.7" style="fill:#fff"/><path d="M100.3,205.6H1.6V106.9h98.7Zm-97.7-1H99.3V107.9H2.6Z" style="fill:#4d4d4d"/></g><path d="M264.5,17.8c.3,0,.6.1.9.1a7.71,7.71,0,0,1,5,3,7.54,7.54,0,0,1,1.8,4.3,8.13,8.13,0,0,1-3.7,7.8,8.49,8.49,0,0,1-2.6,1.1.22.22,0,0,0-.2.2v4.3c0,.1,0,.2.2.2a10.54,10.54,0,0,1,6.4,3.7c.1.1.1.1.2,0l3.6-2.6c.1,0,.1-.1.1-.2a8.25,8.25,0,0,1,3-8.8,7.86,7.86,0,0,1,5.9-1.6,8.25,8.25,0,1,1-7,13.7c-.1-.1-.1-.1-.3,0l-3.6,2.5c-.1,0-.1.1-.1.2h0a9.11,9.11,0,0,1,.5,4.3,12.21,12.21,0,0,1-.6,2.6c0,.1,0,.2.1.2l3.6,2.6c.1.1.2.1.2,0a8.29,8.29,0,0,1,11.5-.7,8.42,8.42,0,0,1,2.8,5,8,8,0,0,1-2.1,6.8,8.42,8.42,0,0,1-4.9,2.6,8.24,8.24,0,0,1-9.4-6.9,7.84,7.84,0,0,1,.2-3.4.19.19,0,0,0-.1-.3L272.3,56a.19.19,0,0,0-.3,0,10.67,10.67,0,0,1-6.1,3.6c-.2,0-.2.1-.2.2v4.6c0,.1,0,.2.2.2A7.77,7.77,0,0,1,272,71a8.22,8.22,0,0,1-6.5,9.7,2.49,2.49,0,0,1-.8.1,8.29,8.29,0,0,1-9-7.5,8.18,8.18,0,0,1,4.3-8,11.92,11.92,0,0,1,2-.8.22.22,0,0,0,.2-.2V60c0-.1,0-.2-.2-.2a10.18,10.18,0,0,1-5.8-3.2,10.54,10.54,0,0,1-2.9-6.3,10.65,10.65,0,0,1,8.6-11.5c.1,0,.1-.1.1-.2V34.1a.22.22,0,0,0-.2-.2,7.94,7.94,0,0,1-5.7-5.1A8.22,8.22,0,0,1,261,18.2a8.33,8.33,0,0,1,1.5-.4l.8-.1Zm-6.1,31.5a5.6,5.6,0,1,0,5.6-5.6h0a5.59,5.59,0,0,0-5.6,5.6ZM268,26a4,4,0,1,0-4,4A4,4,0,0,0,268,26Zm12.1,35.1a4,4,0,1,0,4-4,4,4,0,0,0-4,4Zm4-27.6a4,4,0,1,0,4,4,4.08,4.08,0,0,0-4-4ZM264,76.9a4,4,0,1,0-4-4A4,4,0,0,0,264,76.9Z" style="fill:#fff"/><path d="M93.2,143.6Z" style="fill:#2b2a2a"/><path d="M93.2,143.7l-.1.1-.1-.1Z" style="fill:#2b2a2a"/><path d="M93.1,143.8h0l-.4.7a.1.1,0,0,0-.1.1l-.1.1-.8.8a15.69,15.69,0,0,1-9.3,4.9,6.36,6.36,0,0,1-3.6-.5c-.8-.5-1.7-.9-2.5-1.3a42.31,42.31,0,0,0-12.5-4.4,21.66,21.66,0,0,0-2.5-.4h0c.4.2.8.5.5,1l-.3-.2a8,8,0,0,0-2.5-1.1c-1.2-.1-2.5-.2-3.7-.2l.3.1a12.41,12.41,0,0,0-8.7,2.5c-.2-.6-.2-.4.2-.7a5.55,5.55,0,0,0,.8-.6,25.57,25.57,0,0,1,2.4-1.1,4.87,4.87,0,0,0-1.2.1l-2.5.3a38.26,38.26,0,0,0-5.9,1v.4h-.2c0-.2-.1-.3-.4-.2l-1.2.3a1.56,1.56,0,0,0-.8.6,10.47,10.47,0,0,1-.8,1.1h0a.6.6,0,0,1,.1-.4l.5-1-.2.1a47.11,47.11,0,0,0-12.6,6.5c-2.4,1.6-4.7,3.4-7.1,5-1.2.8-2.5,1.6-3.8,2.3H14l-.1.1-.3.1-.1-.1a30.84,30.84,0,0,1,3.3-3A65.06,65.06,0,0,1,27.2,149a53.13,53.13,0,0,1,17.2-6.7c.2,0,.3-.1.5-.1,1.1,0,1.5-.8,1.8-1.6a5,5,0,0,0,.2-1.2,4.4,4.4,0,0,1,.2,1,2,2,0,0,0,.5.9.49.49,0,0,0,.7.1l.1-.1a4.19,4.19,0,0,0,.9-1.4c.1-.1.1-.3.2-.5a2.2,2.2,0,0,1-.1.8,1.39,1.39,0,0,0,0,.9.44.44,0,0,0,.6.4c.1,0,.1,0,.2-.1a4.7,4.7,0,0,0,.9-.6,15.58,15.58,0,0,0,1.6-2,6.61,6.61,0,0,0-.3,2.4c0,.1,0,.2.2.3s.3-.1.4-.2a11.51,11.51,0,0,0,1.4-1.7l.9-1.2c.1.1,0,.2-.1.3a6.15,6.15,0,0,0-.3,1.1.85.85,0,0,0,.7.8h.1a2.77,2.77,0,0,0,1.3-.3,6,6,0,0,0,1.5-.9c.1,0,.1-.2.3-.1a10.91,10.91,0,0,0-.6,1.1c-.2.4-.1.6.3.7a4.11,4.11,0,0,0,3.5-.9,11.37,11.37,0,0,0,1.6-1.5c.1-.1.1-.2.2-.2s0,.2-.1.3a19.1,19.1,0,0,1-1.6,2.7c-.2.3-.2.3.2.4a3.44,3.44,0,0,0,2-.4,7.82,7.82,0,0,0,2.5-2.3l.2-.3h.1l-1.7,3.4c-.1.1-.2.2-.1.3s.2.1.4,0a3.38,3.38,0,0,0,1.2-.6,29.15,29.15,0,0,0,4.1-3.7.52.52,0,0,1,.4-.2,20.14,20.14,0,0,1-3.8,4.9.85.85,0,0,0,.7,0,7.1,7.1,0,0,0,2.2-1.3,2.65,2.65,0,0,0,.6-.5c0,.2-.1.2-.2.3a9.91,9.91,0,0,0-1.1,1.7c-.1.2-.3.5-.1.7a.74.74,0,0,0,.9.1,4.19,4.19,0,0,0,1.4-.9,42.72,42.72,0,0,0,3.6-3.8l.3-.3-1.8,3c-.1,0-.1.1-.1.2h0c-.1,0-.1.1-.1.2h0a.1.1,0,0,0-.1.1,31.12,31.12,0,0,1-2.3,2.8c-.2.2.1.2.2.2a1.39,1.39,0,0,0,1.1-.2,5.85,5.85,0,0,0,1.7-1,29.17,29.17,0,0,0,4.7-4.6c.2-.2.4-.5.6-.7a8.64,8.64,0,0,1-1.4,2.9c-.1,0-.1.1-.1.2h0a.1.1,0,0,0-.1.1,20.62,20.62,0,0,1-2.5,2.6c-.1.1-.2.1-.2.2a1.27,1.27,0,0,0,.6-.1h.1a6.08,6.08,0,0,0,2.4-1.5,23.42,23.42,0,0,0,3.7-4l.3-.3a20.94,20.94,0,0,1-4.9,7.2,2.92,2.92,0,0,0,.9-.2,10.34,10.34,0,0,0,3.1-2.4,40.24,40.24,0,0,0,3.7-4.5l.3-.3a26,26,0,0,1-2.6,4.6c-.1,0-.2.2-.2.2a16.61,16.61,0,0,1-2.6,2.7c-.1.1-.2.1-.3.3a.75.75,0,0,0,.5.1,5.11,5.11,0,0,0,2.7-.4,16.39,16.39,0,0,0,4.8-2.7c.8-.6,1.6-1.3,2.4-2,.1-.1.1-.2.3-.1a8.64,8.64,0,0,1-1,1.6l-.3.3a14.6,14.6,0,0,1-4.2,4s-.1.1,0,.1a1.48,1.48,0,0,0,.7.1,5.58,5.58,0,0,0,3.1-.6,19.5,19.5,0,0,0,4-2.9Z" style="fill:#2a2828"/><path d="M92.7,144.4c.2,0,.1.1.1.2-.2.3-.5.6-.7.9a18.39,18.39,0,0,1-7,5,13,13,0,0,1-3.4.8c-.1,0-.1,0-.2.1a5,5,0,0,0-1.3-.4,2.46,2.46,0,0,0-1.2.1.1.1,0,0,0-.1-.1l-1.7-.8c-1.9-1-3.8-1.9-5.8-2.8-1.4-.6-2.9-1.1-4.4-1.6a.9.9,0,0,0-.5-.1,29.92,29.92,0,0,0-3.2-.8.75.75,0,0,0-.5-.1,3.74,3.74,0,0,0-.7-.6c0,.2-.1.3-.1.4h-.3v-.1c.3-.6-.1-.8-.5-1a21.66,21.66,0,0,1,2.5.4,45.34,45.34,0,0,1,12.5,4.4c.8.4,1.7.8,2.5,1.3a5,5,0,0,0,3.6.5,15.44,15.44,0,0,0,9.3-4.9l.8-.8c.1.1,0-.1.1-.1S92.6,144.4,92.7,144.4Z" style="fill:#969696"/><path d="M92.5,144.6h0C92.5,144.5,92.6,144.7,92.5,144.6Z" style="fill:#fbfbfb"/><path d="M89.2,143.2c.1-.1.1-.2.3-.3a6.53,6.53,0,0,1-1,1.5,17.27,17.27,0,0,1-2.6,2.8c-.1.1-.2.1-.2.3-.2,0-.5-.1-.7-.1v-.1A14.92,14.92,0,0,0,89.2,143.2Z" style="fill:#969696"/><path d="M86.3,159.5h0a.1.1,0,0,1-.1.1v-.1h.1Z" style="fill:#2b2a2a"/><path d="M86.1,160h0l-.5-.4-.6-.4-1.1-.7a13,13,0,0,0-2.6-1.4,1.7,1.7,0,0,0-.7-.1h0c-.1-.2-.3-.4-.1-.7s.4,0,.7.1a19.23,19.23,0,0,1,3.1,1.8c0,.2.2.3.3.4.5.5,1,.9,1.5,1.4Z" style="fill:#969696"/><path d="M86.1,159.4l-1.9-1.3a19.23,19.23,0,0,0-3.1-1.8c-.2-.1-.5-.3-.7-.1s0,.5.1.7h0a3.92,3.92,0,0,0,.8,1l1.3,1.3-.1.1L82,159h0l-.1-.1a16.82,16.82,0,0,0-3.9-1.6,3.72,3.72,0,0,0-1.8-.2c-.9.1-1,.4-.5,1.1a15.07,15.07,0,0,0,2.3,2.1.82.82,0,0,1,.5.5,5.36,5.36,0,0,0-1.1-.5h0a.1.1,0,0,0-.1-.1,3.19,3.19,0,0,0-1.4-.3c-.4,0-.5.2-.5.6a1.85,1.85,0,0,0,.2.7,11.25,11.25,0,0,0,1.2,2.1c.9,1.3,1.8,2.5,2.8,3.7l.2.3c-.2,0-.2-.1-.3-.2-1.2-1.3-2.5-2.6-3.8-3.8a12.39,12.39,0,0,0-2.2-1.8c-.2-.1-.5-.4-.7-.2a.62.62,0,0,0,.1.8,11.25,11.25,0,0,0,1.2,2.1c.1.2.3.4.4.6h-.1l-.1-.1-.6-.6a18.39,18.39,0,0,0-2.2-1.7,3.55,3.55,0,0,0-.9-.4c-.3-.1-.5.1-.5.4a2.35,2.35,0,0,0,.2.8,16,16,0,0,0,1.2,2.7c.8,1.7,1.8,3.3,2.7,4.9v.1h0v.1h0l-.1-.1a35.42,35.42,0,0,0-3.5-4.2,11.33,11.33,0,0,0-2.7-2.2,2.3,2.3,0,0,0-1.4-.4c-.6.1-.6.1-.4.6l.1.2c.6,1.4,1.2,2.8,1.7,4.2a15.82,15.82,0,0,1,.9,3.6,3.79,3.79,0,0,1,0,1.5c0,.2-.1.3-.2.5a14.89,14.89,0,0,0-1.4-5.5,6.77,6.77,0,0,0-1.8-2.6,3.78,3.78,0,0,0-2.7-1,.81.81,0,0,0-.9.7A3.21,3.21,0,0,0,62,168a17.18,17.18,0,0,0,1.1,2.9c.1.1.2.2.1.4-.2,0-.2-.2-.2-.3a30.13,30.13,0,0,0-2.2-2.8,7.49,7.49,0,0,0-2-1.5,1.18,1.18,0,0,0-.8-.1,3,3,0,0,1,.4.8,28.71,28.71,0,0,1,2.2,5.5,2.92,2.92,0,0,1,.2.9v.2a12.79,12.79,0,0,1,.1,3.4c0,.2-.1.3-.1.5a13.88,13.88,0,0,0-1.2-5.7,5.64,5.64,0,0,0-1.1-2,9.17,9.17,0,0,0-2.7-2.5h-.1v.1l.3.7.1.5a12.1,12.1,0,0,1-.5,4.2c-.3,1.1-.6,2.2-1,3.3v.1a6.94,6.94,0,0,0-.5,1.3c.1-.9.3-1.8.4-2.7a17.47,17.47,0,0,0,.2-5.1,2.66,2.66,0,0,0-.3-1.2,1.81,1.81,0,0,0-2-1.6.6.6,0,0,0-.4.1c-.8.2-.9.4-1,1.1a19.29,19.29,0,0,0,0,3.4,2.85,2.85,0,0,1,0,1.3,22.51,22.51,0,0,0-.9-3.5,4.88,4.88,0,0,1-.3-.7,3.13,3.13,0,0,0-.5-1c-.4-.6-.9-.9-1.5,0a57.44,57.44,0,0,0-4.3,6.6v.1c-.4.6-.8,1.3-1.2,1.9h-.1l.9-2.1a41,41,0,0,0,2-5.9v-.3a1.27,1.27,0,0,0,.1-.6c0-.3-.2-.3-.4-.2a3.39,3.39,0,0,0-.6.6,27.55,27.55,0,0,0-1.7,2.9l-.4.8c.1-.8.2-1.5.3-2.3a2.44,2.44,0,0,0,0-1.2c0-.7-.3-.9-1-.6a15.81,15.81,0,0,0-2.9,2.2h0l-.1.1c-.1.1-.2.1-.3.2a.1.1,0,0,0-.1.1l-.1.1-.1.1-.1.1-.1.1-.5.5a.52.52,0,0,1-.4.2l.5-.6a12.09,12.09,0,0,0,2-3c.1-.2.1-.3.2-.5s0-.3-.1-.5a2.49,2.49,0,0,0-2.6-1.1,6.52,6.52,0,0,0-3.4,2.2l-.1.1h0L32,169.2a13.44,13.44,0,0,0,1.2-2.4,3.55,3.55,0,0,0,.2-1c0-.6-.2-.9-.9-.9a1.88,1.88,0,0,0-.8.2,20.8,20.8,0,0,0-3.8,2.2h0v.1h0a10.54,10.54,0,0,0-1.1.7l-.3.2-.4.3-.2.1-.2.1v-.1h0l.2-.1a16.83,16.83,0,0,0,2.4-2.9c.2-.2.2-.4.3-.6a.53.53,0,0,0-.2-.7h-.1c-.2-.1-.3-.1-.5-.2a9.26,9.26,0,0,0-3.3-.3H20.3a17.41,17.41,0,0,1-6-.8H14l-.2-.1-.1-.1-.1-.1-.2-.1c-.1,0-.2-.1-.4-.2h-.1a.1.1,0,0,1-.1-.1h-.1l-.2-.1a1.47,1.47,0,0,1-.6-.5l1,.4a16.71,16.71,0,0,0,6.7.8c2.4-.1,4.8-.4,7.3-.4a20.24,20.24,0,0,1,5.5.7,74.55,74.55,0,0,0,11.4,2.4,42.65,42.65,0,0,0,10.1,0,41.92,41.92,0,0,0,9.9-2.3,25.27,25.27,0,0,0,10.6-7,17.85,17.85,0,0,0,2-2.6,8.64,8.64,0,0,0,1-1.6,1.65,1.65,0,0,1,1-1,2.46,2.46,0,0,1,1.2-.1,6.47,6.47,0,0,1,1.3.4,11.57,11.57,0,0,1,2.4,1.4,1.85,1.85,0,0,1-.7-.2,1.85,1.85,0,0,0-.7-.2,4,4,0,0,0-1.5-.3.37.37,0,0,0-.3.1c-.1.1,0,.2.1.3a2.09,2.09,0,0,0,.6.4,30.47,30.47,0,0,0,4,2.1c.1.1.2.1.3.2a11.27,11.27,0,0,0-1.8-.3h0c0-.1-.1-.1-.2-.1a5.9,5.9,0,0,0-1.4-.2c-.3,0-.6-.1-.8.2s.1.5.3.7a32.6,32.6,0,0,0,3.3,3.1A2.16,2.16,0,0,1,86.1,159.4Z" style="fill:#2a2828"/><path d="M85.1,155.4a4.35,4.35,0,0,1,.7.4l-1.7-.4a5.54,5.54,0,0,0-1.8-.2c-.2,0-.4,0-.5.2-.2-.2-.4-.4-.3-.7s.5-.2.8-.2a6.75,6.75,0,0,1,1.4.2c0,.1.1.1.2.1h0A3.37,3.37,0,0,0,85.1,155.4Z" style="fill:#969696"/><path d="M84.2,153.6H82.9l-.2-.1h-.1l-1.2-.3c-.1,0-.2-.1-.3,0-.2-.1-.4-.3-.6-.4s-.2-.2-.1-.3a.37.37,0,0,1,.3-.1,4,4,0,0,1,1.5.3c.2.3.6.4.9.6l.2.1.1.1.3.2.1.1.1.1.1.1h0Z" style="fill:#969696"/><path d="M83.8,154.8c-.1,0-.1,0-.2-.1S83.8,154.7,83.8,154.8Z" style="fill:#fbfbfb"/><path d="M83,160h0c-.8-.4-1.6-.8-2.5-1.2a11.91,11.91,0,0,0-3.2-1,2.08,2.08,0,0,0-1.1.1c-.2.1-.3.1-.4.3-.6-.7-.4-1,.5-1.1a5.54,5.54,0,0,1,1.8.2,21.38,21.38,0,0,1,3.9,1.6.1.1,0,0,0,.1.1h0l.3.3A4.35,4.35,0,0,1,83,160Z" style="fill:#969696"/><path d="M82.9,143.4c.1-.1.1-.2.2-.2a4.13,4.13,0,0,1-.7,1.1,20.89,20.89,0,0,1-2,2.2.9.9,0,0,1-.5-.1l.3-.3A17.24,17.24,0,0,0,82.9,143.4Z" style="fill:#969696"/><path d="M82,159c-.1,0-.1,0-.1-.1Z" style="fill:#fbfbfb"/><path d="M80.3,168.1h-.1V168h0v-.1h0c-1.7-1.6-3.3-3.3-5-4.8a4.44,4.44,0,0,0-1.1-.8.64.64,0,0,0-.6,0c-.2-.3-.3-.6-.1-.8s.5.1.7.2a19.17,19.17,0,0,1,2.2,1.8c1.3,1.2,2.6,2.5,3.8,3.8,0,.3.2.4.3.6h0l.2.2v.3C80.5,168.2,80.4,168.2,80.3,168.1Z" style="fill:#969696"/><path d="M80.1,167.4a.14.14,0,0,1,0,.2v-.2Z" style="fill:#2b2a2a"/><path d="M78.9,161.5h0c-.5-.1-1-.5-1.5-.6a2.92,2.92,0,0,0-.9-.2c-.5,0-.6.1-.8.5a1.45,1.45,0,0,1-.2-.7c0-.4.1-.5.5-.6a3.19,3.19,0,0,1,1.4.3.1.1,0,0,0,.1.1h0c0,.3.3.3.5.5s.7.4.9.7Z" style="fill:#969696"/><path d="M78.9,150.9a.1.1,0,0,0,.1.1,1.65,1.65,0,0,0-1,1,8.64,8.64,0,0,1-1,1.6,3.55,3.55,0,0,1,.2-1,8.1,8.1,0,0,0,0-2.2v-.3Z" style="fill:#fbfbfb"/><path d="M78.4,141.5c0,.1,0,.2-.1.2A.35.35,0,0,1,78.4,141.5Z" style="fill:#969696"/><path d="M78.2,141.8l.1-.1a2.59,2.59,0,0,1-.7,1.1,17.38,17.38,0,0,1-1.3,1.5h-.1v.1h0c-.1,0-.1,0-.1.1a1.27,1.27,0,0,1-.6.1.22.22,0,0,1,.2-.2C76.6,143.5,77.4,142.7,78.2,141.8Z" style="fill:#969696"/><path d="M77.6,160.3h0c-.1,0-.1,0-.1-.1S77.6,160.2,77.6,160.3Z" style="fill:#fbfbfb"/><path d="M77.2,150.4a8.1,8.1,0,0,1,0,2.2,3.55,3.55,0,0,0-.2,1,25.6,25.6,0,0,1-2,2.6,25.25,25.25,0,0,1-10.6,6.7,47.49,47.49,0,0,1-9.9,2.3,42.65,42.65,0,0,1-10.1,0A71.94,71.94,0,0,1,33,162.9c0-.1-.2-.1-.2-.2a25,25,0,0,1-3.5-2.1,7.6,7.6,0,0,1-3.1-4.7,6.1,6.1,0,0,1,.6-4,.76.76,0,0,0,.2-.4h0l.1-.1a.1.1,0,0,1,.1-.1c1.3-.8,2.6-1.6,3.9-2.3a30.9,30.9,0,0,1,3.2-1.4,13,13,0,0,0-.2,3.4,14,14,0,0,0,.8,3.4,14.5,14.5,0,0,0,5.7,7,19.49,19.49,0,0,0,5.1,2.3,11.48,11.48,0,0,0,3.7.6,21.63,21.63,0,0,0,4.4-.2,24.28,24.28,0,0,0,4.8-1.4,15.24,15.24,0,0,0,5.4-4,15.72,15.72,0,0,0,1.9-2.6,11.72,11.72,0,0,0,1.5-4.8,16,16,0,0,0-.1-3.8c-.1-.6-.3-1.2-.4-1.8a.9.9,0,0,1,.5.1,32.55,32.55,0,0,1,4.4,1.5,44.14,44.14,0,0,1,5.8,2.8C77.2,150.2,77.2,150.3,77.2,150.4Z" style="fill:#addff9"/><path d="M74.9,171.9h0a15.76,15.76,0,0,1-1.2-1.5,30.79,30.79,0,0,0-3.8-4.3,9.06,9.06,0,0,0-1.6-1.1,2.14,2.14,0,0,0-1.9-.3l-.1-.2c-.2-.5-.2-.6.4-.6a2.3,2.3,0,0,1,1.4.4,14.42,14.42,0,0,1,2.7,2.2,48.67,48.67,0,0,1,3.5,4.2l.1.1h0c0,.1,0,.2.1.2C75,171.4,74.7,171.7,74.9,171.9Z" style="fill:#969696"/><path d="M74.6,165c0,.1.2.2.2.3-.2,0-.2-.1-.3-.2a13.29,13.29,0,0,0-2.6-2.1l-.6-.3c-.4-.1-.6-.1-.8.4a1.88,1.88,0,0,1-.2-.8c0-.3.2-.4.5-.4a3.55,3.55,0,0,1,.9.4,18.39,18.39,0,0,1,2.2,1.7l.6.6c-.1.1,0,0,.1.1h.1v.1C74.4,164.9,74.6,164.9,74.6,165Z" style="fill:#969696"/><path d="M74.7,164.8v.1s-.1-.1,0-.1a.1.1,0,0,1-.1-.1h.1Z" style="fill:#2b2a2a"/><path d="M74.6,171.1h0c-.1.1-.2,0-.1-.1h.1Z" style="fill:#2b2a2a"/><path d="M74.4,164.6h0C74.5,164.7,74.3,164.7,74.4,164.6Z" style="fill:#fbfbfb"/><path d="M74.2,141.5c0,.1,0,.2-.1.2S74.1,141.5,74.2,141.5Z" style="fill:#969696"/><path d="M74,141.7c0,.1,0,.2-.1.2S73.9,141.7,74,141.7Z" style="fill:#969696"/><path d="M73.8,142h0a1.27,1.27,0,0,1-.4.7,19.23,19.23,0,0,1-1.3,1.7,2.65,2.65,0,0,0-.5.6c-.1-.1-.4,0-.2-.2A20.94,20.94,0,0,0,73.8,142Z" style="fill:#969696"/><path d="M72.2,144.4c.2.1.5.3.7.4a2,2,0,0,1-1.1.2A.72.72,0,0,1,72.2,144.4Z" style="fill:#acdef8"/><path d="M67.5,169.1a1,1,0,0,1-.4-.5,4.6,4.6,0,0,0-2.9-2.2c-.2,0-.4-.1-.6-.1-1-.1-1.5.4-1.4,1.4,0,.1.1.2,0,.3a3.21,3.21,0,0,1-.2-1.7.78.78,0,0,1,.9-.7,3.78,3.78,0,0,1,2.7,1A5.25,5.25,0,0,1,67.5,169.1Z" style="fill:#969696"/><path d="M67,147.5a12.12,12.12,0,0,1,.1,3.8,13.45,13.45,0,0,1-1.5,4.8,12.42,12.42,0,0,1-1.9,2.6,16.18,16.18,0,0,1-5.4,4,16.5,16.5,0,0,1-4.8,1.4,21.63,21.63,0,0,1-4.4.2,23.76,23.76,0,0,1-3.7-.6,19.49,19.49,0,0,1-5.1-2.3,14.5,14.5,0,0,1-5.7-7,13,13,0,0,1-.8-3.4,9.62,9.62,0,0,1,.2-3.4c1-.4,2.1-.8,3.1-1.1h.2c0,.1-.1.3-.1.4s-.1.2-.1.3a.1.1,0,0,1-.1.1,8.22,8.22,0,0,0-.1,3.5,13.21,13.21,0,0,0,5.8,9,7,7,0,0,0,2.1,1.1,12.2,12.2,0,0,0,1.7.7c.1,0,.2.1.3,0l.3.1c0,.1.1.1.1,0s.1,0,.1.1a.31.31,0,0,0,.2.1,18.1,18.1,0,0,0,2.3.3,13.31,13.31,0,0,0,4-.5,1.78,1.78,0,0,0,1-.4h0c.1,0,.1,0,.2-.1s.1,0,.1-.1h0c.1,0,.1,0,.2-.1a.35.35,0,0,1,.2-.1,12.79,12.79,0,0,0,3.7-2.3,11.31,11.31,0,0,0,2.3-2.6l.2-.3a2.19,2.19,0,0,0,.3-.5l.1-.1a12.86,12.86,0,0,0,1.6-5.7c.1-.1.1-.1.1-.2a6.25,6.25,0,0,0-.4-3l-.3-1.2a18.73,18.73,0,0,1,3.2.8A5.09,5.09,0,0,1,67,147.5Z" style="fill:#c9eafa"/><path d="M67.1,138.2h0v.1H67Z" style="fill:#2b2a2a"/><path d="M63.7,146.1a6.25,6.25,0,0,1,.4,3c0,.1,0,.2-.1.2v-.8a4.65,4.65,0,0,0-2-3.7v-.2c0-.1.1-.3.1-.4a4.35,4.35,0,0,1,.7.6A7.7,7.7,0,0,1,63.7,146.1Z" style="fill:#2a2828"/><path d="M64,148.6v.8a14.33,14.33,0,0,1-1.6,5.7l-.1.1a11.13,11.13,0,0,0-5.2-2.3v-.1l3.4-.8v-.1l-1.9-.1a6.55,6.55,0,0,0,1.5-1.8.55.55,0,0,1,.5-.3,1.32,1.32,0,0,0,1.3-1.3v-.2a2,2,0,0,0-.4-.8,9.48,9.48,0,0,0,.5-2.3v-.3A4.83,4.83,0,0,1,64,148.6Z" style="fill:#1574a0"/><path d="M63.9,171.9h0a10.63,10.63,0,0,1-.9-1.1,15.46,15.46,0,0,0-2.4-2.7,3.77,3.77,0,0,0-1.5-.9c-.2-.1-.3-.2-.5,0-.1-.3-.3-.5-.4-.8a1.06,1.06,0,0,1,.8.1,7.49,7.49,0,0,1,2,1.5,19.34,19.34,0,0,1,2.2,2.8c.1.1.1.2.2.3A1,1,0,0,1,63.9,171.9Z" style="fill:#969696"/><path d="M63.3,145a2.66,2.66,0,0,1,.3,1.2,5,5,0,0,0-.8-1.2A.45.45,0,0,1,63.3,145Z" style="fill:#fbfbfb"/><path d="M58.2,150.7h0l.1-.1h0l-.1.1h0c.1-.1,0-.1,0,0h0l-1.6,1.1.1.1c.3-.2.5-.3.8-.5l.2-.1.1-.1h0l.2-.1h0l.2-.1Zm3.8-6v.2c-.1.1,0,.2,0,.3a14.58,14.58,0,0,1-.7,1.9c-.1.2,0,.3.1.4h0a2,2,0,0,1,.4.8,1.2,1.2,0,0,1-1.2.9.52.52,0,0,0-.4.2,13.68,13.68,0,0,1-1.9,2.2c-.1.1-.2.1-.1.2h.3l1.9.1v.1l-3.4.8v.1a11.13,11.13,0,0,1,5.2,2.3,2.19,2.19,0,0,1-.3.5,8.34,8.34,0,0,1-1.2-.8,3.89,3.89,0,0,0-2.6-.6h-.3a5.7,5.7,0,0,0-1.3-.1h0l1.1,1.1c.6.6,1.2,1.1,1.7,1.7h0c-.1,0-.3-.1-.4-.1l-1.7-.6-1.5-.6h-.2v.1c.1.1.1.2.2.3l1.9,2.8v.1c-1-.8-2-1.5-3.1-2.3l-.4-.3v.2l1,3.6h0L53.3,157h-.1c-.1,1.4-.2,2.7-.3,4.1H53l-1.3-4.2-1.5,4h0l.4-4.2h-.1l-2.6,3.6v-.4l.8-3a1.85,1.85,0,0,0,.2-.7,14.17,14.17,0,0,0-2.9,4.3v.1h0v.1h0v.1l.1.1.3.3.6.5c-.1.1-.2,0-.3,0A8.65,8.65,0,0,1,45,161l-.5-.7-.1-.1h0c-.4-.7-.7-1.4-1.1-2.1-.1-.2-.2-.3-.4-.3a1.27,1.27,0,0,1-.6-.1h-.4l-.2-.1h-.1l-.1-.1-.2-.1h-.1l-.1-.1a1.23,1.23,0,0,1-.4-.8V156h0a2.36,2.36,0,0,1,.6-.9c.1-.1.3-.2.4-.4s.2-.1.2-.3a28.1,28.1,0,0,1-.1-2.9l.3-1.3a.61.61,0,0,0,0-.8,10,10,0,0,1-1.5-3.7h.1a10.91,10.91,0,0,0,1.9,3.3,15.92,15.92,0,0,1,1.3-2.2.52.52,0,0,0,.2-.4c-.1-.2-.1-.4-.2-.6a1.29,1.29,0,0,1,1.3-.9,1.37,1.37,0,0,0,1.2-.4c.1,0,.1-.1.2-.1H47a.64.64,0,0,1,.6,0,5.55,5.55,0,0,0-.8.6c-.5.3-.5.2-.2.7a1.7,1.7,0,0,1,0,1c-.1.1,0,.2.1.3l2.6,1.8c.1.1.2.2.3.1s0-.2,0-.3l-.9-3.1c0-.1-.2-.2-.1-.4.1.1.2.2.2.3.5.9,1,1.8,1.6,2.7,0,.1.1.3.2.2a.37.37,0,0,0,.1-.3v-3.6h0c.4,1.2.8,2.4,1.3,3.6l1.6-3.6h.1v4c.7-.8,1.3-1.6,1.9-2.4l.1-.2.1-.1a.1.1,0,0,1,.1-.1l.1-.1h0a.1.1,0,0,1,.1-.1.37.37,0,0,1-.1.3c-.3,1-.6,2.1-.9,3.1-.1.1-.1.2,0,.4l.7-.5c.9-.5,1.7-1.1,2.6-1.6h0l-.3.4c-.1.1-.2.3-.3.4L56,150.3h.1l2.9-1c.1,0,.2-.1.3-.2s.2-.2.1-.4l-.3-.9a1.3,1.3,0,0,1,1.2-.8c.2.1.4,0,.4-.2h0a15.55,15.55,0,0,0,.8-2.3Zm-13.3,5.1c.1-.1,0-.2-.1-.2-.7-.8-1.3-1.6-2-2.4-.1-.2-.2-.2-.3-.1a3.4,3.4,0,0,1-1,.1c-.2-.1-.3,0-.4.2a11.88,11.88,0,0,0-1.3,2.5c0,.1-.1.2,0,.3l.3.3a2.35,2.35,0,0,0,2.1.8,12.75,12.75,0,0,1,2-.1l-3.5-2.5c.2-.1.3,0,.4,0l3.5,1.2c.1,0,.3.1.3-.1Zm-.6,5.1H48L44.8,156c-.1,0-.2,0-.2.2a1.8,1.8,0,0,1-.6.9c-.1.1-.2.3-.1.4l.1.1a8,8,0,0,0,1.3,2.1c0-.1,0-.1.1-.2v-.1c0-.1,0-.1.1-.2s0-.1.1-.2.1-.2.1-.3l.1-.2c0-.1.1-.1.1-.2l.1-.2.1-.2h0v-.1h0v-.1h0l-.1.1-.3.2h0Zm-.4-.9c.1,0,.3-.1.3-.2l-1.2-.1h0l-3.4-.3,2-.4,1-.2a6.71,6.71,0,0,1-1.4-.9,2.67,2.67,0,0,0-1.4-.7h.3l-.5-.6c0,.2-.1.4-.1.6a8,8,0,0,0-.2,3.1.22.22,0,0,0,.2.2,1.72,1.72,0,0,1,1.3,1.3c0,.2.1.1.2.1Zm-.2-1.4c.1,0,.2,0,.2-.1s-.1-.1-.2-.1L46,152a4.73,4.73,0,0,0,1.2.7.37.37,0,0,1,.3-.1Z" style="fill:#fff"/><path d="M61.9,155.7l-.2.3a11.66,11.66,0,0,0-3.6-1.6,4,4,0,0,1,2.6.6A4.73,4.73,0,0,1,61.9,155.7Z" style="fill:#2b2a2a"/><path d="M61.8,148.3a1.34,1.34,0,0,1-1.1,1.5h-.2a.55.55,0,0,0-.5.3,14.28,14.28,0,0,1-1.5,1.8h-.4a.35.35,0,0,1,.1-.2,13,13,0,0,0,1.9-2.2.52.52,0,0,1,.4-.2C61.2,149.2,61.7,148.9,61.8,148.3Z" style="fill:#2a2828"/><path d="M61.9,145.2a15.54,15.54,0,0,1-.5,2.3.4.4,0,0,1-.2-.4h0A14.58,14.58,0,0,0,61.9,145.2Z" style="fill:#2a2828"/><path d="M61.7,144.6h0A16.82,16.82,0,0,1,61,147c0,.2-.2.3-.4.2a1.3,1.3,0,0,0-1.2.8,1.08,1.08,0,0,0,.2,1.3c0,.1-.1.2-.3.2l-2.9,1h-.1l1.8-2.4c.1-.1.2-.3.3-.4l.3-.4h0v-.1h0c-.9.5-1.7,1.1-2.6,1.6l-.7.5c-.1-.1-.1-.2,0-.4.3-1,.6-2.1.9-3.1,0-.1.1-.2.1-.3h0v-.1h0v.1h0a.1.1,0,0,0-.1.1h0l-.1.1a.1.1,0,0,1-.1.1l-.1.1-.1.2c-.6.8-1.2,1.6-1.9,2.4v-4h-.1l-1.6,3.6c-.4-1.3-.9-2.4-1.3-3.6h0v3.6c0,.1.1.3-.1.3s-.2-.1-.2-.2c-.5-.9-1.1-1.8-1.6-2.7-.1-.1-.1-.2-.2-.3-.1.2,0,.3.1.4l.9,3.1c0,.1.1.2,0,.3s-.2,0-.3-.1L47,147.1c-.1-.1-.2-.1-.1-.3a1.7,1.7,0,0,0,0-1,12.41,12.41,0,0,1,8.7-2.5l-.3-.1a23,23,0,0,1,3.7.2,7.07,7.07,0,0,1,2.5,1.1Z" style="fill:#1574a0"/><path d="M61.3,174.5a9.68,9.68,0,0,1,.1,3.8c0,.1-.1.2-.1.3v-1a.76.76,0,0,0-.1-.4,12.92,12.92,0,0,0-.1-3.4C61.3,174.1,61.2,174.3,61.3,174.5Z" style="fill:#969696"/><path d="M61,173.6c.1,0,.1.1,0,.1Z" style="fill:#969696"/><path d="M61.8,156a9.56,9.56,0,0,1-2.3,2.6,14.29,14.29,0,0,1-3.7,2.3c-.1,0-.1.1-.2.1s-.1,0-.2.1h0c-.1,0-.1,0-.2.1s-.1,0-.2.1h-.2a12.71,12.71,0,0,1-4.8.7,10.07,10.07,0,0,1-2.5-.3l-.1-.1h-.1l-.3-.1-.6-.5-.3-.3-.1-.1v-.1c.2-.5.5-1,.7-1.5a11.17,11.17,0,0,1,1.9-2.4l-.8,3v.4l2.6-3.6h.1l-.4,4.2h0l1.5-4,1.2,4.3h.1c.1-1.4.2-2.7.3-4.1h.1l1.8,3.2.1.1V160l-1-3.6v-.2l.4.3c1,.8,2,1.5,3.1,2.3h.1c.1,0,0-.1,0-.1l-2-2.8c-.1-.1-.1-.2-.2-.3h.1l1.5.6,1.7.6a.6.6,0,0,0,.4.1h.1l-.1-.1c-.5-.6-1.1-1.1-1.7-1.7L56.5,154a5.7,5.7,0,0,1,1.3.1h.3A21.46,21.46,0,0,1,61.8,156Zm-14,4.2Z" style="fill:#1574a0"/><path d="M59.9,172a2.09,2.09,0,0,1-.4-.6,10.24,10.24,0,0,0-3-3.2c-.1,0-.1-.1-.2-.1l-.3-.7h0a10.62,10.62,0,0,1,2.9,2.7A8.48,8.48,0,0,1,59.9,172Z" style="fill:#969696"/><path d="M59.6,148.8c.1.2.1.3-.1.4a1.26,1.26,0,0,1-.2-1.3A1.22,1.22,0,0,0,59.6,148.8Z" style="fill:#2a2828"/><path d="M58.5,147.3l-.3.4.3-.4Z" style="fill:#1574a0"/><path d="M58.2,150.5h0l-.1.1h0Z" style="fill:#1574a0"/><path d="M58.2,150.6h0l-.3.2h0l-.2.1h0l-.1.1-.2.1a2.18,2.18,0,0,1-.8.5l-.1-.1,1.7-.9Z" style="fill:#1574a0"/><path d="M56.6,170a13.36,13.36,0,0,1-.6,4,34.47,34.47,0,0,1-1.4,4.2c0,.1-.1.1-.1.2a8.33,8.33,0,0,0,.3-2.2c.1,0,.1-.1,0-.1.4-1.1.7-2.2,1-3.3a15.09,15.09,0,0,0,.5-4.2A1.74,1.74,0,0,1,56.6,170Z" style="fill:#969696"/><path d="M56.3,145.5h0C56.3,145.6,56.2,145.5,56.3,145.5Z" style="fill:#fbfbfb"/><path d="M56,145.8a.1.1,0,0,1-.1.1C56,145.9,56,145.9,56,145.8Z" style="fill:#fbfbfb"/><path d="M55.6,161c0,.1-.1.1-.2.1C55.5,161,55.5,161,55.6,161Z" style="fill:#fbfbfb"/><path d="M55.3,160.1s.1.1,0,.1v-.1Z" style="fill:#fbfbfb"/><path d="M55.4,161.1a.1.1,0,0,1-.1.1h0C55.3,161.1,55.3,161.1,55.4,161.1Z" style="fill:#fbfbfb"/><path d="M55.2,161.1h0c0,.1-.1.1-.2.1s.2-.1.2-.1Z" style="fill:#fbfbfb"/><path d="M54.9,176c.1.1.1.1,0,.1h0Z" style="fill:#fbfbfb"/><path d="M54.9,161.2H55a1.78,1.78,0,0,1-1,.4,13.31,13.31,0,0,1-4,.5,9.08,9.08,0,0,1-2.3-.3c-.1,0-.2,0-.2-.1l2.5.3A13.62,13.62,0,0,0,54.9,161.2Z" style="fill:#fbfbfb"/><path d="M54.7,168.4a1.85,1.85,0,0,0-1.2-.7,2.32,2.32,0,0,0-1.6.3.6.6,0,0,0-.3.6,15,15,0,0,0,0,3l.2,2.1c-.3-.2-.2-.6-.3-.9a2.85,2.85,0,0,0,0-1.3,19.29,19.29,0,0,1,0-3.4c.1-.8.2-.9,1-1.1a1.81,1.81,0,0,1,2.2,1.2Z" style="fill:#969696"/><path d="M52.4,140.7H53c-.1.1-.2.3-.4.2S52.4,140.9,52.4,140.7Z" style="fill:#acdef8"/><path d="M49.7,167.7a3.13,3.13,0,0,1,.5,1c-.2-.1-.3-.4-.5-.6a.65.65,0,0,0-1.1,0,15,15,0,0,0-1.8,2.4c-1.4,2.1-2.6,4.2-3.8,6.3,0,.1-.1.1-.2.2h0c.2-.6.5-1.2.7-1.9V175h0l.1-.2v-.2h0v-.1h0v-.1h0c.1,0,.1,0,0-.1a57.44,57.44,0,0,1,4.3-6.6C48.8,166.8,49.3,167.1,49.7,167.7Z" style="fill:#969696"/><path d="M49,143.4a4.87,4.87,0,0,1,1.2-.1,25.57,25.57,0,0,0-2.4,1.1.64.64,0,0,0-.6,0h-.4a6.63,6.63,0,0,1,1.9-.9Z" style="fill:#969696"/><path d="M49,143.4l-.3.1a6.63,6.63,0,0,0-1.9.9.35.35,0,0,0-.2.1,1.75,1.75,0,0,1-1.2.4,1.13,1.13,0,0,0-1.3.9.91.91,0,0,0,0,1,9.8,9.8,0,0,0-1.3,2.2,11.63,11.63,0,0,1-1.8-3.5c-.1-.3-.1-.5-.2-.8a40.41,40.41,0,0,1,5.9-1Z" style="fill:#1574a0"/><path d="M48.8,156a1.85,1.85,0,0,1-.2.7,8.76,8.76,0,0,0-1.9,2.4,10.09,10.09,0,0,0-.7,1.5h0v-.1h0v-.1A12.71,12.71,0,0,1,48.8,156Z" style="fill:#2a2828"/><path d="M48.7,149.6c0,.1.2.1.1.2a.19.19,0,0,1-.3,0L45,148.6c-.1,0-.2-.1-.4,0L48,151a12.75,12.75,0,0,0-2,.1,2,2,0,0,1-2.1-.8l-.3-.3a8.78,8.78,0,0,1,1.2-2.1.4.4,0,0,1,.4-.2,1.5,1.5,0,0,0,1.5-.6A24.33,24.33,0,0,0,48.7,149.6Z" style="fill:#1574a0"/><path d="M48,154.9h.2L45.7,158v.1h.1l.3-.2h0c0,.1-.1.1-.1.2l-.1.2c0,.1-.1.1-.1.2l-.1.2c0,.1-.1.2-.1.3s-.1.1-.1.2-.1.1-.1.2v.1c0,.1-.1.1-.1.2a8.17,8.17,0,0,1-1.2-2,1.82,1.82,0,0,0,.6-1.4c0-.1.1-.1.2-.2Z" style="fill:#1574a0"/><path d="M48,153.8c-.1.1-.2.2-.3.2l-.8-.3Z" style="fill:#2a2828"/><path d="M47.7,152.4c0,.1-.1.1-.2.1h-.4a7.46,7.46,0,0,1-1.2-.7l1.5.4C47.6,152.3,47.7,152.3,47.7,152.4Z" style="fill:#1574a0"/><path d="M46.8,153.7l.8.3-3,1.8c-.1.1-.2.1-.2-.1a2.1,2.1,0,0,0-1.3-1.3.22.22,0,0,1-.2-.2,10.8,10.8,0,0,1,.2-3.1,19.17,19.17,0,0,0,2.2,1.8l-2,.4,3.5.4Z" style="fill:#1574a0"/><path d="M47.3,161.6h.1C47.4,161.7,47.3,161.7,47.3,161.6Z" style="fill:#fbfbfb"/><path d="M46.3,147.1c.2-.1.3,0,.3.1a1.5,1.5,0,0,1-1.5.6c-.2,0-.3,0-.4.2a11.25,11.25,0,0,0-1.2,2.1.19.19,0,0,1,0-.3,19.65,19.65,0,0,1,1.3-2.5c.1-.2.2-.2.4-.2A2,2,0,0,0,46.3,147.1Z" style="fill:#2a2828"/><path d="M46.1,158l-.1.2C46,158.1,46,158.1,46.1,158Z" style="fill:#1574a0"/><path d="M46.4,152.9l-1,.2a12.39,12.39,0,0,1-2.2-1.8c0-.2.1-.4.1-.6l.5.6h-.3a3.69,3.69,0,0,1,1.4.7Z" style="fill:#2a2828"/><path d="M45.7,167.2a1.27,1.27,0,0,1-.1.6,2.85,2.85,0,0,0-1.1,1.3,24.37,24.37,0,0,0-1.4,2.8.22.22,0,0,1-.2.2c.1-.4.1-.8.2-1.1,0-.1.1-.2,0-.4a16.92,16.92,0,0,1,1.7-2.9,3.39,3.39,0,0,1,.6-.6C45.5,166.9,45.6,167,45.7,167.2Z" style="fill:#969696"/><path d="M44.4,160.1l.5.7a10.6,10.6,0,0,1-2.1-1.1,12.88,12.88,0,0,1-5.8-9,8.27,8.27,0,0,1,.1-3.5.1.1,0,0,1,.1-.1.37.37,0,0,0,.1-.3,10.47,10.47,0,0,1,.8-1.1,1.56,1.56,0,0,1,.8-.6l1.2-.3c.3-.1.4,0,.4.2v.1a9.44,9.44,0,0,0,1.3,4,4.05,4.05,0,0,1,.5.9l-.3,1.3a8.55,8.55,0,0,0-.1,3.2c-.1.2-.3.2-.4.4a1.46,1.46,0,0,0-.6.9h0a1.9,1.9,0,0,0,.5,1.9l.1.1.1.1.1.1h.1a.1.1,0,0,1,.1.1h.2a1.27,1.27,0,0,0,.6.1c.1,0,.3.1.3.2a7.1,7.1,0,0,0,1,1.4c0,.1.1.1.1.2h.1c-.1,0-.2.1-.1.2s.2-.1.3-.1Z" style="fill:#1574a0"/><path d="M44.6,156.2a1.82,1.82,0,0,1-.6,1.4c-.1-.1-.2-.3-.1-.4l.1-.1A3.49,3.49,0,0,0,44.6,156.2Z" style="fill:#1574a0"/><path d="M44.2,160l.1.1h-.1Z" style="fill:#2b2a2a"/><path d="M44.3,160h-.1a.35.35,0,0,1-.1-.2,7.1,7.1,0,0,1-1-1.4c0-.1-.2-.2-.3-.2a1.27,1.27,0,0,1-.6-.1h-.5a.1.1,0,0,1-.1-.1h-.1l-.1-.1-.1-.1-.1-.1a1.9,1.9,0,0,1-.5-1.9v.5a2,2,0,0,0,.4.8l.1.1h.1l.2.1.1.1h.1l.2.1h.2a1.27,1.27,0,0,0,.6.1c.2,0,.4.1.4.3Z" style="fill:#2a2828"/><path d="M44.2,146.4c.1.2-.1.2-.2.4a.91.91,0,0,1,0-1C44.1,146,44.1,146.2,44.2,146.4Z" style="fill:#1574a0"/><path d="M43.9,174.2c.1,0,0,.1,0,0Z" style="fill:#fbfbfb"/><path d="M42.9,167.9a1.4,1.4,0,0,0-.9.3,23.4,23.4,0,0,0-3.1,2.4c-.4.4-.8.7-1.2,1.1-.1.1-.1.2-.3.1l1.4-1.9h0l.1-.1h0v-.1h0c.1,0,0,0,0-.1a20.14,20.14,0,0,1,2.9-2.2C42.6,167,42.9,167.1,42.9,167.9Z" style="fill:#969696"/><path d="M42.2,149.2a.61.61,0,0,1,0,.8,4.05,4.05,0,0,1-.5-.9,11.07,11.07,0,0,1-1.3-4V145h.2c0,.1.1.3.1.4A9.78,9.78,0,0,0,42.2,149.2Z" style="fill:#2a2828"/><path d="M42,154.3c0,.2-.1.2-.2.3a8.62,8.62,0,0,1,.1-3.2A28.1,28.1,0,0,0,42,154.3Z" style="fill:#2a2828"/><path d="M41.3,157.7l.1.1Z" style="fill:#fbfbfb"/><path d="M40.7,144.7c.1.3.1.5.2.8h-.1c0-.1-.1-.3-.1-.4A.3.3,0,0,1,40.7,144.7Z" style="fill:#969696"/><path d="M39.7,166.5a.75.75,0,0,1,.1.5,3.59,3.59,0,0,0-1-.7,3.2,3.2,0,0,0-2.7.3,12.49,12.49,0,0,0-3,2.6l-.4.4h0c0-.1.1-.2.1-.3a4.05,4.05,0,0,0,.5-.9c.1-.3.3-.4.3-.7l.1-.1a6.94,6.94,0,0,1,3.4-2.2A2.43,2.43,0,0,1,39.7,166.5Z" style="fill:#969696"/><path d="M39,169.5Z" style="fill:#fbfbfb"/><path d="M37.5,145.6l.2-.1-.5,1H37c-1,.3-2.1.7-3.1,1.1s-2.1.9-3.2,1.4c-1.3.7-2.6,1.4-3.9,2.2l-.1.1-.1.1h0a15.05,15.05,0,0,0-1.7,1c-2.8,1.9-5.5,3.9-8.3,5.7-1.1.7-2.1,1.3-3.3,2-.1.1-.3.1-.5.2h0a1.58,1.58,0,0,1,.7-.7c.1-.1.2-.1.2-.3.1,0,.1,0,.1-.1,1.3-.7,2.6-1.5,3.8-2.3,2.4-1.6,4.8-3.3,7.1-5A52.46,52.46,0,0,1,37.5,145.6Z" style="fill:#969696"/><path d="M37.2,146.9a.37.37,0,0,1-.1.3c0-.1,0-.3.1-.3Z" style="fill:#2b2a2a"/><path d="M33,164.6c.6,0,.9.2.9.9a2.25,2.25,0,0,0-1.8.2,22.64,22.64,0,0,0-4.2,2.6l-.6.4-.6.4h0c.3-.5.9-.9,1.2-1.4l.1-.1h0l.2-.2h0v-.2h0c.1,0,0,0,0-.1a18.65,18.65,0,0,1,3.9-2.2A4.65,4.65,0,0,1,33,164.6Z" style="fill:#969696"/><path d="M32.8,169.3a.37.37,0,0,0-.1.3h0C32.7,169.5,32.8,169.4,32.8,169.3Z" style="fill:#969696"/><path d="M32.7,169.6h0c0,.1-.1.1-.2.1h.1Z" style="fill:#969696"/><path d="M28.8,164a.45.45,0,0,1,.3.6v.1a11.27,11.27,0,0,0-3.2-.5H20.1a14.81,14.81,0,0,1-5.1-.9,7.19,7.19,0,0,1-2.1-1.2h0c.5.1.9.3,1.3.4a.6.6,0,0,0,.4.1h.1c.1.1.1.1.2,0a17.41,17.41,0,0,0,6,.8h4.2a18.41,18.41,0,0,1,3.3.3C28.4,163.9,28.6,163.9,28.8,164Z" style="fill:#969696"/><path d="M28.3,167h0c-.1.1,0,.1,0,0Z" style="fill:#fbfbfb"/><path d="M27.2,168.7l-.6.4h0Z" style="fill:#fbfbfb"/><path d="M26.1,168.6H26S26.1,168.5,26.1,168.6Z" style="fill:#2b2a2a"/><path d="M14.6,162.7h.2C14.7,162.8,14.6,162.8,14.6,162.7Z" style="fill:#fbfbfb"/><path d="M13.9,159.2h0c.1.1,0,.1-.1.1h0c.1,0,.1,0,.1-.1Z" style="fill:#fbfbfb"/><path d="M13.5,159.3h0a.1.1,0,0,1-.1.1Z" style="fill:#2b2a2a"/><g style="opacity:0.019999999552965164;isolation:isolate"><rect x="1.8" y="214.2" width="97.7" height="97.7" style="fill:#fff"/><path d="M100.1,312.5H1.3V213.8H100v98.7Zm-97.8-1H99V214.8H2.3Z" style="fill:#4d4d4d"/></g><path d="M301.8,165.8c-.2.3-.2.6-.4.9a8,8,0,0,1-2,2.1,13,13,0,0,1-5.7,2.3,21.74,21.74,0,0,1-3.6.2c-.2,0-.2.1-.2.2a19.27,19.27,0,0,0-.1,2.4,30.11,30.11,0,0,1-1.2,7.3,8.94,8.94,0,0,1-6.7,6.2,13.32,13.32,0,0,1-3.4.5,6.25,6.25,0,0,1-5.6-3.7,14.89,14.89,0,0,1-1.4-5.5c-.2-1.9-.2-3.8-.3-5.6a5.64,5.64,0,0,1-1.2.4,10.55,10.55,0,0,1-5,.1,8.25,8.25,0,0,1-2.6-1,3.45,3.45,0,0,1-.9-.8.19.19,0,0,0-.3,0,4.42,4.42,0,0,1-2.4,1.1,5.09,5.09,0,0,1-3.4-.6,8.09,8.09,0,0,1-2.7-2.5,24.16,24.16,0,0,1-2.7-5,55.57,55.57,0,0,1-2.9-9c-.6-2.4-1.2-4.9-1.6-7.4a22.93,22.93,0,0,1-.1-7.4,14,14,0,0,1,2.2-6,11.73,11.73,0,0,1,6.5-4.4,17.05,17.05,0,0,1,5.5-.4,33.85,33.85,0,0,1,7.7,1.5.3.3,0,0,0,.4,0,14.12,14.12,0,0,1,4.9-1.6,26.59,26.59,0,0,1,6.3.2h.4a23.51,23.51,0,0,1,5.3-.9h2.6c0,.1.1,0,.1,0a9.86,9.86,0,0,1,2.4.3,16.56,16.56,0,0,1,10,5.6,7.89,7.89,0,0,1,1.4,2.3,10.48,10.48,0,0,1,.5,3.9,28.4,28.4,0,0,1-1.1,7.1,54.69,54.69,0,0,1-5.9,14.1c0,.1-.1.1-.1.3a8.33,8.33,0,0,0,2.2-.3,9.86,9.86,0,0,1,2.4-.3,3.34,3.34,0,0,1,2.4,1.4,6.89,6.89,0,0,1,.3.8Zm-13,3.4a5,5,0,0,0,1.2.2,20.48,20.48,0,0,0,3.5-.1,11,11,0,0,0,5.2-2.2,5.71,5.71,0,0,0,1.3-1.4,1.19,1.19,0,0,0-.4-1.7,1.42,1.42,0,0,0-.6-.2,6.15,6.15,0,0,0-1.4.1,15,15,0,0,1-3.7.4,4.06,4.06,0,0,1-1.9-.4c-.2-.1-.2-.1-.1-.3.8-1.2,1.5-2.4,2.2-3.6a50.85,50.85,0,0,0,5.6-16,16.11,16.11,0,0,0,.1-4.9,5.38,5.38,0,0,0-.9-2.5,14.86,14.86,0,0,0-9.5-5.6,19,19,0,0,0-5.3-.2,21.12,21.12,0,0,0-5,1h-.2a18.81,18.81,0,0,0-3.3-.5,12,12,0,0,0-7.6,1.9.19.19,0,0,1-.3,0,41,41,0,0,0-5-1.4,21.1,21.1,0,0,0-7.1-.2,9.79,9.79,0,0,0-4.1,1.6,9,9,0,0,0-3.8,5.3,19.3,19.3,0,0,0-.5,8.6,61.89,61.89,0,0,0,1.3,6.2,77.93,77.93,0,0,0,2.8,9.4,27.25,27.25,0,0,0,2.7,5.4,8.83,8.83,0,0,0,2.1,2.2,3.45,3.45,0,0,0,4.1,0,8,8,0,0,0,1.3-1.3c1.4-1.7,2.8-3.3,4.3-4.9a.37.37,0,0,1,.3-.1h0a7.4,7.4,0,0,0,2.9.8h.1a.31.31,0,0,1-.1.2c-.3.4-.6.7-.9,1.1a2.29,2.29,0,0,1-1,.7l-2.2.6a6.19,6.19,0,0,0-1.9.7,1.42,1.42,0,0,0-.4,1.9c0,.1.1.1.1.2a5.5,5.5,0,0,0,.9.7,8.36,8.36,0,0,0,3.1.8,7.74,7.74,0,0,0,4.7-1c.4-.3.9-.6,1.3-.9v.4a73.13,73.13,0,0,0,.4,9.4,9.07,9.07,0,0,0,1.3,3.8,5.5,5.5,0,0,0,4.8,2.7,10.84,10.84,0,0,0,5-1.2,5.71,5.71,0,0,0,2.6-2.5,10.64,10.64,0,0,0,.9-2.5c.3-1.3.4-2.6.6-3.8.2-1.6.4-3.1.6-4.7a8.31,8.31,0,0,1-.1-2.2Z"/><path d="M288.9,169.2c-.1.7-.1,1.4-.2,2-.2,1.6-.4,3.1-.6,4.7-.2,1.3-.3,2.6-.6,3.8a10.64,10.64,0,0,1-.9,2.5,5.71,5.71,0,0,1-2.6,2.5,10.84,10.84,0,0,1-5,1.2,5.5,5.5,0,0,1-4.8-2.7,8.21,8.21,0,0,1-1.3-3.8c-.3-3.1-.4-6.3-.4-9.4v-.4a6,6,0,0,1-1.3.9,7.74,7.74,0,0,1-4.7,1,6.81,6.81,0,0,1-3.1-.8,3.11,3.11,0,0,1-.9-.7,1.39,1.39,0,0,1,0-1.9c.1-.1.1-.1.2-.1a4.38,4.38,0,0,1,1.9-.7,7.94,7.94,0,0,0,2.2-.6,2.29,2.29,0,0,0,1-.7c.3-.4.6-.7.9-1.1a.35.35,0,0,0,.1-.2c0-.1-.1,0-.1,0a7.4,7.4,0,0,1-2.9-.8c-.1-.1-.2,0-.3,0h0c-1.5,1.6-2.9,3.2-4.3,4.9a8,8,0,0,1-1.3,1.3,3.45,3.45,0,0,1-4.1,0,11,11,0,0,1-2.1-2.2,27.25,27.25,0,0,1-2.7-5.4,63.25,63.25,0,0,1-2.8-9.4c-.5-2.1-.9-4.1-1.3-6.2a19.22,19.22,0,0,1,.5-8.6,9.73,9.73,0,0,1,3.8-5.3,13,13,0,0,1,4.1-1.6,18.8,18.8,0,0,1,7.1.2,28.51,28.51,0,0,1,5,1.4.19.19,0,0,0,.3,0,12.71,12.71,0,0,1,7.6-1.9,18.81,18.81,0,0,1,3.3.5h.2a21.12,21.12,0,0,1,5-1,18.72,18.72,0,0,1,5.3.2,14.86,14.86,0,0,1,9.5,5.6,4.47,4.47,0,0,1,.9,2.5,16.11,16.11,0,0,1-.1,4.9,48.47,48.47,0,0,1-5.6,16c-.7,1.2-1.4,2.5-2.2,3.6-.1.2-.1.2.1.3a4.06,4.06,0,0,0,1.9.4,15.53,15.53,0,0,0,3.7-.4,3.44,3.44,0,0,1,1.4-.1,1.24,1.24,0,0,1,1.2,1.3,1.42,1.42,0,0,1-.2.6,5.71,5.71,0,0,1-1.3,1.4,11,11,0,0,1-5.2,2.2,13.55,13.55,0,0,1-3.5.1C289.7,169.4,289.3,169.3,288.9,169.2Zm-18.2-5.5a3.14,3.14,0,0,1,2.1.5,3.65,3.65,0,0,1,1.5,2.9v2.4a81.86,81.86,0,0,0,.3,9.9,7.5,7.5,0,0,0,.9,3,3.89,3.89,0,0,0,3.4,2.1,8.66,8.66,0,0,0,3.2-.6,5.08,5.08,0,0,0,3.7-3.9c.2-1.1.4-2.1.5-3.2.2-1.5.4-3.1.6-4.6.2-1.3.3-2.6.5-4,.1-.7,0-1.4.1-2.1a3.1,3.1,0,0,1,1.9-2.5l.5-.2a.78.78,0,0,0-.4-.4,12.54,12.54,0,0,1-1.6-2.4c-.4-.9-.9-1.8-1.4-2.7a38.75,38.75,0,0,1-2.5-5.5,10,10,0,0,1-.6-4.2,4,4,0,0,1,2.3-3.4,6.71,6.71,0,0,1,2.8-.6,7.57,7.57,0,0,1,1.5.1c.2,0,.2,0,.1-.2l-.1-.2a19.4,19.4,0,0,0-2.2-4,15.58,15.58,0,0,0-5.9-5.2,15.16,15.16,0,0,0-9.1-1.6,9.12,9.12,0,0,0-5,2.2,12.46,12.46,0,0,0-3,4.2,19.52,19.52,0,0,0-1.4,5.4c0,.4-.1.8-.1,1.2l1.2-.6a10.36,10.36,0,0,1,4.3-.9,4.07,4.07,0,0,1,2.4.8,4.11,4.11,0,0,1,1.7,2.7,31.09,31.09,0,0,1,.6,4.4,16.91,16.91,0,0,1-.6,5.5,28.8,28.8,0,0,1-1.3,3.1,10,10,0,0,0-.9,2.6Zm-4.5-29.2c-.8-.2-1.5-.5-2.2-.6a21.54,21.54,0,0,0-8-.6,10.74,10.74,0,0,0-3.9,1.4,8,8,0,0,0-3.2,4.5,16.69,16.69,0,0,0-.4,7.7,64.06,64.06,0,0,0,1.6,7.6,57.77,57.77,0,0,0,2.9,8.9,22.15,22.15,0,0,0,2.3,4.3,5.23,5.23,0,0,0,1.7,1.6,1.53,1.53,0,0,0,1.6,0,3.92,3.92,0,0,0,1-.8c1.4-1.7,2.9-3.4,4.4-5,.1-.1.1-.1,0-.2a6.84,6.84,0,0,1-1.7-2.1,7.52,7.52,0,0,1-1-5.1,38.66,38.66,0,0,0,.3-4.8c0-1.1-.1-2.1-.1-3.2a24.89,24.89,0,0,1,.8-6.1,16.44,16.44,0,0,1,2.6-5.7,17.21,17.21,0,0,1,1.3-1.8Zm15.5-1.7.1.1a17.64,17.64,0,0,1,5.6,4.1,18.87,18.87,0,0,1,4.2,6.9,3.53,3.53,0,0,1,.3,1.4,17.22,17.22,0,0,1-.4,3.9,12.92,12.92,0,0,0-.1,3.4c.1,1.3.3,2.6.4,3.9a9.5,9.5,0,0,1-1.2,5.2l-.1.1c-.1.2.1.3.2.4s.1-.1.2-.1l.6-.9a49.57,49.57,0,0,0,6.5-17.4,15.4,15.4,0,0,0,.1-4.3,3.51,3.51,0,0,0-.6-1.8,10.45,10.45,0,0,0-2.1-2.1,14.49,14.49,0,0,0-8.5-3.1,17,17,0,0,0-3.9.2,2.88,2.88,0,0,0-1.3.1Zm-9.8,21a21,21,0,0,0-.7-5.6,2.35,2.35,0,0,0-2.3-1.9,10.07,10.07,0,0,0-2.5.3,15.11,15.11,0,0,0-2.9,1.3c-.2.1-.3.3-.2.4a3.4,3.4,0,0,0,.1,1,34.52,34.52,0,0,1-.2,6.4,6.55,6.55,0,0,0,1.1,4.9,5.41,5.41,0,0,0,4.6,2.6c.1,0,.2,0,.3-.2a23.49,23.49,0,0,1,1.4-3.7,14.33,14.33,0,0,0,1.3-5.5Zm17.7,6.5a7.27,7.27,0,0,0,.7-2.9c0-1.2-.1-2.4-.2-3.6a16.32,16.32,0,0,1,.1-5.4c.1-.7.2-1.5.3-2.2,0-.1,0-.2-.2-.2a12.19,12.19,0,0,0-2.7,0,2.92,2.92,0,0,0-.9.2,2.46,2.46,0,0,0-1.8,2.4,9,9,0,0,0,.4,2.8,31.65,31.65,0,0,0,2.2,5c.7,1.3,1.4,2.5,2,3.8-.1.1,0,.1.1.1Zm-25.6,9a1.61,1.61,0,0,0,.7.4,7.77,7.77,0,0,0,3,.4,5.65,5.65,0,0,0,4.6-2.6,1.42,1.42,0,0,0,.2-.6,1.51,1.51,0,0,0-.7-1.4c-.6-.5-1-.4-1.4,0l-.2.2-1.1,1.3a3.27,3.27,0,0,1-1.5,1.1,15.46,15.46,0,0,1-2.3.7,6.94,6.94,0,0,1-1.3.5Zm34-3.9h-.1a26.29,26.29,0,0,1-3.9.6,5.25,5.25,0,0,1-2.8-.6,1.07,1.07,0,0,0-1.1-.1l-.1.1a1.09,1.09,0,0,0-.8.8,4.48,4.48,0,0,0-.1,1.1c0,.1.1.3.2.3a5,5,0,0,0,1.2.2,13.25,13.25,0,0,0,4.4-.5,6.4,6.4,0,0,0,3.1-1.9Z" style="fill:#fdfdfd"/><path d="M270.7,163.6a11.42,11.42,0,0,1,.9-2.6c.4-1,.9-2,1.3-3.1a14.57,14.57,0,0,0,.6-5.5,33.21,33.21,0,0,0-.6-4.4,4.36,4.36,0,0,0-1.7-2.7,4.31,4.31,0,0,0-2.4-.8,10.36,10.36,0,0,0-4.3.9l-1.2.6c0-.4.1-.8.1-1.2a20.47,20.47,0,0,1,1.4-5.4,11.55,11.55,0,0,1,3-4.2,9.12,9.12,0,0,1,5-2.2,15.94,15.94,0,0,1,9.1,1.6,15.58,15.58,0,0,1,5.9,5.2,19.4,19.4,0,0,1,2.2,4,.35.35,0,0,0,.1.2s0,.2-.1.2a7.57,7.57,0,0,0-1.5-.1,6.71,6.71,0,0,0-2.8.6,3.69,3.69,0,0,0-2.3,3.4,10,10,0,0,0,.6,4.2,34.25,34.25,0,0,0,2.5,5.5c.5.9,1,1.8,1.4,2.7a10,10,0,0,0,1.6,2.4c.1.1.2.3.4.4l-.5.2a2.92,2.92,0,0,0-1.9,2.5c-.1.7,0,1.4-.1,2.1-.2,1.3-.3,2.6-.5,4s-.4,3.1-.6,4.6c-.1,1.1-.3,2.1-.5,3.2a5.08,5.08,0,0,1-3.7,3.9,11.34,11.34,0,0,1-3.2.6,3.89,3.89,0,0,1-3.4-2.1,7.5,7.5,0,0,1-.9-3,81.86,81.86,0,0,1-.3-9.9V167a3.51,3.51,0,0,0-1.5-2.9,3.64,3.64,0,0,0-2.1-.5Z" style="fill:#28537e"/><path d="M266.2,134.5A15.76,15.76,0,0,0,265,136a17.33,17.33,0,0,0-2.6,5.7,24.89,24.89,0,0,0-.8,6.1c0,1.1.1,2.1.1,3.2a38.66,38.66,0,0,1-.3,4.8,9,9,0,0,0,1,5.1,6.84,6.84,0,0,0,1.7,2.1c.1.1.1.1,0,.2-1.5,1.6-3,3.3-4.4,5a3.92,3.92,0,0,1-1,.8,1.53,1.53,0,0,1-1.6,0,5.17,5.17,0,0,1-1.7-1.6,22.15,22.15,0,0,1-2.3-4.3,71.09,71.09,0,0,1-2.9-8.9,64.06,64.06,0,0,1-1.6-7.6,18.16,18.16,0,0,1,.4-7.7,8,8,0,0,1,3.2-4.5,10.74,10.74,0,0,1,3.9-1.4,21.54,21.54,0,0,1,8,.6A18.94,18.94,0,0,0,266.2,134.5Z" style="fill:#28537e"/><path d="M281.7,132.8a5.85,5.85,0,0,1,1.3-.2,17,17,0,0,1,3.9-.2,14.49,14.49,0,0,1,8.5,3.1,13.89,13.89,0,0,1,2.1,2.1,3,3,0,0,1,.6,1.8,15.5,15.5,0,0,1-.1,4.3,48.85,48.85,0,0,1-6.5,17.4l-.6.9c0,.1-.1.2-.2.1s-.3-.2-.2-.4l.1-.1a9.5,9.5,0,0,0,1.2-5.2c0-1.3-.3-2.6-.4-3.9a19.33,19.33,0,0,1,.1-3.4,25.79,25.79,0,0,0,.4-3.9,3.19,3.19,0,0,0-.3-1.4,20.33,20.33,0,0,0-4.2-6.9,18.83,18.83,0,0,0-5.6-4.1Z" style="fill:#28537e"/><path d="M271.9,153.8a11.92,11.92,0,0,1-1.4,5.6,23.49,23.49,0,0,0-1.4,3.7c0,.2-.1.2-.3.2a5.91,5.91,0,0,1-4.6-2.6,6.55,6.55,0,0,1-1.1-4.9,34,34,0,0,0,.2-6.4,3.4,3.4,0,0,0-.1-1c0-.2.1-.4.2-.4a10.76,10.76,0,0,1,2.9-1.3,5.39,5.39,0,0,1,2.5-.3,2.35,2.35,0,0,1,2.3,1.9A19.76,19.76,0,0,1,271.9,153.8Zm-3.2-6.7h-.4a.37.37,0,0,0-.3.1.57.57,0,0,0-.4.7c0,.1,0,.1.1.2a2,2,0,0,0,.8.8,1.51,1.51,0,0,0,1.9-.4.52.52,0,0,0,0-.8c0-.1-.1-.1-.2-.1s-.2-.1-.3-.2a2.66,2.66,0,0,0-1.2-.3Z" style="fill:#28537e"/><path d="M289.6,160.4c-.1,0-.1-.1-.1-.2-.6-1.3-1.3-2.6-2-3.8a31.65,31.65,0,0,1-2.2-5,8.63,8.63,0,0,1-.4-2.8,2.46,2.46,0,0,1,1.8-2.4,2.92,2.92,0,0,1,.9-.2,12.19,12.19,0,0,1,2.7,0,.22.22,0,0,1,.2.2,7.8,7.8,0,0,1-.3,2.2,19.54,19.54,0,0,0-.1,5.4,14.52,14.52,0,0,1,.2,3.6A9.42,9.42,0,0,1,289.6,160.4Zm-2.3-12a1.64,1.64,0,0,0,1.5-1,.48.48,0,0,0-.2-.6h-.1a2.2,2.2,0,0,0-.8-.1,2.3,2.3,0,0,0-1.4.4c-.2.1-.4.4-.3.6a.22.22,0,0,0,.2.2A1.61,1.61,0,0,0,287.3,148.4Z" style="fill:#28537e"/><path d="M264,169.4a7.37,7.37,0,0,1,1.4-.4,10.1,10.1,0,0,0,2.3-.7,4.18,4.18,0,0,0,1.5-1.1l1.1-1.3.2-.2c.4-.5.8-.5,1.4,0a1.91,1.91,0,0,1,.7,1.4,1.42,1.42,0,0,1-.2.6,6.25,6.25,0,0,1-4.6,2.6,7.77,7.77,0,0,1-3-.4A5.58,5.58,0,0,1,264,169.4Z" style="fill:#28537e"/><path d="M298,165.5a6.83,6.83,0,0,1-3.2,1.8,13,13,0,0,1-4.4.5,5,5,0,0,1-1.2-.2c-.1,0-.2-.2-.2-.3a3.75,3.75,0,0,1,.1-1.1,1.09,1.09,0,0,1,.8-.8l.1-.1a1.07,1.07,0,0,1,1.1.1,5.55,5.55,0,0,0,2.8.7,17.22,17.22,0,0,0,3.9-.4Z" style="fill:#28537e"/><path d="M268.7,147.1a5,5,0,0,1,1.2.2c.1.1.2.1.3.2a.52.52,0,0,1,.2.8c0,.1-.1.1-.1.2a1.44,1.44,0,0,1-1.9.4,2,2,0,0,1-.8-.8.61.61,0,0,1,.1-.8c.1,0,.1-.1.2-.1s.2-.1.3-.1Z" style="fill:#fdfdfd"/><path d="M287.3,148.4a1.39,1.39,0,0,1-1-.5.49.49,0,0,1-.1-.7l.2-.2a3.26,3.26,0,0,1,1.4-.4,2.2,2.2,0,0,1,.8.1.55.55,0,0,1,.3.5v.1A1.94,1.94,0,0,1,287.3,148.4Z" style="fill:#fdfdfd"/><path d="M194.5,260.5a.52.52,0,0,0-.2-.4c-.9-1.8-1.9-3.5-2.8-5.3a.62.62,0,0,1,.1-.8c1.5-1.7,2.9-3.4,4.4-5.2.1-.1.3-.2.3-.4h0a14.62,14.62,0,0,0-2,.5l-4.8,1.3a.45.45,0,0,1-.6-.3c-1-1.7-2-3.4-3-5a1.76,1.76,0,0,0-.4-.5,3.55,3.55,0,0,0-.2,1c-.4,2-.7,4-1.1,6-.1.3-.2.3-.4.4l-4.8,1.5-1.7.5a.76.76,0,0,0-.4.2l5.5,2.2-.3.3c-1,.7-2,1.3-3.1,2a.62.62,0,0,1-.7.1l-3.9-1.8a4.89,4.89,0,0,1-1.8-1.4,2.15,2.15,0,0,1,.2-2.9c.1-.1.2-.1.3-.2a8.49,8.49,0,0,1,2.2-.9c1.9-.6,3.9-1.2,5.8-1.8a.63.63,0,0,0,.5-.6c.4-2.2.8-4.4,1.2-6.5.1-.3.1-.6.3-.8a3,3,0,0,1,1.9-1.9h.7a3.51,3.51,0,0,1,1.9,1.7.35.35,0,0,1,.1.2c.9,1.4,1.7,2.8,2.6,4.2.6,1,.3,1,1.6.6l.2-.1,6.7-1.8a2,2,0,0,1,2.6,1v.9a6.15,6.15,0,0,1-1.2,1.9c-1.6,1.9-3.2,3.7-4.8,5.6a.61.61,0,0,0-.1.8c1,1.9,2,3.7,2.9,5.5a2.62,2.62,0,0,1,.4,2.1,2.43,2.43,0,0,1-2.7,1.9,10.27,10.27,0,0,1-2.5-.7c-1.1-.3-2.1-.6-3.2-1a.46.46,0,0,1-.4-.5c-.2-1-.3-2-.5-3,0-.3,0-.3.2-.2l4.7,1.3c.1,0,.2.1.3,0v.3Z" style="fill:#d74417"/><path d="M122.2,272.6c1.1-.6,2.2-1.1,3.3-1.7.2-.1.3-.1.4.1a3.88,3.88,0,0,0,.6,1.1,2.39,2.39,0,0,0,3.1,1,6.73,6.73,0,0,0,1.1-.7,1.85,1.85,0,0,0,.3-2.5,9.34,9.34,0,0,0-1.6-1.8c-.9-1-1.8-1.9-2.6-2.9a4.71,4.71,0,0,1-.3-6.1,6.5,6.5,0,0,1,6.5-3,4.35,4.35,0,0,1,3.1,1.8l.9,1.2a.19.19,0,0,1,0,.3c-1,.7-2,1.5-3,2.2-.2.1-.2,0-.3-.1a3.48,3.48,0,0,0-1.1-1.3,2.26,2.26,0,0,0-2.9,0,1.28,1.28,0,0,0-.3,1.8l.1.1a32.83,32.83,0,0,0,3.1,3.4,12,12,0,0,1,1.1,1.2,5.3,5.3,0,0,1,.7,5.9,7.33,7.33,0,0,1-8.7,4,4.74,4.74,0,0,1-3-2.7,11.22,11.22,0,0,0-.5-1.3Z" style="fill:#fff"/><path d="M163.8,271.8a15,15,0,0,0-.2,2c0,.6-.2,1.3-.2,1.9a.52.52,0,0,1-.2.4,7.42,7.42,0,0,1-6.5,0,6.09,6.09,0,0,1-3.5-5.5,9,9,0,0,1,7.5-9,6.75,6.75,0,0,1,5.3,1.1,6.55,6.55,0,0,1,2.7,6.2l-.9,7.2c0,.2-.1.4-.4.3h-2.6c-.3,0-.3,0-.3-.3l.6-4.2a15.26,15.26,0,0,0,.3-3,5.45,5.45,0,0,0-.5-2.2,2.94,2.94,0,0,0-2.7-1.8,5,5,0,0,0-5.4,4.5v.6a3.72,3.72,0,0,0,3.9,3.6h.1a5.3,5.3,0,0,0,3.3-1.5Z" style="fill:#fff"/><path d="M183.4,256.7l-1.1,8.6h.1l6-6.6c.1.8.3,1.5.4,2.2.1.3.1.6.2,1a.48.48,0,0,1-.2.6c-1.2,1.3-2.5,2.6-3.7,3.9-.2.2-.2.3-.1.5,2.2,3,4.3,6.1,6.5,9.1l.2.2a.31.31,0,0,1-.2.1h-3.7a.75.75,0,0,1-.7-.4l-4.8-7.2-.3-.4c-.1.7-.2,1.3-.3,1.9l-.8,5.7c0,.3-.1.3-.4.3h-3c-.2,0-.3,0-.3-.3.4-2.8.7-5.5,1.1-8.3.3-2.6.7-5.2,1-7.7a1.27,1.27,0,0,1,.1-.6.76.76,0,0,1,.2-.4l3.8-2.2Z" style="fill:#fff"/><path d="M170.7,276.4h-1.5c-.1,0-.2,0-.2-.2.3-2,.5-4.1.8-6.1.2-1.5.4-3,.6-4.6a4.58,4.58,0,0,1,4.3-3.7h2.4c.2,0,.3.1.2.3-.1,1-.3,1.9-.4,2.9,0,.2-.1.2-.3.2h-1.7a1.32,1.32,0,0,0-1.4,1.2l-.9,7.1-.3,2.7a.27.27,0,0,1-.3.3A4.89,4.89,0,0,0,170.7,276.4Z" style="fill:#fff"/><path d="M161.8,256.1h1.6c.2,0,.1-.1.2-.2a5,5,0,0,0,.2-1.2c0-.2.1-.2.3-.2.6,0,.6,0,.5.6-.2,1-.4,2.1-.6,3.2,0,.3-.1.3-.4.3-.5,0-.5,0-.4-.5.1-.3.1-.6.2-.9,0-.1,0-.2-.2-.2h-1.4c-.2,0-.2.1-.2.2-.1.4-.1.8-.2,1.1a.27.27,0,0,1-.3.3c-.6,0-.6,0-.5-.6.2-1.1.4-2.1.6-3.2,0-.2.1-.3.4-.3.6,0,.6,0,.5.5S161.9,255.8,161.8,256.1Z" style="fill:#fff"/><path d="M167.7,258.6h-.9c-.1,0-.2,0-.2-.2l.6-3.6c0-.2.1-.2.3-.2h1.8c.2,0,.2,0,.2.2-.1.6-.1.6-.7.6h-.6c-.2,0-.3,0-.3.2-.1.6-.1.6.5.6h.2c.6,0,.6,0,.5.6,0,.2-.1.2-.3.2H168c-.3,0-.3.1-.3.3-.1.6-.1.6.4.6h.3c.6,0,.6,0,.5.6,0,.2-.1.2-.3.2Z" style="fill:#fff"/><path d="M158.7,255.6a1.14,1.14,0,0,0-.8-.3,1.45,1.45,0,0,0-1.4,1.5v.3a1,1,0,0,0,1.2.7c.1,0,.1,0,.2-.1a.76.76,0,0,0,.4-.2c0,.3-.1.5-.1.8s-.1.2-.2.2a1.72,1.72,0,0,1-2.3-.9,1.38,1.38,0,0,1-.1-1.1,2.37,2.37,0,0,1,2.7-2c.5.1.6.1.5.6C158.8,255.3,158.7,255.4,158.7,255.6Z" style="fill:#fff"/><path d="M194.9,276a7.6,7.6,0,0,0,.4-1.1c.1-.2.2-.2.4-.2s.1.2.1.3v1.2c0,.1,0,.2-.1.2s-.1-.1-.1-.2a4.1,4.1,0,0,0-.1-1.1l-.4,1.1c0,.1,0,.2-.2.2s-.1-.1-.2-.2a5.36,5.36,0,0,0-.5-1.1v1.1c0,.1,0,.2-.1.2s-.1-.1-.1-.2v-1.3c0-.1,0-.2.1-.2a.6.6,0,0,1,.4.1C194.6,275.2,194.8,275.5,194.9,276Z" style="fill:#fff"/><path d="M193.1,275.7v.6c0,.2-.1.1-.2.1a.1.1,0,0,1-.1-.1v-1c0-.3,0-.4-.3-.3-.1,0-.2.1-.2-.1s.1-.1.2-.1h.9c.1,0,.2,0,.2.1s-.1.1-.2.1c-.3,0-.4.1-.3.4Z" style="fill:#fff"/><path d="M151.7,267.4a6.15,6.15,0,0,0-2.4-4.5,6.79,6.79,0,0,0-6-1.2,9.32,9.32,0,0,0-6.9,6.9c-.2,1.4-.4,2.9-.6,4.3-.3,2.6-.7,5.2-1,7.8,0,.1-.1.2.1.3h3c.2,0,.2-.2.2-.3.1-.7.2-1.5.3-2.2.1-1,.3-2,.4-3a.37.37,0,0,1,.3.1,7.05,7.05,0,0,0,5.1,1.1C148.4,276.1,152.2,271.9,151.7,267.4Zm-3.4,1.7a5,5,0,0,1-4.4,4.3,3.87,3.87,0,0,1-4.3-3.1,3.81,3.81,0,0,1,.1-1.5,5,5,0,0,1,4.9-4,3.71,3.71,0,0,1,3.8,3.7A1.27,1.27,0,0,1,148.3,269.1Z" style="fill:#fff"/><path d="M143.6,258.3l-.6-3.6c0-.2-.1-.2-.3-.2h-.4a.71.71,0,0,0-.6.3l-1.8,3.3c-.2.5-.2.5.3.5s.5,0,.6-.1c.2-.7.7-.8,1.3-.7h.2c.2,0,.3,0,.3.2.1.6.1.6.7.6Q143.75,258.6,143.6,258.3Zm-1.3-1.4c-.2,0-.5.1-.6-.1s.1-.3.2-.5a5.74,5.74,0,0,1,.4-.7c.1.4.1.8.2,1.1S142.5,256.9,142.3,256.9Z" style="fill:#fff"/><path d="M153.8,258.4l-.6-3.3c-.1-.6-.1-.6-.7-.6-.2,0-.3,0-.4.2-.6,1.2-1.3,2.4-1.9,3.6,0,.1-.1.1-.1.2h.2a.83.83,0,0,0,1-.5v-.1c0-.2.2-.3.3-.2h.9c.2,0,.3.1.3.2.1.6.1.6.7.6h.1C153.8,258.6,153.8,258.5,153.8,258.4Zm-1.4-1.5c-.6,0-.6,0-.4-.5a5.74,5.74,0,0,1,.4-.7c.1.4.1.7.2,1s0,.2-.2.2Z" style="fill:#fff"/><path d="M148.9,255.3a1.09,1.09,0,0,0-.8-.8h-1.3c-.2,0-.3,0-.3.3-.1.5-.2,1-.3,1.6a17.66,17.66,0,0,1-.4,2c0,.2,0,.3.2.3.6,0,.6,0,.7-.6v-.2a1.7,1.7,0,0,1,.1-.7c.1-.2.4,0,.6-.1h.2a1.46,1.46,0,0,0,1.3-1.6Zm-.9.5a.55.55,0,0,1-.3.5h-.3c-.3,0-.4-.1-.3-.4v-.2c0-.1,0-.4.1-.4a.64.64,0,0,1,.6,0c.2.1.2.3.2.5Z" style="fill:#fff"/><polygon points="42.3 240.4 42.3 287 36.5 287 36.5 240.4 42.3 240.4" style="fill:#fdc209"/><polygon points="54 240.4 54 287 48.1 287 48.1 240.4 54 240.4" style="fill:#fdc209"/><polygon points="65.6 240.4 65.6 287 59.8 287 59.8 240.4 65.6 240.4" style="fill:#fdc209"/><path d="M30.6,240.4v40.8H24.8V240.4Z" style="fill:#fdc209"/><path d="M24.8,281.2h5.8V287H24.8Z" style="fill:#fa0007"/><path d="M71.4,263.7v-3.9c0-.3.1-.5.4-.5h5c.3,0,.4.1.4.4v7.9c0,.4-.1.4-.4.4h-5c-.3,0-.4-.1-.4-.4Z" style="fill:#fdc209"/><g style="opacity:0.019999999552965164;isolation:isolate"><rect x="0.5" y="0.5" width="97.7" height="97.7" style="fill:#fff"/><path d="M98.7,98.7H0V0H98.7ZM1,97.7H97.7V1H1Z" style="fill:#4d4d4d"/></g><g style="opacity:0.019999999552965164;isolation:isolate"><rect x="111.7" y="0.5" width="97.7" height="97.7" style="fill:#fff"/><path d="M210,98.7H111.3V0H210Zm-97.8-1H209V1H112.3V97.7Z" style="fill:#4d4d4d"/></g><g style="opacity:0.019999999552965164;isolation:isolate"><rect x="113.3" y="107.4" width="97.7" height="97.7" style="fill:#fff"/><path d="M211.5,205.6H112.8V106.9h98.7Zm-97.7-1h96.7V107.9H113.8Z" style="fill:#4d4d4d"/></g><path d="M322.8,98.7H224V0h98.7V98.7Zm-97.8-1h96.7V1H225Z" style="fill:#4d4d4d"/><path d="M322.8,205.6H224V106.9h98.7v98.7Zm-97.8-1h96.7V107.9H225Z" style="fill:#4d4d4d"/><path d="M210.6,313.1H111.9V214.4h98.7Zm-97.8-1h96.7V215.4H112.8Z" style="fill:#4d4d4d"/><path d="M322.8,313.1H224V214.4h98.7v98.7Zm-97.8-1h96.7V215.4H225Z" style="fill:#4d4d4d"/><path d="M100.3,205.6H1.6V106.9h98.7Zm-97.7-1H99.3V107.9H2.6Z" style="fill:#4d4d4d"/><path d="M100.1,312.5H1.3V213.8H100v98.7Zm-97.8-1H99V214.8H2.3Z" style="fill:#4d4d4d"/><path d="M100.3,98.7H1.6V0h98.7Zm-97.7-1H99.3V1H2.6Z" style="fill:#4d4d4d"/><path d="M211.5,98.7H112.8V0h98.7Zm-97.7-1h96.7V1H113.8Z" style="fill:#4d4d4d"/><path d="M211.5,205.6H112.8V106.9h98.7Zm-97.7-1h96.7V107.9H113.8Z" style="fill:#4d4d4d"/><path d="M76.6,44.8H60.2a1.54,1.54,0,0,1-1.5-1.5v-17A2.26,2.26,0,0,0,56.4,24H50.6a2.26,2.26,0,0,0-2.3,2.3V43.2a1.58,1.58,0,0,1-1.6,1.6H41.3a1.58,1.58,0,0,1-1.6-1.6v-17a2.33,2.33,0,0,0-2.3-2.3H31.6a2.26,2.26,0,0,0-2.3,2.3h0V74a2,2,0,0,0,2,2H76.4a2,2,0,0,0,2-2V46.8a1.79,1.79,0,0,0-1.8-2ZM68.9,62.7a2.69,2.69,0,0,1-2.7,2.7H61.6A2.61,2.61,0,0,1,59,62.7V58.1a2.69,2.69,0,0,1,2.7-2.7h4.6A2.69,2.69,0,0,1,69,58.1l-.1,4.6Z" style="fill:#fb4f08"/><path d="M135.9,41.5a1.15,1.15,0,0,1,.7-1.3,20.65,20.65,0,0,1,3.4-1.5c6.6-2.6,13.1-5.1,19.7-7.6a11.16,11.16,0,0,1,5.1-1.1,16.6,16.6,0,0,1,4.2,1.2L188.9,39a4.25,4.25,0,0,1,1.7,1,.62.62,0,0,1,.2.7,4.74,4.74,0,0,1-2.1,1.6c-3,1.5-6,2.7-9.1,4-4.3,1.9-8.8,3.7-13,5.8a9.18,9.18,0,0,1-3.2,1,6.71,6.71,0,0,1-3.7-.8c-3.9-1.8-7.9-3.3-11.8-5-3.3-1.4-6.6-2.7-9.9-4.2-.6-.3-1.1-.6-1.6-.9A1.79,1.79,0,0,1,135.9,41.5Z" style="fill:#ca1619"/><path d="M190.8,59.1v5.1a2,2,0,0,1-.8,1.2,14.09,14.09,0,0,1-3.2,1.7l-18,7.9a39.21,39.21,0,0,1-3.6,1.6,6.4,6.4,0,0,1-4.9-.1c-7.3-3.2-14.7-6.1-22-9.3l-.3-.1c-1.6-.6-2.6-1.5-2.3-3.5.1-1.2.1-2.4.1-3.6a.37.37,0,0,1,.3.1,14.22,14.22,0,0,0,4.4,2.3c5.6,2.4,11.2,4.7,16.8,7a25.57,25.57,0,0,1,2.4,1.1,6.62,6.62,0,0,0,6.4,0c5.4-2.6,10.9-4.9,16.4-7.3,2.2-1,4.4-1.8,6.5-3a6.42,6.42,0,0,0,1.3-1C190.4,59.2,190.5,58.9,190.8,59.1Z" style="fill:#8f0f0f"/><path d="M190.8,50v5.1c0,.5-.4.8-.7,1.1-.5.4-1,.7-1.6,1.1a10.08,10.08,0,0,1-2.3,1.2c-5.5,2.5-11.1,4.8-16.6,7.2-1.2.5-2.3,1.1-3.5,1.7a7.42,7.42,0,0,1-6.5,0c-3.4-1.6-7-3-10.4-4.5S142,60,138.5,58.4c-.2-.1-.5-.2-.6-.5l-.4-.2a2.41,2.41,0,0,1-1.7-2.7c.1-1.3.1-2.7.1-4a.37.37,0,0,1,.3.1,12.78,12.78,0,0,0,3.8,2.1c5.3,2.3,10.6,4.5,15.9,6.7,1.4.6,2.8,1.2,4.1,1.8a6.59,6.59,0,0,0,6.1-.2c4.2-2.1,8.6-3.9,12.9-5.8,3-1.3,6-2.5,8.9-3.9a6.34,6.34,0,0,0,2.3-1.6C190.5,50.1,190.6,49.9,190.8,50Z" style="fill:#8f0f0f"/><path d="M135.9,41.5a7,7,0,0,0,1.7,1.3c2.6,1.2,5.3,2.3,8,3.4,3.4,1.5,6.9,2.9,10.4,4.3,1.5.6,3,1.3,4.5,2a6.39,6.39,0,0,0,5.4-.2c2-.9,4-1.9,6.1-2.8s4.4-1.9,6.6-2.9l6.9-3c1.4-.6,2.8-1.3,4.1-2a4.12,4.12,0,0,0,1.3-1v5c0,.5-.4.8-.7,1.1a8.17,8.17,0,0,1-2,1.2,1.47,1.47,0,0,1-.6.5c-4.1,1.9-8.3,3.6-12.5,5.5-2.8,1.2-5.7,2.4-8.4,3.8a7.87,7.87,0,0,1-3.7,1,7.75,7.75,0,0,1-3-.7c-3.4-1.5-6.8-2.9-10.2-4.3-3.6-1.5-7.2-3-10.8-4.6a1,1,0,0,1-.5-.4c-.1,0-.1-.1-.2-.1-2.3-1.1-2.3-1.1-2.3-3.5C135.9,43.9,135.9,42.7,135.9,41.5Z" style="fill:#8f0f0f"/><path d="M138.3,48.7c2.4,1,4.9,2.1,7.3,3.1,3.2,1.4,6.5,2.7,9.7,4.1,1.6.7,3.1,1.3,4.6,2a7,7,0,0,0,6.3-.2c4.2-2.1,8.6-3.9,12.9-5.8,3-1.3,5.9-2.6,8.9-3.9.6.3,1.2.5,1.8.8a1.44,1.44,0,0,1,.9,1.2c-1.8,1.9-4.4,2.6-6.7,3.6s-4.9,2.2-7.4,3.2-4.7,2-7,3c-1.4.6-2.8,1.3-4.2,2a6.38,6.38,0,0,1-5.4-.1c-3-1.4-6.1-2.6-9.2-3.9-3.9-1.6-7.8-3.3-11.7-4.9a9.84,9.84,0,0,1-3.4-2,1.29,1.29,0,0,1,.6-1.3A7.48,7.48,0,0,0,138.3,48.7Z" style="fill:#ca1619"/><path d="M137.9,57.9c1.7.8,3.5,1.5,5.2,2.3,3.2,1.4,6.5,2.7,9.7,4,2.5,1,4.9,2.1,7.4,3.2a6.36,6.36,0,0,0,5.7-.2c4.8-2.3,9.7-4.4,14.6-6.5,2.5-1.1,5-2.2,7.6-3.4l.4-.1a4.18,4.18,0,0,1,2.1,1.3.44.44,0,0,1,.1.5,6.91,6.91,0,0,1-2.2,1.6c-1.4.7-2.8,1.3-4.2,1.9l-6.5,2.8-6.9,3c-1.5.7-3.1,1.4-4.6,2.1a8.49,8.49,0,0,1-3.8.9,5.42,5.42,0,0,1-2.5-.6c-3.8-1.7-7.6-3.2-11.4-4.8-3.6-1.5-7.3-3-10.9-4.7a6.41,6.41,0,0,1-1.9-1.3,1.21,1.21,0,0,1,.7-1.3A6.11,6.11,0,0,0,137.9,57.9Z" style="fill:#ca1619"/><path d="M152,38.4a13.62,13.62,0,0,1,4.9.8,5.39,5.39,0,0,1,1.3.7,1.3,1.3,0,0,1,.4,1.8.78.78,0,0,1-.4.4,3.61,3.61,0,0,1-1.5.8,14.35,14.35,0,0,1-9.8-.2,4.05,4.05,0,0,1-.9-.5,1.32,1.32,0,0,1-.6-1.8.9.9,0,0,1,.6-.6,5,5,0,0,1,2.1-.9A10,10,0,0,1,152,38.4Z" style="fill:#fdfdfd"/><polygon points="155.6 45.7 168.1 43.5 164.4 49.3 155.6 45.7" style="fill:#fdfdfd"/><path d="M167.7,33.2l-1.1,2,3.6,1.8c-1.2.1-4.6.2-4.6.2l-1,2.9-1.9-3-5.2-.3s2.7-1.1,4-1.5L160.3,33l3.8,1.5Z" style="fill:#fdfdfd"/><path d="M176.1,43.5a1.54,1.54,0,0,1-1.6.1c-2.1-.9-6.5-2.6-6.7-2.8l7.8-3.1a.9.9,0,0,1,.5-.1,1,1,0,0,1,.2.7v4.4C176.3,43.1,176.3,43.3,176.1,43.5Z" style="fill:#991112"/><path d="M176.1,43.5V37.6c2.4,1,7.5,2.9,7.5,2.9Z" style="fill:#650003"/><path d="M151.8,131.5c10.5-6.6,26.4-3.8,34.1,5.8.8,1,.9,1.6-.1,2.5a11.61,11.61,0,0,1-7.8,3.4c-5.7.1-11.5,0-17.2,0a86.36,86.36,0,0,0-9-11A.48.48,0,0,1,151.8,131.5Z" style="fill:#e9b116"/><path d="M161.2,167c6.3,0,12.6-.6,18.8.4,2.7.4,5.8,1.7,6.4,4.1.5,1.9-2.4,3.5-4.2,4.9a26.88,26.88,0,0,1-30.5,2.4c3.5-2.6,5.8-6,8-9.6A7.12,7.12,0,0,1,161.2,167Z" style="fill:#35b19e"/><path d="M161.8,162.7c-7.2.1-14.4.1-21.6.2a1.4,1.4,0,0,1-1.6-1.3,27.68,27.68,0,0,1,0-12.8c.2-1,.6-1.3,1.6-1.3,7.2.1,14.4.1,21.7.1a3.25,3.25,0,0,1,1,1.8,28.33,28.33,0,0,1,0,11.6A6.19,6.19,0,0,1,161.8,162.7Z" style="fill:#1a1718"/><path d="M161.8,162.7a29.72,29.72,0,0,0,0-15.1c4.2,0,8.3-.1,12.5-.1a7.59,7.59,0,0,1,.7,15.1A116.26,116.26,0,0,1,161.8,162.7Z" style="fill:#1491d4"/><path d="M161.2,167a31.05,31.05,0,0,1-7.6,11,2.28,2.28,0,0,1-1.9.7c-5-2.6-8.4-6.6-11.2-11.7Z" style="fill:#128a7c"/><path d="M151.8,131.5a31.29,31.29,0,0,1,6.2,6.9,46.74,46.74,0,0,1,2.7,4.9H140.6A24.69,24.69,0,0,1,151.8,131.5Z" style="fill:#ca9120"/><circle cx="87.8" cy="12.8" r="5.9" style="fill:#5f00ff"/><path d="M87.1,16.1a.76.76,0,0,1-.4-.2l-2.1-2.4a.49.49,0,1,1,.7-.7l1.7,2,3-4.4a.5.5,0,1,1,.8.6l-3.4,4.9c.1.1-.1.2-.3.2Z" style="fill:#fff"/><circle cx="199.5" cy="12.8" r="5.9" style="fill:#5f00ff"/><path d="M198.9,16.1a.76.76,0,0,1-.4-.2l-2.1-2.4a.49.49,0,0,1,.7-.7l1.7,2,3-4.4a.5.5,0,0,1,.8.6l-3.4,4.9c0,.1-.1.2-.3.2Z" style="fill:#fff"/><circle cx="309.4" cy="12.8" r="5.9" style="fill:#5f00ff"/><path d="M308.8,16.1a.76.76,0,0,1-.4-.2l-2.1-2.4a.49.49,0,1,1,.7-.7l1.7,2,3-4.3a.5.5,0,0,1,.8.6L309.1,16a.44.44,0,0,1-.3.1Z" style="fill:#fff"/><circle cx="87.2" cy="226.5" r="5.9" style="fill:#5f00ff"/><path d="M86.5,229.9a.76.76,0,0,1-.4-.2L84,227.2a.49.49,0,1,1,.7-.7l1.7,2,3-4.4a.5.5,0,1,1,.8.6l-3.4,4.9c.1.2-.1.3-.3.3Z" style="fill:#fff"/><circle cx="87.8" cy="119.8" r="5.9" style="fill:#5f00ff"/><path d="M87.1,123.2a.76.76,0,0,1-.4-.2l-2.1-2.4a.49.49,0,1,1,.7-.7l1.7,2,3-4.4a.5.5,0,0,1,.8.6L87.4,123c.1.1-.1.2-.3.2Z" style="fill:#fff"/><circle cx="199.5" cy="119.8" r="5.9" style="fill:#5f00ff"/><path d="M198.9,123.2a.76.76,0,0,1-.4-.2l-2.1-2.4a.49.49,0,0,1,.7-.7l1.7,2,3-4.4a.5.5,0,1,1,.8.6l-3.4,4.9c0,.1-.1.2-.3.2Z" style="fill:#fff"/><circle cx="197.6" cy="227.3" r="5.9" style="fill:#efc700"/><path d="M201.3,228.2h-3.7a.47.47,0,0,1-.5-.5v-4.5a.5.5,0,0,1,1,0v4h3.2a.5.5,0,0,1,0,1Z" style="fill:#fff"/><circle cx="309.4" cy="119.8" r="5.9" style="fill:#efc700"/><path d="M313.1,120.7h-3.7a.47.47,0,0,1-.5-.5v-4.5a.5.5,0,1,1,1,0v4h3.2a.5.5,0,0,1,0,1Z" style="fill:#fff"/><circle cx="256.6" cy="261.5" r="5.2" style="fill:#212121;stroke:gray;stroke-miterlimit:10"/><circle cx="272.5" cy="261.5" r="5.2" style="fill:#212121;stroke:gray;stroke-miterlimit:10"/><circle cx="288.3" cy="261.5" r="5.2" style="fill:#212121;stroke:gray;stroke-miterlimit:10"/></g></g></svg>