<?xml version="1.0" encoding="utf-8"?>
<!-- Generator: Adobe Illustrator 24.3.0, SVG Export Plug-In . SVG Version: 6.00 Build 0)  -->
<svg version="1.1" id="Capa_1" xmlns="http://www.w3.org/2000/svg" xmlns:xlink="http://www.w3.org/1999/xlink" x="0px" y="0px"
	 viewBox="0 0 1107.1 412.7" style="enable-background:new 0 0 1107.1 412.7;" xml:space="preserve">
<style type="text/css">
	.st0{fill:#F4F4F4;}
</style>
<g>
	<rect x="-0.4" class="st0" width="0.8" height="412.7"/>
</g>
<g>
	<rect x="19.2" class="st0" width="0.8" height="412.7"/>
</g>
<g>
	<rect x="39" class="st0" width="0.8" height="412.7"/>
</g>
<g>
	<rect x="58.7" class="st0" width="0.8" height="412.7"/>
</g>
<g>
	<rect x="78.5" class="st0" width="0.8" height="412.7"/>
</g>
<g>
	<rect x="98.3" class="st0" width="0.8" height="412.7"/>
</g>
<g>
	<rect x="118.1" class="st0" width="0.8" height="412.7"/>
</g>
<g>
	<rect x="137.8" class="st0" width="0.8" height="412.7"/>
</g>
<g>
	<rect x="157.6" class="st0" width="0.8" height="412.7"/>
</g>
<g>
	<rect x="177.4" class="st0" width="0.8" height="412.7"/>
</g>
<g>
	<rect x="2.3" y="-0.4" class="st0" width="1104.8" height="0.8"/>
</g>
<g>
	<rect x="2.3" y="19.3" class="st0" width="1104.8" height="0.8"/>
</g>
<g>
	<rect x="2.3" y="38.9" class="st0" width="1104.8" height="0.8"/>
</g>
<g>
	<rect x="2.3" y="58.6" class="st0" width="1104.8" height="0.8"/>
</g>
<g>
	<rect x="2.3" y="78.2" class="st0" width="1104.8" height="0.8"/>
</g>
<g>
	<rect x="2.3" y="97.9" class="st0" width="1104.8" height="0.8"/>
</g>
<g>
	<rect x="2.3" y="117.5" class="st0" width="1104.8" height="0.8"/>
</g>
<g>
	<rect x="2.3" y="137.2" class="st0" width="1104.8" height="0.8"/>
</g>
<g>
	<rect x="2.3" y="156.8" class="st0" width="1104.8" height="0.8"/>
</g>
<g>
	<rect x="2.3" y="176.5" class="st0" width="1104.8" height="0.8"/>
</g>
<g>
	<rect x="2.3" y="196.1" class="st0" width="1104.8" height="0.8"/>
</g>
<g>
	<rect x="2.3" y="215.8" class="st0" width="1104.8" height="0.8"/>
</g>
<g>
	<rect x="2.3" y="235.4" class="st0" width="1104.8" height="0.8"/>
</g>
<g>
	<rect x="2.3" y="255.1" class="st0" width="1104.8" height="0.8"/>
</g>
<g>
	<rect x="2.3" y="274.7" class="st0" width="1104.8" height="0.8"/>
</g>
<g>
	<rect x="2.3" y="294.4" class="st0" width="1104.8" height="0.8"/>
</g>
<g>
	<rect x="2.3" y="314" class="st0" width="1104.8" height="0.8"/>
</g>
<g>
	<rect x="2.3" y="333.7" class="st0" width="1104.8" height="0.8"/>
</g>
<g>
	<rect x="2.3" y="353.3" class="st0" width="1104.8" height="0.8"/>
</g>
<g>
	<rect x="2.3" y="373" class="st0" width="1104.8" height="0.8"/>
</g>
<g>
	<rect x="2.3" y="392.6" class="st0" width="1104.8" height="0.8"/>
</g>
<g>
	<rect x="2.3" y="412.3" class="st0" width="1104.8" height="0.8"/>
</g>
<g>
	<rect x="197.1" class="st0" width="0.8" height="412.7"/>
</g>
<g>
	<rect x="216.9" class="st0" width="0.8" height="412.7"/>
</g>
<g>
	<rect x="236.7" class="st0" width="0.8" height="412.7"/>
</g>
<g>
	<rect x="256.5" class="st0" width="0.8" height="412.7"/>
</g>
<g>
	<rect x="276.2" class="st0" width="0.8" height="412.7"/>
</g>
<g>
	<rect x="296" class="st0" width="0.8" height="412.7"/>
</g>
<g>
	<rect x="315.8" class="st0" width="0.8" height="412.7"/>
</g>
<g>
	<rect x="335.6" class="st0" width="0.8" height="412.7"/>
</g>
<g>
	<rect x="355.3" class="st0" width="0.8" height="412.7"/>
</g>
<g>
	<rect x="375.1" class="st0" width="0.8" height="412.7"/>
</g>
<g>
	<rect x="394.9" class="st0" width="0.8" height="412.7"/>
</g>
<g>
	<rect x="414.7" class="st0" width="0.8" height="412.7"/>
</g>
<g>
	<rect x="434.4" class="st0" width="0.8" height="412.7"/>
</g>
<g>
	<rect x="454.2" class="st0" width="0.8" height="412.7"/>
</g>
<g>
	<rect x="474" class="st0" width="0.8" height="412.7"/>
</g>
<g>
	<rect x="493.7" class="st0" width="0.8" height="412.7"/>
</g>
<g>
	<rect x="513.5" class="st0" width="0.8" height="412.7"/>
</g>
<g>
	<rect x="533.3" class="st0" width="0.8" height="412.7"/>
</g>
<g>
	<rect x="553.1" class="st0" width="0.8" height="412.7"/>
</g>
<g>
	<rect x="572.8" class="st0" width="0.8" height="412.7"/>
</g>
<g>
	<rect x="592.6" class="st0" width="0.8" height="412.7"/>
</g>
<g>
	<rect x="612.4" class="st0" width="0.8" height="412.7"/>
</g>
<g>
	<rect x="632.2" class="st0" width="0.8" height="412.7"/>
</g>
<g>
	<rect x="651.9" class="st0" width="0.8" height="412.7"/>
</g>
<g>
	<rect x="671.7" class="st0" width="0.8" height="412.7"/>
</g>
<g>
	<rect x="691.5" class="st0" width="0.8" height="412.7"/>
</g>
<g>
	<rect x="711.3" class="st0" width="0.8" height="412.7"/>
</g>
<g>
	<rect x="731" class="st0" width="0.8" height="412.7"/>
</g>
<g>
	<rect x="750.8" class="st0" width="0.8" height="412.7"/>
</g>
<g>
	<rect x="770.6" class="st0" width="0.8" height="412.7"/>
</g>
<g>
	<rect x="790.4" class="st0" width="0.8" height="412.7"/>
</g>
<g>
	<rect x="810.1" class="st0" width="0.8" height="412.7"/>
</g>
<g>
	<rect x="829.9" class="st0" width="0.8" height="412.7"/>
</g>
<g>
	<rect x="849.7" class="st0" width="0.8" height="412.7"/>
</g>
<g>
	<rect x="869.5" class="st0" width="0.8" height="412.7"/>
</g>
<g>
	<rect x="889.2" class="st0" width="0.8" height="412.7"/>
</g>
<g>
	<rect x="909" class="st0" width="0.8" height="412.7"/>
</g>
<g>
	<rect x="928.8" class="st0" width="0.8" height="412.7"/>
</g>
<g>
	<rect x="948.5" class="st0" width="0.8" height="412.7"/>
</g>
<g>
	<rect x="968.3" class="st0" width="0.8" height="412.7"/>
</g>
<g>
	<rect x="988.1" class="st0" width="0.8" height="412.7"/>
</g>
<g>
	<rect x="1007.9" class="st0" width="0.8" height="412.7"/>
</g>
<g>
	<rect x="1027.6" class="st0" width="0.8" height="412.7"/>
</g>
<g>
	<rect x="1047.4" class="st0" width="0.8" height="412.7"/>
</g>
<g>
	<rect x="1067.2" class="st0" width="0.8" height="412.7"/>
</g>
<g>
	<rect x="1087" class="st0" width="0.8" height="412.7"/>
</g>
<g>
	<rect x="1106.7" class="st0" width="0.8" height="412.7"/>
</g>
</svg>
