<svg id="Capa_1" data-name="Capa 1" xmlns="http://www.w3.org/2000/svg" viewBox="0 0 259.75 64.37"><g id="Capa_2" data-name="Capa 2"><g id="Capa_1-2" data-name="Capa 1-2"><path d="M0,0V64.37H64.54V0ZM57.78,17.23H23V6.56H57.78Zm-41-10.84v11H5.93v-11ZM5.93,23.68h10.8V58.44H5.93ZM23,58.09V23.86H57.78V58.09Z" style="fill:#fff"/><g style="isolation:isolate"><g style="isolation:isolate"><path d="M91.79,51.67V21.72H81.61V16.45h26.61v5.27H98v30Z" style="fill:#fff"/></g><g style="isolation:isolate"><path d="M113.56,51.67V16.45h21.22v5.27h-15v9h12.65V36H119.81V46.39h15.51v5.28Z" style="fill:#fff"/></g><g style="isolation:isolate"><path d="M152.87,52.32a17.53,17.53,0,0,1-12.71-5.17l3.66-4.26a15.49,15.49,0,0,0,4.31,2.88A11.53,11.53,0,0,0,153,46.88a7.26,7.26,0,0,0,4.57-1.24,4,4,0,0,0,1.57-3.29,3.49,3.49,0,0,0-1.54-3.18,29.63,29.63,0,0,0-3.9-2l-4.85-2.1A15.47,15.47,0,0,1,144,31.8a8.13,8.13,0,0,1-2.26-6.09,8.93,8.93,0,0,1,3.34-7.06,12.63,12.63,0,0,1,8.51-2.85A15,15,0,0,1,159.49,17a15.28,15.28,0,0,1,4.9,3.26l-3.17,4a14.69,14.69,0,0,0-3.53-2.2,10.2,10.2,0,0,0-4.12-.81,6.72,6.72,0,0,0-4,1.1A3.56,3.56,0,0,0,148,25.39a3.35,3.35,0,0,0,1.72,3.07,28,28,0,0,0,3.88,1.88l4.8,2a14.78,14.78,0,0,1,5.11,3.53,8.58,8.58,0,0,1,2,6,9.66,9.66,0,0,1-3.36,7.38Q158.79,52.31,152.87,52.32Z" style="fill:#fff"/></g><g style="isolation:isolate"><path d="M171.59,51.67V16.45h21.22v5.27h-15v9H190.5V36H177.84V46.39h15.51v5.28Z" style="fill:#fff"/></g><g style="isolation:isolate"><path d="M206,51.67h-6.25V16.45h11.9a17.37,17.37,0,0,1,9.21,2.26q3.72,2.26,3.72,8.18a10.4,10.4,0,0,1-1.91,6.52A10.57,10.57,0,0,1,217.54,37l8.4,14.7h-7l-7.6-13.79H206Zm0-18.74h5q7.42,0,7.43-6,0-3-1.91-4.22A10.36,10.36,0,0,0,211,21.45h-5Z" style="fill:#fff"/></g><g style="isolation:isolate"><path d="M252.75,51.67,250,42.14H238.15l-2.74,9.53h-6.36l11.47-35.22h7.33l11.47,35.22Zm-11.9-18.74-1.24,4.31h9l-1.24-4.31q-.86-2.8-1.64-5.77t-1.53-5.87H244c-.47,2-1,3.94-1.48,5.9S241.42,31.06,240.85,32.93Z" style="fill:#fff"/></g></g></g></g></svg>