<svg xmlns="http://www.w3.org/2000/svg" viewBox="0 0 465.33 93.73"><defs><style>.cls-1{fill:#fff;}</style></defs><g id="Capa_2" data-name="Capa 2"><g id="Capa_1-2" data-name="Capa 1"><path class="cls-1" d="M75.44,52.52,41.21,18.29,59.5,0H93.73V34.23ZM52.52,18.29,75.44,41.21,85.73,30.92V8H62.81Z"/><path class="cls-1" d="M18.29,52.52,0,34.23V0H34.23L52.52,18.29ZM8,30.92,18.29,41.21,41.21,18.29,30.92,8H8Z"/><path class="cls-1" d="M34.23,93.73H0V59.5L18.29,41.21,52.52,75.44ZM8,85.73H30.92L41.21,75.44,18.29,52.52,8,62.81Z"/><path class="cls-1" d="M93.73,93.73H59.5L41.21,75.44,75.44,41.21,93.73,59.5Zm-30.92-8H85.73V62.81L75.44,52.52,52.52,75.44Z"/><path class="cls-1" d="M121.7,73V22h30.73v7.65H130.75v13h18.33v7.65H130.75V65.4h22.46V73Z"/><path class="cls-1" d="M162,73V22h9.28l15.92,28.71,5.22,10.84h.32q-.31-3.9-.75-8.5c-.28-3.07-.43-6-.43-8.89V22h8.66V73H190.9L175,44.33l-5.23-10.84h-.31c.2,2.7.45,5.54.74,8.5s.43,5.88.43,8.74V73Z"/><path class="cls-1" d="M226.26,74a25.39,25.39,0,0,1-18.41-7.49l5.31-6.17a22.82,22.82,0,0,0,6.24,4.18,16.9,16.9,0,0,0,7,1.6q4.37,0,6.63-1.8a5.75,5.75,0,0,0,2.26-4.76,5,5,0,0,0-2.22-4.6,42.48,42.48,0,0,0-5.66-2.89l-7-3a22.41,22.41,0,0,1-7-4.76q-3.27-3.2-3.28-8.81A12.94,12.94,0,0,1,215,25.22a18.31,18.31,0,0,1,12.33-4.14,21.78,21.78,0,0,1,8.58,1.76,22.1,22.1,0,0,1,7.1,4.72l-4.6,5.77a21.23,21.23,0,0,0-5.11-3.2,14.86,14.86,0,0,0-6-1.17,9.71,9.71,0,0,0-5.85,1.6A5.17,5.17,0,0,0,219.24,35a4.84,4.84,0,0,0,2.5,4.45,39.75,39.75,0,0,0,5.62,2.73L234.3,45a21.35,21.35,0,0,1,7.41,5.11c1.92,2.11,2.89,5,2.89,8.7a14,14,0,0,1-4.88,10.69Q234.85,74,226.26,74Z"/><path class="cls-1" d="M253,73V22h30.74v7.65H262v13h18.33v7.65H262V65.4h22.47V73Z"/><path class="cls-1" d="M293.21,73V22h10.22l9.05,25q.78,2.43,1.64,5t1.64,5h.31q.78-2.49,1.56-5t1.64-5l8.82-25h10.29V73H330V49.71q0-3.59.43-8.15t.74-8.07h-.31l-4.14,11.86-8.35,22.93H313L304.6,45.35l-4.05-11.86h-.31q.3,3.51.74,8.07c.28,3,.43,5.76.43,8.15V73Z"/><path class="cls-1" d="M350.15,73V22h16.3q7.89,0,13.07,2.77t5.19,9.79a13,13,0,0,1-1.87,6.79,9.68,9.68,0,0,1-5.23,4.29V46a13.11,13.11,0,0,1,7,3.94,11.54,11.54,0,0,1,2.77,8.15q0,7.65-5.58,11.31t-14,3.67Zm9.05-30h6.47c3.54,0,6.11-.65,7.73-1.95a6.36,6.36,0,0,0,2.41-5.22q0-3.75-2.49-5.31c-1.67-1-4.16-1.56-7.49-1.56H359.2Zm0,22.94h7.64q11.7,0,11.7-8.43,0-7.71-11.7-7.72H359.2Z"/><path class="cls-1" d="M396.07,73V22h9.05V65.4h21.22V73Z"/><path class="cls-1" d="M433.81,73V22h30.74v7.65H442.86v13h18.33v7.65H442.86V65.4h22.47V73Z"/></g></g></svg>