<svg id="Capa_1" data-name="Capa 1" xmlns="http://www.w3.org/2000/svg" viewBox="0 0 91.1 91.1"><path d="M66,11.49a47.28,47.28,0,0,0-4.68-2.4L61.24,9A44.86,44.86,0,0,0,55,7,47.73,47.73,0,0,0,49.55,6l-.26,0c-1.23-.1-2.4-.19-3.69-.19v4c1.13,0,2.23.08,3.38.17l.19,0a44,44,0,0,1,4.87.86,38.85,38.85,0,0,1,5.67,1.89A44,44,0,0,1,64,14.92,35.82,35.82,0,1,1,9.8,45.6a35.51,35.51,0,0,1,11-25.75l1.13-1.06L20,15.42,32.71,14.3,27.39,25.67l-3-3.93-1.61,1.67a31.8,31.8,0,1,0,39-5.1,25.36,25.36,0,0,0-3.83-2,39.83,39.83,0,0,0-5-1.69c-1.42-.33-2.84-.54-4.25-.74a31.79,31.79,0,0,0-3.2-.11v4c1,0,1.9,0,2.72.08,1.24.18,2.56.38,3.79.66a34.15,34.15,0,0,1,4.42,1.51,20.64,20.64,0,0,1,3.25,1.67A27.72,27.72,0,0,1,45.6,73.3,27.76,27.76,0,0,1,24.09,27.94l4.12,5.39L39.29,9.7,13.56,12,16.92,18A39.55,39.55,0,0,0,5.8,45.6,39.85,39.85,0,1,0,66,11.49Z" style="fill:#5f00ff"/><polygon points="67.8 43.6 47.7 43.6 47.7 25.6 43.7 25.6 43.7 47.6 67.8 47.6 67.8 43.6" style="fill:#5f00ff"/><rect x="43.6" y="61.6" width="4" height="8.6" style="fill:#5f00ff"/><rect x="21.8" y="43.6" width="8.6" height="4" style="fill:#5f00ff"/></svg>