<svg id="Capa_1" data-name="Capa 1" xmlns="http://www.w3.org/2000/svg" viewBox="0 0 91.1 91.1"><path d="M26.7,48.3a18.8,18.8,0,0,1,2.6-9.9c.2-.4.8-.8.6-1.3a6.5,6.5,0,0,0-1.1-2.2A10.91,10.91,0,0,0,25.5,33a1.57,1.57,0,0,1-1.1-1.8,1.73,1.73,0,0,1,3.2-.7c.4.5.8,1.1,1.2,1.6.9,1.3,2.3,1.7,3.7,2.1.3.1.5-.1.7-.3a18.68,18.68,0,0,1,9.5-4.5c.9-.1,1.8-1.5,1.8-2.6a10.59,10.59,0,0,0-.6-3.9,1.77,1.77,0,0,1,1.2-2.2,1.83,1.83,0,0,1,2.1,1.1,1.47,1.47,0,0,1-.1,1.3,10.89,10.89,0,0,0-.5,2.6,5.2,5.2,0,0,0,.9,3.2c.2.5.8.4,1.1.4a18.07,18.07,0,0,1,7.7,3.2,8.65,8.65,0,0,0,1,.7c.5.3.9,1.2,1.5,1A4.67,4.67,0,0,0,61.7,33a19.17,19.17,0,0,0,1.8-2.2,1.69,1.69,0,0,1,2-1,1.81,1.81,0,0,1,1.4,1.7,1.88,1.88,0,0,1-1.3,1.8A21.48,21.48,0,0,0,63,34.7c-1,.6-1.2,1.7-1.7,2.6-.1.2,0,.4.2.6a18.7,18.7,0,0,1,2.8,11c0,.2,0,.4.2.5a5.54,5.54,0,0,0,3.6,1.5,16.2,16.2,0,0,0,2.2-.1,1.82,1.82,0,0,1,1.9.9,1.55,1.55,0,0,1-.3,2,1.86,1.86,0,0,1-2.1.4c-.8-.4-1.6-.7-2.4-1.1a5.84,5.84,0,0,0-3.7.2.55.55,0,0,0-.4.6,18.57,18.57,0,0,1-7.4,9.4c-.4.2-.3.5-.4.9-.3,2.3,1,3.8,2.3,5.4a1.66,1.66,0,0,1,.2,2,1.68,1.68,0,0,1-1.8.9A1.7,1.7,0,0,1,54.7,71c-.2-1.2-.5-2.3-.8-3.5s-1.4-1.4-2-2.2c-.2-.2-.4,0-.6.1a18.61,18.61,0,0,1-11.2.1c-.6-.2-2,.7-2.5,1.6a8.78,8.78,0,0,0-1,3.5,1.83,1.83,0,0,1-1.5,1.8,1.82,1.82,0,0,1-1.9-.9,1.74,1.74,0,0,1,.4-2.2,10.1,10.1,0,0,0,1.3-1.6,5.56,5.56,0,0,0,.9-3.8c0-.3-.2-.4-.5-.6a18.17,18.17,0,0,1-7.4-9.4c-.2-.7-1.6-1.2-2.6-1a9.54,9.54,0,0,0-3.5,1.4,1.78,1.78,0,1,1-.5-3.2,10.92,10.92,0,0,0,3.6-.2,4.83,4.83,0,0,0,2-1.4C27,49.3,26.5,48.6,26.7,48.3Zm12.7,4.6c0-.7-.4-.7-.9-.7-2.3.3-4.5.5-6.8.7-.6.1-.7.3-.5.8a14.66,14.66,0,0,0,5,6.3c.4.3.6.3.8-.2.3-1,.7-2.1,1-3.1C38.5,55.6,38.9,54.2,39.4,52.9ZM30,47.3c.3.3-.5,1.4.7,1l6.6-2.1c.8-.3.9-.7.3-1.3-1.6-1.6-3.2-3.1-4.8-4.7-.4-.4-.6-.3-.8.1A15,15,0,0,0,30,47.3Zm22.8,5.2c-1.1-.1-1.3.1-1.1.8.7,2.2,1.5,4.4,2.3,6.6.1.4.3.4.6.2a15.74,15.74,0,0,0,5-6.4c.2-.5,0-.7-.5-.7C57,52.9,54.9,52.7,52.8,52.5ZM45.3,63.2a16.66,16.66,0,0,0,3.9-.5c.5-.1.6-.3.4-.8-1.1-1.9-2.3-3.9-3.4-5.8-.4-.7-.8-.7-1.3,0-1.2,1.9-2.3,3.9-3.5,5.8-.4.6-.2.8.4.9A22.1,22.1,0,0,0,45.3,63.2ZM60.7,46.9a15.47,15.47,0,0,0-1.8-6.4c-.3-.5-.4-.5-.8-.1L53,45.5c-.4.4-.4.5.2.7,2.2.6,4.3,1.2,6.5,1.9C60.8,48.4,60.8,48.5,60.7,46.9ZM48.3,32.7c-.7-.1-.5.4-.5.7.2,2.1.4,4.1.6,6.2.1,1,.4,1.1,1.3.6,1.4-.9,2.7-1.9,4.1-2.8,1.9-1.2,1.9-1.2,0-2.5A15.51,15.51,0,0,0,48.3,32.7Zm-5.4.8c.2-.7-.1-.9-.7-.7a16.47,16.47,0,0,0-6.3,2.9c-.3.3-.5.5,0,.8,1.9,1.3,3.9,2.6,5.8,3.9.4.3.5.1.6-.3Q42.6,36.65,42.9,33.5Zm2.4,11.3c-1.2,0-2.9,1.4-3,2.4a3.3,3.3,0,0,0,3,3.4c1.5.1,3-1.6,3-3.4C48.3,46.1,46.7,44.8,45.3,44.8Z" style="fill:#5f00ff"/><path d="M61.67,80.5H29L9.65,55.18l6.7-30.55L45.3,10.37l28.62,14,7.66,30.86ZM31,76.5H59.73L77.22,54.33,70.48,27.19,45.3,14.83,19.85,27.37,14,54.22Z" style="fill:#5f00ff"/></svg>