<svg id="Capa_1" data-name="Capa 1" xmlns="http://www.w3.org/2000/svg" viewBox="0 0 91.1 91.1"><path d="M83,28.87a14.72,14.72,0,0,0-24.54-6.58l-9,9h0L36.69,44.09,35.37,45.4,22.47,58.3l3.8,14.1-10,10,2.82,2.82,10-10L43.2,79l12.9-12.9h0L70.31,51.91h0l8.9-8.9A14.82,14.82,0,0,0,83,28.87ZM50.67,35.76l2.6,9.64L42.43,56.24l-2.6-9.64ZM45.26,59.07,56.1,48.23l9.64,2.6L54.9,61.67Zm-18.33.43,9.64-9.64,2.6,9.64-9.64,9.64ZM42,74.57,32.36,72,42,62.33l9.64,2.6Zm27-27L59.36,45l9.35-9.36-2.82-2.82-9.36,9.35-2.6-9.64,7.38-7.39A10.73,10.73,0,0,1,79.16,29.9a10.81,10.81,0,0,1-2.77,10.29Z" style="fill:#5f00ff"/><path d="M24.88,33.76A14.85,14.85,0,0,0,36.62,22.55a13.55,13.55,0,0,0-4.69-14C26,3.86,19.85,4.33,15.19,9.79,12.77,12.6,12,18.12,15,22.55a8.23,8.23,0,0,0,9.87,2.6c2.92-1.44,4-4.55,2.78-8.34L23.79,18c.57,1.85.33,3.05-.73,3.56a4.25,4.25,0,0,1-4.8-1.26c-2-2.92-1.28-6.46,0-7.89,3.28-3.84,7-4.07,11.24-.73a9.46,9.46,0,0,1,3.27,9.93,10.94,10.94,0,0,1-8.62,8.24,13,13,0,0,1-10-2,12.64,12.64,0,0,1-5.25-8.24l-3.94.64A16.67,16.67,0,0,0,21.44,34.1,17.52,17.52,0,0,0,24.88,33.76Z" style="fill:#5f00ff"/></svg>