<svg id="Capa_1" data-name="Capa 1" xmlns="http://www.w3.org/2000/svg" viewBox="0 0 91.1 91.1"><path d="M16,60.3H28.7V48.2H16Zm4-8.1h4.7v4.1H20Z" style="fill:#5f00ff"/><path d="M31.8,60.3H43.7V40.8H31.8Zm4-15.5h3.9V56.3H35.8Z" style="fill:#5f00ff"/><path d="M47.1,60.3H58.9V42.2H47.1Zm4-14.1h3.8V56.3H51.1Z" style="fill:#5f00ff"/><path d="M62.5,60.3H74.1V34.9H62.5Zm4-21.4h3.6V56.3H66.5Z" style="fill:#5f00ff"/><path d="M85.1,69.5V10.8H5.3V69.5H34.9v6.8H29.7v4H65.6v-4H59.9V69.5Zm-75.8-4V14.8H81.1V65.5H9.3ZM55.9,76.3h-17V69.5h17Z" style="fill:#5f00ff"/><polygon points="70.5 29.2 75.3 20.2 64.9 19.7 66.53 22.47 45.76 33.77 39.32 26.35 17.05 36.79 18.75 40.41 38.28 31.25 44.84 38.83 68.57 25.92 70.5 29.2" style="fill:#5f00ff"/></svg>