<svg id="Capa_1" data-name="Capa 1" xmlns="http://www.w3.org/2000/svg" viewBox="0 0 91.1 91.1"><path d="M65.06,34.45A22.67,22.67,0,0,0,56,25.34a25,25,0,0,0-3.86-1.65,21.47,21.47,0,0,0-6.5-1,21.2,21.2,0,0,0-6.53,1,24.38,24.38,0,0,0-3.82,1.64,22.73,22.73,0,0,0-9.11,9.1,25,25,0,0,0-1.65,3.86,21.47,21.47,0,0,0-1,6.5,21.2,21.2,0,0,0,1,6.53,24.38,24.38,0,0,0,1.64,3.82,22.67,22.67,0,0,0,9.1,9.11,24.61,24.61,0,0,0,3.86,1.65,21.52,21.52,0,0,0,6.5,1,21.25,21.25,0,0,0,6.53-1A24,24,0,0,0,56,64.26a22.73,22.73,0,0,0,9.11-9.1,24.09,24.09,0,0,0,1.65-3.86,21.47,21.47,0,0,0,1-6.5,21.2,21.2,0,0,0-1-6.53A24.38,24.38,0,0,0,65.06,34.45ZM62.9,50.07a19.25,19.25,0,0,1-1.36,3.17h0A18.52,18.52,0,0,1,54,60.74a18.78,18.78,0,0,1-3.14,1.35,17.16,17.16,0,0,1-5.3.81,17.43,17.43,0,0,1-5.27-.8,19.37,19.37,0,0,1-3.18-1.36,18.59,18.59,0,0,1-7.49-7.5,19.15,19.15,0,0,1-1.35-3.14,17.16,17.16,0,0,1-.81-5.3,17.43,17.43,0,0,1,.8-5.27,19.37,19.37,0,0,1,1.36-3.18,18.59,18.59,0,0,1,7.5-7.49,18.78,18.78,0,0,1,3.14-1.35,17.16,17.16,0,0,1,5.3-.81,17.43,17.43,0,0,1,5.27.8,19.37,19.37,0,0,1,3.18,1.36,18.52,18.52,0,0,1,7.49,7.5,18.78,18.78,0,0,1,1.35,3.14,17.16,17.16,0,0,1,.81,5.3A17.43,17.43,0,0,1,62.9,50.07Z" style="fill:#5f00ff"/><path d="M84.4,52.6V36.9H77.82A32.41,32.41,0,0,0,74,27.58l4.88-4.88L67.7,11.57l-4.89,4.89a33.93,33.93,0,0,0-9.31-3.87V5.7H37.7v6.76a32.09,32.09,0,0,0-9.33,3.89L23.5,11.47,12.37,22.6l4.86,4.86a32,32,0,0,0-3.84,9.34h-7V52.6h6.78a32.41,32.41,0,0,0,3.87,9.32L12.17,66.8,23.3,77.93,28.19,73a32.58,32.58,0,0,0,9.31,3.9V83.7H53.3V76.92a32.41,32.41,0,0,0,9.32-3.87l4.88,4.88L78.63,66.8l-4.89-4.89a33.93,33.93,0,0,0,3.87-9.31ZM74,50.23A30.2,30.2,0,0,1,69.53,61.1l-.9,1.36L73,66.8,67.5,72.27l-4.35-4.35-1.37.92a28.46,28.46,0,0,1-10.85,4.49l-1.63.31V79.7H41.5V73.61l-1.67-.28A28.47,28.47,0,0,1,29,68.83l-1.36-.9L23.3,72.27,17.83,66.8l4.35-4.35-.92-1.37a28.46,28.46,0,0,1-4.49-10.85l-.31-1.63H10.4V40.8h6.26l.3-1.63a28.12,28.12,0,0,1,4.47-10.82l1-1.37L18,22.6l5.47-5.47,4.35,4.35,1.37-.92A27.78,27.78,0,0,1,40,16.07l1.67-.28V9.7h7.8v6.16l1.63.31A30,30,0,0,1,62,20.67l1.36.9,4.34-4.34,5.47,5.47-4.35,4.35.92,1.37a28.46,28.46,0,0,1,4.49,10.85l.31,1.63H80.4v7.7H74.34Z" style="fill:#5f00ff"/><path d="M33.43,49.1H39.6v7.7H51.3V49.1h6.2L45.39,31.45Zm16.47-4H47.3v7.7H43.6V45.1H41l4.44-6.55Z" style="fill:#5f00ff"/></svg>