<svg id="Capa_1" data-name="Capa 1" xmlns="http://www.w3.org/2000/svg" viewBox="0 0 91.1 91.1"><path d="M66.3,34.9V27.1a20.4,20.4,0,1,0-40.8,0v7.8H19.8V81.6H72.1V34.9ZM29.5,27.1a16.4,16.4,0,1,1,32.8,0v7.8H58.1V26.1a12.15,12.15,0,0,0-24.3,0v8.8H29.5Zm24.6,7.8H37.8V26.1a8.15,8.15,0,0,1,16.3,0Zm14,42.7H23.8V38.9H68.1Z" style="fill:#5f00ff"/><path d="M41.3,66.76V72.5h10V66.79a8.22,8.22,0,1,0-10,0Zm5-10.66a4.25,4.25,0,0,1,4.2,4.2,4.18,4.18,0,0,1-2.13,3.63l-1.07.56v4h-2v-4l-1-.58a4.19,4.19,0,0,1,2-7.87Z" style="fill:#5f00ff"/></svg>