<svg id="Capa_1" data-name="Capa 1" xmlns="http://www.w3.org/2000/svg" xmlns:xlink="http://www.w3.org/1999/xlink" viewBox="0 0 250.5 254.9"><defs><clipPath id="clip-path"><path d="M105.1,11.8h18.5c-21,1.4-40.7,9.8-57.3,24.2C50.2,50.1,38,69,31.1,90.8H12.6A119.38,119.38,0,0,1,47.8,36C64.4,21.6,84.2,13.2,105.1,11.8Z" style="fill:none"/></clipPath><clipPath id="clip-path-2"><path d="M58.3,112.4a93.48,93.48,0,0,0-1.9,19H37.9a93.48,93.48,0,0,1,1.9-19Z" style="fill:none"/></clipPath><clipPath id="clip-path-3"><path d="M64.4,169.6a82,82,0,0,0,21.1,28.7H66.9a83.26,83.26,0,0,1-21.1-28.7,92.71,92.71,0,0,1-8-38.1H56.3A94.45,94.45,0,0,0,64.4,169.6Z" style="fill:none"/></clipPath><clipPath id="clip-path-4"><path d="M40.1,112.7H58.6a97.93,97.93,0,0,0-1.8,18.7,91.45,91.45,0,0,0,8,37.9A82.64,82.64,0,0,0,86,198.1H67.4a82.64,82.64,0,0,1-21.2-28.8,93.52,93.52,0,0,1-6.1-56.6Z" style="fill:none"/></clipPath><clipPath id="clip-path-5"><rect x="39.8" y="112.2" width="18.6" height="0.2" style="fill:none"/></clipPath><clipPath id="clip-path-6"><path d="M9.8,101.1H28.3a135.58,135.58,0,0,0-3.4,30.4A132.14,132.14,0,0,0,36,185.2a119.44,119.44,0,0,0,29.4,40.9H46.8a119.44,119.44,0,0,1-29.4-40.9A132.14,132.14,0,0,1,6.3,131.5,140.31,140.31,0,0,1,9.8,101.1Z" style="fill:none"/></clipPath><clipPath id="clip-path-7"><path d="M123.5,48c-29,2.9-53.6,24.8-63.1,56H41.9C51.4,72.8,76,50.8,105,48Z" style="fill:none"/></clipPath><clipPath id="clip-path-8"><path d="M104.8,48.3h18.5C94.6,51.2,70,73.2,60.7,104.4H42.1C51.5,73.2,76,51.2,104.8,48.3Z" style="fill:none"/></clipPath><clipPath id="clip-path-9"><polygon points="123.7 47.9 123.5 47.9 105 47.9 105.2 47.9 123.7 47.9" style="fill:none"/></clipPath><clipPath id="clip-path-10"><path d="M54.6,232.3H73.1c17,12.4,36.5,19,56.6,19H111.2A94.73,94.73,0,0,1,54.6,232.3Z" style="fill:none"/></clipPath><clipPath id="clip-path-11"><path d="M91.7,203.1a67.1,67.1,0,0,0,38,12.2H111.2a66.36,66.36,0,0,1-38-12.2Z" style="fill:none"/></clipPath><clipPath id="clip-path-12"><path d="M73.6,203H92.1a66.31,66.31,0,0,0,37.6,11.9H111.2A66.31,66.31,0,0,1,73.6,203Z" style="fill:none"/></clipPath><clipPath id="clip-path-13"><path d="M153.1,200.2h18.5a66.53,66.53,0,0,1-41.9,15H111.2A66,66,0,0,0,153.1,200.2Z" style="fill:none"/></clipPath><clipPath id="clip-path-14"><path d="M170,230.6h18.5c-17.4,13.5-37.7,20.7-58.8,20.7H111.2C132.3,251.3,152.6,244.2,170,230.6Z" style="fill:none"/></clipPath><clipPath id="clip-path-15"><path d="M170.5,230.7H189c-17.5,13.7-38,21-59.3,21H111.2C132.5,251.7,153,244.4,170.5,230.7Z" style="fill:none"/></clipPath><clipPath id="clip-path-16"><path d="M112.6,47.7h18.5c28.9.6,54.9,20.7,66.1,51.2H178.7C167.4,68.4,141.5,48.3,112.6,47.7Z" style="fill:none"/></clipPath><clipPath id="clip-path-17"><path d="M181.3,107.1h18.5a94.7,94.7,0,0,1,3.1,24.3c0,24.3-9.2,47.4-25.3,63.4H159.1c16.1-15.9,25.3-39,25.3-63.4A91,91,0,0,0,181.3,107.1Z" style="fill:none"/></clipPath><clipPath id="clip-path-18"><path d="M114.6,11.7h18.5c20.7.8,40.6,8.4,57.5,22.2,16.6,13.6,29.3,32.2,36.8,53.8H208.9c-7.4-21.7-20.1-40.3-36.8-53.9C155.2,20.1,135.3,12.4,114.6,11.7Z" style="fill:none"/></clipPath><clipPath id="clip-path-19"><path d="M114.2,11.3h18.5c21,.7,41.1,8.4,58.1,22.3a119,119,0,0,1,36.8,53.9H209.1c-7.5-21.7-20.2-40.3-36.8-53.8C155.2,19.7,135.2,12,114.2,11.3Z" style="fill:none"/></clipPath><clipPath id="clip-path-20"><path d="M211.9,98.1h18.5a138.64,138.64,0,0,1,4.1,33.3c0,36-14,69.7-38.3,92.6H177.7C202,201.1,216,167.4,216,131.4A138.64,138.64,0,0,0,211.9,98.1Z" style="fill:none"/></clipPath><clipPath id="clip-path-21"><path d="M216.3,131.4h18.5c0,36-14,69.8-38.3,92.8H178C202.4,201.3,216.3,167.5,216.3,131.4Z" style="fill:none"/></clipPath><clipPath id="clip-path-22"><path d="M212.1,97.6h18.5a137.87,137.87,0,0,1,4.2,33.8H216.3A137.87,137.87,0,0,0,212.1,97.6Z" style="fill:none"/></clipPath></defs><g id="Capa_2" data-name="Capa 2"><g id="Capa_5" data-name="Capa 5"><path d="M248.6,130.9v-2c0-.8-.1-1.6-.1-2.4V126c-.1-1.3-.2-2.5-.3-3.8l-.1-1c-.1-1-.2-2.1-.3-3.1l-.1-.8a.76.76,0,0,0-.1-.4l-.3-2.1a12.37,12.37,0,0,1-.2-1.8c-.1-.8-.3-1.7-.4-2.5-.1-.6-.2-1.1-.3-1.6-.2-.9-.4-1.8-.6-2.8-.1-.4-.2-.9-.3-1.3-.3-1.4-.6-2.7-1-4.1h0l6-13.6H240.2c-.1-.2-.1-.4-.2-.6-.2-.4-.3-.8-.5-1.3-.4-.9-.7-1.8-1.1-2.7l-.7-1.5c-.3-.8-.7-1.6-1-2.3a11.94,11.94,0,0,0-.8-1.6,20,20,0,0,0-1-2.1v-.1L232.8,71c-.2-.3-.4-.7-.6-1-.5-1-1.1-1.9-1.6-2.8-.3-.5-.6-.9-.9-1.4l-1.5-2.4a13,13,0,0,0-1-1.5c-.5-.7-1-1.5-1.5-2.2a4.35,4.35,0,0,1-.4-.7c-.1-.3-.3-.4-.5-.7-.8-1.1-1.6-2.2-2.4-3.2-.2-.3-.5-.6-.7-.9-1-1.3-2.1-2.6-3.2-3.9l-.2-.2a6.47,6.47,0,0,1-.8-.9c-.6-.7-1.2-1.4-1.8-2a15.38,15.38,0,0,1-1.2-1.3l-1.8-1.8-.5-.5-.9-.8-1.5-1.4c-.5-.5-1-.9-1.5-1.4l-1.5-1.3-.6-.5c-.6-.5-1.2-1-1.9-1.5-1.2-1-2.4-1.9-3.6-2.8l-.3-.2L198.1,32l-.4-.3a29,29,0,0,0-2.9-1.9l-.3-.2-.9-.5c-.8-.5-1.5-.9-2.3-1.4-.4-.2-.7-.4-1.1-.6l-1-.6-1.2-.6-1-.6c-.9-.5-1.8-.9-2.7-1.4l-.5-.3-.1-.1c-1-.5-2.1-1-3.1-1.4l-.9-.4-1.6-.7-.8-.3-1.1-.4-2.4-.9-1.1-.4-.4-.2a27.59,27.59,0,0,0-2.7-.8l-.3-.1c-1-.3-2.1-.6-3.1-.8l-.4-.1H165a20.48,20.48,0,0,0-2.4-.5l-1.4-.3L160,16c-.3-.1-.7-.1-1-.2l-1.6-.2-2.2-.3-1.5-.2L153,15a10.87,10.87,0,0,0-1.8-.1l-1.2-.1c-1.2-.1-2.4-.2-3.6-.2h0L137,3.8H118.5l.8.9h-.5l-.2,10.4A96.22,96.22,0,0,0,66.1,35.5c-1.6,1.2-3.2,2.5-4.7,3.8l-.5.5c-.8.7-1.6,1.4-2.3,2.1l-.5.5L56,44.5l-.8.8c-.7.7-1.4,1.4-2,2.1l-.5.5V48a5.72,5.72,0,0,0-.7.8l-2.1,2.4-1,1.2c-.6.7-1.2,1.4-1.8,2.2l-.5.6c-.2.3-.5.6-.7.9l-1.2,1.7c-.4.5-.8,1.1-1.2,1.7s-.8,1.1-1.2,1.7c-.2.2-.3.5-.5.7a5.25,5.25,0,0,0-.7,1.1,11,11,0,0,1-.9,1.4c-.4.6-.8,1.3-1.2,1.9l-.9,1.5-.3.5a15.05,15.05,0,0,1-1,1.7l-.6,1.1c-.6,1-1.1,2.1-1.6,3.1l-.2.4h0c-.6,1.1-1.1,2.3-1.7,3.4l-.5,1c-.3.6-.5,1.2-.8,1.8l-.3.7a5,5,0,0,0-.5,1.3c-.3.8-.7,1.6-1,2.4L29,86.5l-.3.7c-.2.7-.5,1.3-.7,2a4.18,4.18,0,0,1-.4,1l-1.2,3.6a.37.37,0,0,1-.1.3h0l-.4.2h.7l-11.7,6.8,8.6,3.4c0,.2-.1.3-.1.5a22.5,22.5,0,0,1-.5,2.2.6.6,0,0,1-.1.4c-.2.8-.3,1.6-.5,2.4a5,5,0,0,0-.2,1.2c-.1.8-.3,1.6-.4,2.5,0,.3-.1.6-.1.9v.4a23.36,23.36,0,0,1-.4,2.6c-.1.4-.1.9-.2,1.3a19.42,19.42,0,0,0-.2,2.4c0,.4-.1.7-.1,1.1v.4c-.1,1-.1,1.9-.2,2.9,0,.4-.1.8-.1,1.2-.1,1.2-.1,2.4-.2,3.6v.4h0c0,1.3-.1,2.6-.1,3.9v6.6a4.87,4.87,0,0,0,.1,1.2c0,.7.1,1.4.1,2.1l.1,1.3.2,2.1.1,1.2c.1.8.2,1.5.3,2.3,0,.3.1.6.1.9v.2l.1.6c.1,1.2.3,2.4.5,3.5.1.4.1.8.2,1.2.2,1.1.4,2.3.6,3.4a1.88,1.88,0,0,0,.2.8c.3,1.4.6,2.7.9,4.1.1.3.2.7.3,1,.3,1.1.5,2.1.8,3.2.1.2.1.5.2.7a.9.9,0,0,1,.1.5c.4,1.2.7,2.4,1.1,3.6,0,.1.1.3.1.4.4,1.3.9,2.6,1.3,3.9l.4,1.1c.4,1,.7,2,1.1,2.9.1.4.3.8.4,1.1.5,1.3,1,2.6,1.6,3.8a23.94,23.94,0,0,0,1.3,2.8l.1.1c.1.3.3.5.4.8.3.5.5,1.1.8,1.6l.1.2c.5,1.1,1.1,2.1,1.6,3.2l.3.5.5.9c.3.5.5,1,.8,1.4s.6,1,.9,1.5c.2.3.3.5.5.8.7,1.2,1.4,2.3,2.2,3.5l.5.7c.6,1,1.3,1.9,1.9,2.8l.3.5c.1.1.1.2.2.3,1,1.4,2,2.7,3,4l.5.7c1,1.3,2.1,2.6,3.1,3.8l.2.2c.1.2.3.3.4.5.7.8,1.5,1.6,2.2,2.5.2.2.4.5.6.7.9,1,1.8,1.9,2.8,2.9a.35.35,0,0,0,.2.1l1.2,1.2.7.7c.7.7,1.4,1.3,2.2,2h0l.1.6,2.1,15.1H81.2l.4-.6a93.31,93.31,0,0,0,43.3,10.6h18.5a95.63,95.63,0,0,0,56.2-18.6H216l-5.6-8.9A31.89,31.89,0,0,0,213,225l.8-.8c.6-.6,1.2-1.2,1.8-1.9l.5-.5.3-.4,2.8-3.1.3-.3,2.4-3,.4-.4c.1-.1.2-.3.3-.4.6-.8,1.2-1.6,1.8-2.5l.4-.6c.7-1,1.4-2,2.1-3.1l.2-.2.4-.7c.4-.7.9-1.3,1.3-2l.7-1.1c.4-.6.8-1.3,1.2-2a4.35,4.35,0,0,0,.4-.7c.1-.3.2-.3.3-.5a11.4,11.4,0,0,0,1-1.9l.6-1.1a15.05,15.05,0,0,0,1.1-2.2c.1-.2.3-.5.4-.7l.1-.1c.5-1,.9-1.9,1.4-2.9l.1-.1c.5-1,.9-2,1.4-3.1l.1-.1a10.37,10.37,0,0,0,.4-1,16.67,16.67,0,0,0,.8-2l.5-1.2c.2-.6.5-1.2.7-1.9a.37.37,0,0,0,.1-.3,4.18,4.18,0,0,1,.4-1l.6-1.8c.2-.6.3-.9.5-1.4s.4-1.2.6-1.8c.1-.2.1-.4.2-.5a4.65,4.65,0,0,0,.3-.9l.5-1.8.4-1.5c.2-.6.3-1.2.5-1.8.1-.2.1-.5.2-.7l.2-.8c.2-.6.3-1.2.5-1.9a15.46,15.46,0,0,1,.4-1.5,10.62,10.62,0,0,0,.4-1.9l.2-.9.1-.5c.1-.7.3-1.4.4-2.1a5.85,5.85,0,0,0,.2-1.3c.1-.8.3-1.6.4-2.4,0-.3.1-.6.1-.9v-.1c.2-1.2.3-2.4.5-3.6l.1-.9c.1-.9.2-1.9.3-2.8V147l.1-.8c.1-.9.1-1.9.2-2.8a5.7,5.7,0,0,1,.1-1.3c.1-1,.1-2,.1-3v-1c0-1.2.1-2.4.1-3.7S248.6,132.1,248.6,130.9ZM134,217.4l-1.2-.2-1.2-.2-1-.2-1.3-.3a4.4,4.4,0,0,0-1-.2L127,216l-.9-.2-1.4-.4-.9-.3c-.5-.2-1-.3-1.5-.5l-.7-.2c-.7-.3-1.4-.5-2.1-.8h-.1c-.7-.3-1.4-.6-2.2-.9l-.7-.3a6.11,6.11,0,0,1-1.4-.7l-.8-.4-1.3-.7-.8-.4-1.3-.7-.8-.5-1.3-.8-.8-.5c-.7-.4-1.3-.9-2-1.3l4.2-6.7H97.7c-.3-.3-.6-.5-.9-.8l-.5-.5-2.8-2.8-.5-.5-2.1-2.4c-.4-.4-.7-.9-1.1-1.3-.5-.7-1.1-1.3-1.6-2-.3-.5-.7-.9-1-1.4-.6-.9-1.2-1.8-1.8-2.6l-.4-.6c-.7-1.1-1.4-2.3-2.1-3.4-.2-.3-.3-.6-.5-.9-.5-.9-1-1.9-1.5-2.8-.2-.3-.3-.6-.5-.9-.6-1.2-1.2-2.5-1.8-3.8-.4-.9-.8-1.8-1.2-2.8-.1-.3-.2-.5-.3-.8a19.45,19.45,0,0,1-.8-2.2l-.2-.7c-.3-.9-.7-1.9-1-2.8-.1-.2-.1-.4-.2-.6-.2-.8-.5-1.6-.7-2.3a3.09,3.09,0,0,1-.2-.8c-.2-.8-.4-1.6-.6-2.5,0-.1-.1-.3-.1-.4-.2-.9-.4-1.9-.6-2.9a2.35,2.35,0,0,0-.2-.8c-.1-.7-.3-1.5-.4-2.2a2.77,2.77,0,0,1-.1-.9,25.12,25.12,0,0,1-.4-2.7v-.2c-.2-1.2-.3-2.4-.4-3.7l-.1-.7c-.1-1.2-.2-2.4-.2-3.6v-.7c0-1.2-.1-2.5-.1-3.7v-3.3c0-.7.1-1.4.1-2.1v-.9a13.66,13.66,0,0,1,.2-1.9,2.77,2.77,0,0,1,.1-.9l.2-1.7c0-.3.1-.6.1-.8l.3-2.4v-.1a7.72,7.72,0,0,0,.2-1.5l.1-.6h7.3L74.6,108h0c.2-.7.4-1.3.6-2,.4-1.3.9-2.7,1.4-4l.2-.5,1.5-3.6c.1-.2.2-.5.3-.7.6-1.3,1.2-2.6,1.8-3.8a8.26,8.26,0,0,1,.7-1.3l.5-.9c.3-.6.6-1.1.9-1.7.1-.2.3-.5.4-.7.4-.6.8-1.3,1.2-1.9.1-.2.2-.3.3-.5.5-.8,1-1.6,1.5-2.3a14.63,14.63,0,0,0,.9-1.3,10.47,10.47,0,0,1,.8-1.1l.9-1.2.8-1c.6-.8,1.3-1.6,1.9-2.4.2-.2.4-.5.6-.7.5-.6.9-1.1,1.4-1.6l.6-.7c.7-.7,1.4-1.4,2.1-2.2l.5-.5c.8-.8,1.7-1.6,2.6-2.4l1-.9a7,7,0,0,1,1-.8c.3-.2.7-.6,1.1-.9l1-.8,1.1-.8,1-.8,1.2-.8c.4-.2.7-.5,1.1-.7a8.34,8.34,0,0,0,1.2-.8l1.1-.7c.4-.2.8-.5,1.2-.7l1.1-.6,1.2-.7c.4-.2.7-.4,1.1-.6l1.3-.6,1.1-.5,1.3-.6.9-.4.1,2.8h.5l-.8.9H137l5.6-6.5c.6.2,1.2.3,1.8.5l.5.2a46.81,46.81,0,0,1,4.8,1.8h.3c.7.3,1.3.6,2,.9l.4.2c.7.3,1.4.7,2.1,1l.1.1C169,65.5,181.1,77.9,189,93.9c.5,1,1,2.1,1.5,3.1l.6,1.4c.5,1.2,1,2.3,1.4,3.5l.1.2-6.4,2.6h0l9.3,5.4h-.7l.4.2h0c.3,1,.5,2,.7,3,.1.3.1.6.2,1,.1.7.3,1.3.4,2a6.75,6.75,0,0,1,.2,1.4c0,.2.1.3.1.5.1.4.1.7.2,1.1s.1.9.2,1.4a8.81,8.81,0,0,1,.2,1.7c.2,1.2.3,2.5.4,3.7,0,.4.1.7.1,1.1.1.9.1,1.9.2,2.8a4.1,4.1,0,0,0,.1,1.1c.1,1.2.1,2.4.1,3.7h0c0,1.3,0,2.7-.1,4a2.77,2.77,0,0,1-.1.9c-.1,1.3-.1,2.6-.3,4v.5c-.1,1.2-.3,2.5-.4,3.7,0,.2-.1.4-.1.6l-.6,3.9-.1.6a27.44,27.44,0,0,1-.9,3.9.37.37,0,0,1-.1.3,88.75,88.75,0,0,1-16.9,34.6l-.2.2h-9.7l-1.5,11H167a67.36,67.36,0,0,1-32.7,14.5ZM76.9,71.5l-.9.9Zm-2.1,2.1h0l.2-.2Zm-.6.6-.2.2.2-.2Zm-1.7,1.9-.1.1a5,5,0,0,1,.7-.8A4.35,4.35,0,0,1,72.5,76.1Zm-.3.4Zm-1.8,2.2c.3-.4.6-.7.9-1.1C71,78,70.7,78.3,70.4,78.7Zm-1,1.2c-.3.3-.5.7-.8,1a3.92,3.92,0,0,0,.8-1Zm-1.7,2.4c-.2.3-.5.7-.7,1l.7-1ZM65.9,85l-.4.7a4.35,4.35,0,0,1,.4-.7ZM53.2,117.5a.76.76,0,0,1-.1.4l.2-1.1a1.48,1.48,0,0,1-.1.7Zm-.5,2.8a4.25,4.25,0,0,1,.2-1.1,3.59,3.59,0,0,1-.2,1.1Zm-.3,2.4a4.25,4.25,0,0,1,.2-1.1c-.1.4-.1.8-.2,1.1Zm-.3,2.4c0-.3.1-.7.1-1a3.4,3.4,0,0,1-.1,1Zm-.1,1.5c0,.3-.1.6-.1.9C51.9,127.2,52,126.9,52,126.6Zm-.2,2.8v0Zm-.1,2.7v0Zm64.4-80.6Zm-2.6.4Zm-2.7.6Zm-2.6.6Zm-2.5.8Zm-2.6.8Zm-2.5,1Zm-2.5,1Zm-2.4,1.2Zm-2.4,1.2ZM91,60.4Zm-2.3,1.5Zm-2.2,1.5ZM84.3,65l-.1.1.1-.1Zm-2.1,1.7-.2.1.2-.1Zm-2.1,1.7-.2.1.2-.1Zm-2.2,2,1-.9Z" style="fill:#5f00ff"/><polygon points="1.1 97.9 19.7 97.9 28.3 101.1 9.8 101.1 1.1 97.9" style="fill:#aeaeae"/><polygon points="12.6 90.8 31.1 90.8 30.7 91 12.1 91 12.6 90.8" style="fill:#828282"/><g style="clip-path:url(#clip-path)"><path d="M105.1,11.8h18.5c-21,1.4-40.7,9.8-57.3,24.2l-.5.5H47.3l.5-.5c16.6-14.4,36.4-22.8,57.3-24.2" style="fill:#858585"/><path d="M47.3,36.5H65.8a93.06,93.06,0,0,0-8.4,8.2H38.8a109.69,109.69,0,0,1,8.5-8.2" style="fill:#8a8a8a"/><path d="M38.8,44.7H57.3c-2.1,2.3-4.1,4.7-6.1,7.2H32.8q2.85-3.75,6-7.2" style="fill:#8f8f8f"/><path d="M32.8,51.9H51.3c-1.7,2.2-3.3,4.4-4.8,6.7H28a81.19,81.19,0,0,1,4.8-6.7" style="fill:#949494"/><path d="M28,58.6H46.5c-1.4,2.1-2.8,4.2-4,6.4H23.9c1.3-2.2,2.7-4.4,4.1-6.4" style="fill:#999"/><path d="M23.9,65H42.4c-1.2,2.1-2.4,4.2-3.5,6.3H20.5c1.1-2.1,2.2-4.2,3.4-6.3" style="fill:#9e9e9e"/><path d="M20.5,71.3H39q-1.65,3.15-3,6.3H17.5q1.35-3.15,3-6.3" style="fill:#a3a3a3"/><path d="M17.5,77.6H36c-.9,2.1-1.8,4.2-2.6,6.4H14.9c.8-2.2,1.7-4.3,2.6-6.4" style="fill:#a8a8a8"/><path d="M14.9,84H33.4c-.8,2.1-1.6,4.3-2.3,6.5H12.6c.7-2.2,1.5-4.4,2.3-6.5" style="fill:#adadad"/><path d="M12.6,90.5H31.1c0,.1-.1.2-.1.3H12.6v-.3" style="fill:#b3b3b3"/></g><polygon points="31.2 79.9 49.7 79.9 31.1 90.8 12.6 90.8 31.2 79.9"/><polygon points="31 80.4 49.6 80.4 19.7 97.9 1.1 97.9 31 80.4" style="fill:#828282"/><path d="M58.3,112.4a93.48,93.48,0,0,0-1.9,19H37.9a93.48,93.48,0,0,1,1.9-19Z" style="fill:#1c1c1c"/><g style="clip-path:url(#clip-path-2)"><path d="M39.8,112.2H58.3l-.9,5.1H38.9l.9-5.1" style="fill:#1c1c1c;stroke:#fff;stroke-miterlimit:10"/><path d="M38.9,117.3H57.4c-.3,1.8-.5,3.7-.7,5.5H38.3c.1-1.8.4-3.7.6-5.5" style="fill:#1c1c1c;stroke:#fff;stroke-miterlimit:10"/><path d="M38.3,122.8H56.8q-.3,3-.3,6H37.9c0-2,.2-4,.4-6" style="fill:#1c1c1c;stroke:#fff;stroke-miterlimit:10"/><path d="M37.9,128.7H56.4v2.7c0,1.4,0,2.8.1,4.2H38c-.1-1.4-.1-2.8-.1-4.2v-2.7" style="fill:#1c1c1c;stroke:#fff;stroke-miterlimit:10"/></g><path d="M58.3,112.4a93.48,93.48,0,0,0-1.9,19H37.9a93.48,93.48,0,0,1,1.9-19Z" style="fill:none;stroke:#fff;stroke-miterlimit:10"/><path d="M64.4,169.6a82,82,0,0,0,21.1,28.7H66.9a83.26,83.26,0,0,1-21.1-28.7,92.71,92.71,0,0,1-8-38.1H56.3A94.45,94.45,0,0,0,64.4,169.6Z" style="fill:#1c1c1c"/><g style="clip-path:url(#clip-path-3)"><path d="M37.9,128.7H56.4v2.7c0,1.4,0,2.8.1,4.2H38c-.1-1.4-.1-2.8-.1-4.2v-2.7" style="fill:#1c1c1c;stroke:#fff;stroke-miterlimit:10"/><path d="M38,135.6H56.5a75.3,75.3,0,0,0,.7,8.3H38.7a75.3,75.3,0,0,1-.7-8.3" style="fill:#1c1c1c;stroke:#fff;stroke-miterlimit:10"/><path d="M38.7,143.9H57.2a92.08,92.08,0,0,0,2.6,12.9H41.3a79.67,79.67,0,0,1-2.6-12.9" style="fill:#1c1c1c;stroke:#fff;stroke-miterlimit:10"/><path d="M41.3,156.8H59.8a80.13,80.13,0,0,0,4.6,12.7l1.5,3.3H47.4l-1.5-3.3a80.13,80.13,0,0,1-4.6-12.7" style="fill:#1c1c1c;stroke:#fff;stroke-miterlimit:10"/><path d="M47.4,172.8H66A84.3,84.3,0,0,0,72.6,184H54.1a97.48,97.48,0,0,1-6.7-11.2" style="fill:#1c1c1c;stroke:#fff;stroke-miterlimit:10"/><path d="M54.1,184H72.6a75.71,75.71,0,0,0,4.9,6.3H59a75.71,75.71,0,0,1-4.9-6.3" style="fill:#1c1c1c;stroke:#fff;stroke-miterlimit:10"/><path d="M59,190.3H77.5c1.4,1.6,2.8,3.2,4.3,4.6H63.3c-1.5-1.5-2.9-3-4.3-4.6" style="fill:#1c1c1c;stroke:#fff;stroke-miterlimit:10"/><path d="M63.3,194.9H81.8c1.2,1.2,2.4,2.3,3.6,3.4H66.9c-1.2-1.1-2.4-2.2-3.6-3.4" style="fill:#1c1c1c;stroke:#fff;stroke-miterlimit:10"/></g><path d="M64.4,169.6a82,82,0,0,0,21.1,28.7H66.9a83.26,83.26,0,0,1-21.1-28.7,92.71,92.71,0,0,1-8-38.1H56.3A94.45,94.45,0,0,0,64.4,169.6Z" style="fill:none;stroke:#fff;stroke-miterlimit:10"/><path d="M40.1,112.7H58.6a97.93,97.93,0,0,0-1.8,18.7,91.45,91.45,0,0,0,8,37.9A82.64,82.64,0,0,0,86,198.1H67.4a82.64,82.64,0,0,1-21.2-28.8,93.52,93.52,0,0,1-6.1-56.6Z" style="fill:#1c1c1c"/><g style="clip-path:url(#clip-path-4)"><path d="M40.1,112.7H58.6c-.3,1.5-.6,3.1-.8,4.6H39.2c.3-1.5.6-3.1.9-4.6" style="fill:#1c1c1c;stroke:#fff;stroke-miterlimit:10"/><path d="M39.2,117.3H57.7a49.54,49.54,0,0,0-.6,5.4H38.6c.2-1.7.4-3.6.6-5.4" style="fill:#1c1c1c;stroke:#fff;stroke-miterlimit:10"/><path d="M38.6,122.8H57.1c-.2,2-.3,4-.4,6H38.2c.1-2,.2-4,.4-6" style="fill:#1c1c1c;stroke:#fff;stroke-miterlimit:10"/><path d="M38.2,128.7H56.7v2.7c0,1.4,0,2.8.1,4.2H38.3c-.1-1.4-.1-2.8-.1-4.2v-2.7" style="fill:#1c1c1c;stroke:#fff;stroke-miterlimit:10"/><path d="M38.3,135.6H56.8a77.42,77.42,0,0,0,.7,8.3H39a77.42,77.42,0,0,1-.7-8.3" style="fill:#1c1c1c;stroke:#fff;stroke-miterlimit:10"/><path d="M39,143.9H57.5a98.25,98.25,0,0,0,2.6,12.9H41.6A98.25,98.25,0,0,1,39,143.9" style="fill:#1c1c1c;stroke:#fff;stroke-miterlimit:10"/><path d="M41.6,156.7H60.1a83.87,83.87,0,0,0,4.6,12.7c.5,1.1,1,2.2,1.5,3.2H47.7c-.5-1.1-1-2.1-1.5-3.2a80.13,80.13,0,0,1-4.6-12.7" style="fill:#1c1c1c;stroke:#fff;stroke-miterlimit:10"/><path d="M47.7,172.6H66.2a77.92,77.92,0,0,0,6.7,11.1H54.4a77.92,77.92,0,0,1-6.7-11.1" style="fill:#1c1c1c;stroke:#fff;stroke-miterlimit:10"/><path d="M54.4,183.8H72.9a74.15,74.15,0,0,0,4.9,6.2H59.2c-1.7-2-3.3-4.1-4.8-6.2" style="fill:#1c1c1c;stroke:#fff;stroke-miterlimit:10"/><path d="M59.2,190H77.7c1.4,1.6,2.8,3.2,4.3,4.6H63.5c-1.5-1.4-2.9-3-4.3-4.6" style="fill:#1c1c1c;stroke:#fff;stroke-miterlimit:10"/><path d="M63.5,194.6H82q1.8,1.8,3.9,3.6H67.4q-2-1.65-3.9-3.6" style="fill:#1c1c1c;stroke:#fff;stroke-miterlimit:10"/></g><path d="M40.1,112.7H58.6a97.93,97.93,0,0,0-1.8,18.7,91.45,91.45,0,0,0,8,37.9A82.64,82.64,0,0,0,86,198.1H67.4a82.64,82.64,0,0,1-21.2-28.8,93.52,93.52,0,0,1-6.1-56.6Z" style="fill:none;stroke:#fff;stroke-miterlimit:10"/><polygon points="39.8 112.4 58.3 112.4 64.8 114.6 46.3 114.6 39.8 112.4" style="fill:#ababab"/><g style="clip-path:url(#clip-path-5)"><path d="M39.8,112.2H58.3l-.9,5.1H38.9l.9-5.1"/></g><polygon points="31 80.4 49.6 80.4 64.8 114.6 46.3 114.6 31 80.4"/><polygon points="31.2 79.9 49.7 79.9 60.4 104 41.9 104 31.2 79.9" style="fill:#e9e9e9"/><polygon points="41.9 104 60.4 104 60.7 104.4 42.1 104.4 41.9 104" style="fill:#e9e9e9"/><g style="clip-path:url(#clip-path-6)"><path d="M9.8,101.1H28.3c-.2.9-.4,1.9-.6,2.8H9.2a23,23,0,0,1,.6-2.8" style="fill:#b8b8b8"/><path d="M9.2,103.9H27.7c-.5,2.4-.9,4.9-1.3,7.4H7.9c.3-2.5.8-5,1.3-7.4" style="fill:#bdbdbd"/><path d="M7.9,111.2H26.4q-.6,3.9-.9,7.8H6.9c.3-2.6.6-5.2,1-7.8" style="fill:#c2c2c2"/><path d="M6.9,119H25.4c-.2,2.8-.4,5.7-.5,8.5H6.4c.1-2.8.3-5.7.5-8.5" style="fill:#c7c7c7"/><path d="M6.4,127.6H25c0,1.3-.1,2.6-.1,3.9,0,2,0,4,.1,6H6.5c-.1-2-.1-4-.1-6v-3.9" style="fill:#ccc"/><path d="M6.5,137.4H25c.2,4,.5,8,1,11.9H7.5c-.5-3.9-.8-7.9-1-11.9" style="fill:#d1d1d1"/><path d="M7.5,149.3H26a129.15,129.15,0,0,0,3.8,18.5H11.2a147.71,147.71,0,0,1-3.7-18.5" style="fill:#d6d6d6"/><path d="M11.2,167.8H29.7a138.73,138.73,0,0,0,6.2,17.4c.8,1.8,1.6,3.6,2.5,5.4H20c-.9-1.8-1.7-3.6-2.5-5.4a139.31,139.31,0,0,1-6.3-17.4" style="fill:#dbdbdb"/><path d="M20,190.6H38.5a124.35,124.35,0,0,0,9.6,16.1H29.5A154.36,154.36,0,0,1,20,190.6" style="fill:#d6d6d6"/><path d="M29.5,206.6H48c2.2,3.1,4.5,6.1,7,9H36.6a108.28,108.28,0,0,1-7.1-9" style="fill:#d1d1d1"/><path d="M36.6,215.6H55.1c2,2.3,4.1,4.5,6.2,6.6H42.7c-2.1-2.1-4.2-4.3-6.1-6.6" style="fill:#ccc"/><path d="M42.7,222.2H61.2c1.3,1.3,2.7,2.6,4.1,3.9H46.8c-1.3-1.3-2.7-2.6-4.1-3.9" style="fill:#c7c7c7"/></g><polygon points="43.6 202.5 62.1 202.5 65.4 226.1 46.8 226.1 43.6 202.5"/><polygon points="46.8 226.1 65.4 226.1 65.5 226.6 46.9 226.6 46.8 226.1" style="fill:#e3e3e3"/><polygon points="42.1 104.4 60.7 104.4 65.5 115.3 46.9 115.3 42.1 104.4" style="fill:#1c1c1c;stroke:#fff;stroke-miterlimit:10"/><polygon points="44 202.8 62.5 202.8 67.8 240.7 49.2 240.7 44 202.8" style="fill:#e3e3e3"/><polygon points="54.7 232.4 73.2 232.4 67.8 240.7 49.2 240.7 54.7 232.4"/><polygon points="54.7 232.9 73.2 232.9 67.6 241.7 49 241.7 54.7 232.9" style="fill:#1c1c1c;stroke:#fff;stroke-miterlimit:10"/><polygon points="66.9 198.3 85.5 198.3 62.1 202.5 43.6 202.5 66.9 198.3"/><path d="M31,80.4l15.2,34.2-6.5-2.4a95.43,95.43,0,0,0-1.9,19.2,92.71,92.71,0,0,0,8,38.1,82,82,0,0,0,21.1,28.7l-23.4,4.2L46.8,226a119.44,119.44,0,0,1-29.4-40.9,135.58,135.58,0,0,1-7.7-83.9L1.1,97.8Z" style="fill:#1c1c1c;stroke:#fff;stroke-miterlimit:10"/><polygon points="67.4 198.2 85.9 198.2 85.5 198.3 66.9 198.3 67.4 198.2" style="fill:gray"/><polygon points="77.1 196.8 95.7 196.8 62.5 202.8 44 202.8 77.1 196.8" style="fill:gray"/><polygon points="77.1 196.8 95.7 196.8 91.7 203.1 73.1 203.1 77.1 196.8"/><polygon points="77.9 196.3 96.4 196.3 92.2 203 73.6 203 77.9 196.3" style="fill:#1c1c1c;stroke:#fff;stroke-miterlimit:10"/><g style="clip-path:url(#clip-path-7)"><path d="M105.1,47.9h18.5A68.44,68.44,0,0,0,84.9,65.1H66.4a68.44,68.44,0,0,1,38.7-17.2"/><path d="M66.4,65.1H85a78,78,0,0,0-5.8,5.7H60.6a78,78,0,0,1,5.8-5.7"/><path d="M60.6,70.8H79.1c-1.5,1.6-2.9,3.3-4.2,5H56.4a50.49,50.49,0,0,1,4.2-5"/><path d="M56.4,75.8H74.9a56.61,56.61,0,0,0-3.4,4.7H53a56.61,56.61,0,0,1,3.4-4.7"/><path d="M53,80.4H71.5c-1,1.5-1.9,3-2.8,4.5H50.2c.9-1.5,1.8-3,2.8-4.5"/><path d="M50.2,84.9H68.7c-.8,1.4-1.7,2.9-2.4,4.4H47.8a47.71,47.71,0,0,1,2.4-4.4"/><path d="M47.8,89.4H66.3c-.7,1.4-1.4,2.9-2.1,4.4H45.7a35.48,35.48,0,0,1,2.1-4.4"/><path d="M45.7,93.8H64.2c-.6,1.5-1.2,2.9-1.8,4.5H43.9a30.16,30.16,0,0,1,1.8-4.5"/><path d="M43.9,98.2H62.4c-.6,1.5-1.1,3-1.6,4.6H42.3c.5-1.6,1-3.1,1.6-4.6"/><path d="M42.3,102.8H60.8a5.64,5.64,0,0,1-.4,1.2H41.9c.1-.4.3-.8.4-1.2"/></g><g style="clip-path:url(#clip-path-8)"><path d="M104.8,48.3h18.5a67.78,67.78,0,0,0-38.1,17H66.7a68.46,68.46,0,0,1,38.1-17" style="fill:#1c1c1c;stroke:#fff;stroke-miterlimit:10"/><path d="M66.7,65.3H85.2A78,78,0,0,0,79.4,71H60.9a62.52,62.52,0,0,1,5.8-5.7" style="fill:#1c1c1c;stroke:#fff;stroke-miterlimit:10"/><path d="M60.9,71H79.4c-1.5,1.6-2.9,3.3-4.2,5H56.7c1.3-1.7,2.7-3.4,4.2-5" style="fill:#1c1c1c;stroke:#fff;stroke-miterlimit:10"/><path d="M56.7,76H75.2c-1.2,1.5-2.3,3-3.4,4.6H53.3c1.1-1.6,2.2-3.1,3.4-4.6" style="fill:#1c1c1c;stroke:#fff;stroke-miterlimit:10"/><path d="M53.3,80.6H71.8c-1,1.5-1.9,3-2.8,4.5H50.5c.9-1.5,1.8-3,2.8-4.5" style="fill:#1c1c1c;stroke:#fff;stroke-miterlimit:10"/><path d="M50.5,85.1H69c-.8,1.4-1.7,2.9-2.4,4.4H48.1a37.51,37.51,0,0,1,2.4-4.4" style="fill:#1c1c1c;stroke:#fff;stroke-miterlimit:10"/><path d="M48.1,89.5H66.6c-.7,1.4-1.4,2.9-2.1,4.4H46c.7-1.5,1.3-3,2.1-4.4" style="fill:#1c1c1c;stroke:#fff;stroke-miterlimit:10"/><path d="M46,93.9H64.5a40.73,40.73,0,0,0-1.8,4.4H44.2c.5-1.4,1.1-2.9,1.8-4.4" style="fill:#1c1c1c;stroke:#fff;stroke-miterlimit:10"/><path d="M44.2,98.4H62.7c-.6,1.5-1.1,3-1.6,4.5H42.6c.5-1.5,1-3,1.6-4.5" style="fill:#1c1c1c;stroke:#fff;stroke-miterlimit:10"/><path d="M42.6,102.9H61.1l-.5,1.5H42.1l.5-1.5" style="fill:#1c1c1c;stroke:#fff;stroke-miterlimit:10"/></g><polygon points="104.9 48 123.5 48 123.7 55.7 105.1 55.7 104.9 48" style="fill:#ddd"/><rect x="105.1" y="1.4" width="18.5" height="10.4" style="fill:#dbdbdb"/><g style="clip-path:url(#clip-path-9)"><path d="M105.1,47.9h18.5A68.44,68.44,0,0,0,84.9,65.1H66.4a68.44,68.44,0,0,1,38.7-17.2"/></g><g style="clip-path:url(#clip-path-10)"><path d="M54.6,232.3H73.1c1.7,1.2,3.3,2.4,5.1,3.5H59.6a56.18,56.18,0,0,1-5-3.5" style="fill:#bdbdbd"/><path d="M59.6,235.8H78.1c1.8,1.2,3.7,2.3,5.6,3.4H65.2c-1.9-1-3.7-2.2-5.6-3.4" style="fill:#b8b8b8"/><path d="M65.2,239.2H83.7c1.8,1,3.7,2,5.6,2.9H70.8c-1.9-.9-3.8-1.9-5.6-2.9" style="fill:#b3b3b3"/><path d="M70.8,242.1H89.3c1.9.9,3.8,1.7,5.7,2.5H76.4c-1.9-.8-3.8-1.7-5.6-2.5" style="fill:#adadad"/><path d="M76.4,244.6H95c1.9.8,3.9,1.5,5.8,2.1H82.3c-2-.7-3.9-1.4-5.9-2.1" style="fill:#a8a8a8"/><path d="M82.3,246.7h18.5c2,.7,4,1.2,6.1,1.8H88.3l-6-1.8" style="fill:#a3a3a3"/><path d="M88.3,248.4h18.5c2.1.5,4.3,1,6.4,1.4H94.8c-2.2-.4-4.3-.8-6.5-1.4" style="fill:#9e9e9e"/><path d="M94.8,249.8h18.5c2.3.4,4.6.7,6.9,1H101.7a49.81,49.81,0,0,1-6.9-1" style="fill:#999"/><path d="M101.6,250.8h18.5c2.5.3,5.1.4,7.6.5H109.2c-2.5-.1-5-.2-7.6-.5" style="fill:#949494"/></g><g style="clip-path:url(#clip-path-11)"><path d="M73.1,203.1H91.6c.6.4,1.3.9,1.9,1.3H75.1c-.7-.4-1.3-.9-2-1.3"/><path d="M75.1,204.4H93.6l3.9,2.4H79l-3.9-2.4"/><path d="M79,206.7H97.5c1.3.7,2.6,1.4,3.9,2H82.9c-1.3-.6-2.6-1.3-3.9-2"/><path d="M82.9,208.8h18.5c1.3.6,2.7,1.2,4,1.8H86.9c-1.4-.6-2.7-1.2-4-1.8"/><path d="M86.9,210.5h18.5c1.4.5,2.7,1,4.1,1.5H91c-1.4-.4-2.7-1-4.1-1.5"/><path d="M91,212h18.5a33.11,33.11,0,0,0,4.2,1.2H95.2A33.11,33.11,0,0,1,91,212"/><path d="M95.2,213.3h18.5c1.5.4,3,.7,4.5,1H99.7c-1.5-.3-3-.6-4.5-1"/><path d="M99.7,214.2h18.5c1.6.3,3.2.5,4.8.7H104.5a39.67,39.67,0,0,1-4.8-.7"/><path d="M104.5,214.9H123a47.08,47.08,0,0,0,5.3.3H109.8a48.44,48.44,0,0,1-5.3-.3"/></g><path d="M73.6,203H92.1a66.31,66.31,0,0,0,37.6,11.9H111.2A66.31,66.31,0,0,1,73.6,203Z" style="fill:#1c1c1c"/><g style="clip-path:url(#clip-path-12)"><path d="M73.6,203H92.1a16.29,16.29,0,0,0,1.7,1.1H75.3c-.5-.3-1.1-.7-1.7-1.1" style="fill:#1c1c1c;stroke:#fff;stroke-miterlimit:10"/><path d="M75.3,204.1H93.8c1.3.8,2.5,1.6,3.8,2.3H79.2c-1.4-.7-2.6-1.5-3.9-2.3" style="fill:#1c1c1c;stroke:#fff;stroke-miterlimit:10"/><path d="M79.2,206.4H97.7c1.3.7,2.6,1.4,3.9,2H83c-1.3-.6-2.6-1.3-3.8-2" style="fill:#1c1c1c;stroke:#fff;stroke-miterlimit:10"/><path d="M83,208.4h18.5c1.3.6,2.6,1.2,3.9,1.7H87c-1.3-.5-2.6-1.1-4-1.7" style="fill:#1c1c1c;stroke:#fff;stroke-miterlimit:10"/><path d="M87,210.2h18.5c1.3.5,2.7,1,4.1,1.5H91c-1.4-.5-2.7-1-4-1.5" style="fill:#1c1c1c;stroke:#fff;stroke-miterlimit:10"/><path d="M91,211.6h18.5a33.11,33.11,0,0,0,4.2,1.2H95.3a30.3,30.3,0,0,1-4.3-1.2" style="fill:#1c1c1c;stroke:#fff;stroke-miterlimit:10"/><path d="M95.3,212.9h18.5c1.5.4,3,.7,4.5,1H99.8c-1.6-.3-3-.6-4.5-1" style="fill:#1c1c1c;stroke:#fff;stroke-miterlimit:10"/><path d="M99.8,213.9h18.5c1.6.3,3.2.5,4.8.7H104.6c-1.7-.2-3.3-.5-4.8-.7" style="fill:#1c1c1c;stroke:#fff;stroke-miterlimit:10"/><path d="M104.6,214.5h18.5a47.08,47.08,0,0,0,5.3.3H109.9a30.83,30.83,0,0,1-5.3-.3" style="fill:#1c1c1c;stroke:#fff;stroke-miterlimit:10"/><path d="M109.9,214.9h0" style="fill:#1c1c1c;stroke:#fff;stroke-miterlimit:10"/></g><path d="M73.6,203H92.1a66.31,66.31,0,0,0,37.6,11.9H111.2A66.31,66.31,0,0,1,73.6,203Z" style="fill:none;stroke:#fff;stroke-miterlimit:10"/><polygon points="128.9 28.5 147.4 28.5 130.3 48 111.8 48 128.9 28.5" style="fill:#959595"/><polygon points="128.9 28.5 147.4 28.5 123.7 55.7 105.1 55.7 128.9 28.5"/><polygon points="112.2 48 130.7 48 123.3 56.6 104.8 56.6 112.2 48" style="fill:#1c1c1c;stroke:#fff;stroke-miterlimit:10"/><path d="M105.1,1.4l23.8,27.1L105.1,55.6V47.9c-29,2.8-53.7,24.8-63.2,56.1L31.2,79.9,12.6,90.8A119.38,119.38,0,0,1,47.8,36C64.4,21.6,84.2,13.2,105,11.8Z" style="fill:#1c1c1c;stroke:#fff;stroke-miterlimit:10"/><polygon points="105.1 1.4 123.7 1.4 147.4 28.5 128.9 28.5 105.1 1.4"/><polygon points="113.8 11.3 132.3 11.3 147.4 28.5 128.9 28.5 113.8 11.3" style="fill:#ddd"/><polygon points="104.8 0.5 123.3 0.5 132.8 11.3 114.2 11.3 104.8 0.5" style="fill:#1c1c1c;stroke:#fff;stroke-miterlimit:10"/><polygon points="129.4 28.5 147.9 28.5 131.1 47.7 112.6 47.7 129.4 28.5" style="fill:#959595"/><polygon points="114.6 11.7 133.1 11.7 147.9 28.5 129.4 28.5 114.6 11.7" style="fill:#ddd"/><g style="clip-path:url(#clip-path-13)"><path d="M153.1,200.2h18.5a66.53,66.53,0,0,1-41.9,15H111.2a66,66,0,0,0,41.9-15" style="fill:#858585"/></g><polygon points="153.1 200.2 171.6 200.2 167.9 226.7 149.4 226.7 153.1 200.2"/><polygon points="153.2 199.7 171.7 199.7 171.6 200.2 153.1 200.2 153.2 199.7" style="fill:#d0d0d0"/><polygon points="155 188.7 173.6 188.7 168.3 226.6 149.8 226.6 155 188.7" style="fill:#d0d0d0"/><polygon points="155 188.7 173.6 188.7 177.6 195 159 195 155 188.7"/><g style="clip-path:url(#clip-path-14)"><path d="M170,230.6h18.5c-17.4,13.5-37.7,20.7-58.8,20.7H111.2c21.1,0,41.4-7.1,58.8-20.7"/></g><path d="M77.1,196.8l-4,6.3a65.62,65.62,0,0,0,80-2.9l-3.7,26.5,20.6,3.9c-17.4,13.5-37.7,20.7-58.8,20.7a95,95,0,0,1-56.5-18.9l-5.5,8.3L44,202.8Z" style="fill:#1c1c1c;stroke:#fff;stroke-miterlimit:10"/><polygon points="149.4 226.7 167.9 226.7 188.5 230.6 170 230.6 149.4 226.7"/><path d="M77.9,196.3,73.7,203a65.48,65.48,0,0,0,79.6-3.3l-.1.5a65.76,65.76,0,0,1-79.8,3l3.8-6.4-33.2,6,5.3,37.9,5.3-8.4c17,12.4,36.5,19,56.6,19,21.1,0,41.4-7.1,58.8-20.7l.5.1c-17.5,13.7-38,21-59.3,21a95.58,95.58,0,0,1-56.5-18.8L49,241.6l-2.1-15.1-.1-.6-3.3-23.6,23.4-4.2.5-.1Z" style="fill:#1c1c1c;stroke:#fff;stroke-miterlimit:10"/><path d="M170.5,230.7H189c-17.5,13.7-38,21-59.3,21H111.2C132.5,251.7,153,244.4,170.5,230.7Z" style="fill:#1c1c1c"/><g style="clip-path:url(#clip-path-15)"><path d="M170.5,230.7H189c-17.5,13.7-38,21-59.3,21H111.2c21.3,0,41.8-7.2,59.3-21" style="fill:#1c1c1c;stroke:#fff;stroke-miterlimit:10"/></g><path d="M170.5,230.7H189c-17.5,13.7-38,21-59.3,21H111.2C132.5,251.7,153,244.4,170.5,230.7Z" style="fill:none;stroke:#fff;stroke-miterlimit:10"/><polygon points="170 230.6 188.5 230.6 189 230.7 170.5 230.7 170 230.6" style="fill:#9c9c9c"/><polygon points="178.7 98.9 197.2 98.9 190.9 101.4 172.3 101.4 178.7 98.9" style="fill:gray"/><g style="clip-path:url(#clip-path-16)"><path d="M112.6,47.7h18.5c1.8,0,3.5.2,5.2.3H117.8a45.33,45.33,0,0,0-5.2-.3" style="fill:#949494"/><path d="M117.8,48h18.5c1.6.2,3.2.4,4.8.7H122.6c-1.6-.3-3.2-.5-4.8-.7" style="fill:#999"/><path d="M122.6,48.7h18.5c1.5.3,3,.6,4.5,1H127.1c-1.5-.4-3-.7-4.5-1" style="fill:#9e9e9e"/><path d="M127.1,49.7h18.5l4.3,1.2H131.4a30.3,30.3,0,0,0-4.3-1.2" style="fill:#a3a3a3"/><path d="M131.4,50.9h18.5c1.4.5,2.8,1,4.1,1.5H135.5c-1.4-.6-2.7-1-4.1-1.5" style="fill:#a8a8a8"/><path d="M135.5,52.4H154a28.75,28.75,0,0,1,4,1.8H139.5a35.19,35.19,0,0,0-4-1.8" style="fill:#adadad"/><path d="M139.5,54.1H158c1.3.6,2.6,1.3,3.9,2H143.4c-1.3-.7-2.6-1.4-3.9-2" style="fill:#b3b3b3"/><path d="M143.4,56.2h18.5c1.3.7,2.6,1.5,3.9,2.3H147.3c-1.3-.8-2.6-1.6-3.9-2.3" style="fill:#b8b8b8"/><path d="M147.3,58.5h18.5l3.9,2.7H151.2a45.63,45.63,0,0,0-3.9-2.7" style="fill:#bdbdbd"/><path d="M151.1,61.2h18.5a40.84,40.84,0,0,1,3.9,3.1H155a40.84,40.84,0,0,0-3.9-3.1" style="fill:#c2c2c2"/><path d="M155.1,64.3h18.5c1.4,1.2,2.7,2.4,4.1,3.7H159.2c-1.4-1.2-2.7-2.5-4.1-3.7" style="fill:#c7c7c7"/><path d="M159.1,68.1h18.5c1.5,1.5,2.9,3,4.3,4.7H163.4a38.7,38.7,0,0,0-4.3-4.7" style="fill:#ccc"/><path d="M163.5,72.7H182c1.7,2,3.3,4.1,4.8,6.2H168.3a73.09,73.09,0,0,0-4.8-6.2" style="fill:#d1d1d1"/><path d="M168.3,78.9h18.5A77.33,77.33,0,0,1,193.4,90H174.9a77.33,77.33,0,0,0-6.6-11.1" style="fill:#d6d6d6"/><path d="M174.9,90h18.5c1.4,2.9,2.7,5.9,3.8,8.9H178.7c-1.1-3-2.4-6-3.8-8.9" style="fill:#dbdbdb"/></g><polygon points="149.8 226.6 168.3 226.6 201.5 232.6 182.9 232.6 149.8 226.6" style="fill:#9c9c9c"/><polygon points="177.7 224.1 196.2 224.1 201.5 232.6 182.9 232.6 177.7 224.1"/><polygon points="178 224.2 196.6 224.2 202.2 233.1 183.7 233.1 178 224.2" style="fill:#1c1c1c;stroke:#fff;stroke-miterlimit:10"/><g style="clip-path:url(#clip-path-17)"><path d="M181.3,107.1h18.5a97.69,97.69,0,0,1,2.3,12H183.6a72.51,72.51,0,0,0-2.3-12" style="fill:#d6d6d6"/><path d="M183.7,119.1h18.5a75.3,75.3,0,0,1,.7,8.3H184.4c-.1-2.8-.4-5.6-.7-8.3" style="fill:#d1d1d1"/><path d="M184.4,127.4h18.5c.1,1.3.1,2.7.1,4.1v2.7H184.4v-6.8" style="fill:#ccc"/><path d="M184.4,134.1H203c-.1,2-.2,4-.4,6H184a40.32,40.32,0,0,0,.4-6" style="fill:#c7c7c7"/><path d="M184.1,140.1h18.5l-.6,5.4H183.5l.6-5.4" style="fill:#c2c2c2"/><path d="M183.4,145.5H202l-.9,5.1H182.5a45.43,45.43,0,0,0,.9-5.1" style="fill:#bdbdbd"/><path d="M182.5,150.6H201c-.3,1.6-.7,3.2-1.1,4.8H181.4c.4-1.6.8-3.2,1.1-4.8" style="fill:#b8b8b8"/><path d="M181.4,155.4h18.5c-.4,1.6-.9,3.1-1.3,4.6H180.1c.5-1.4.9-3,1.3-4.6" style="fill:#b3b3b3"/><path d="M180.1,160.1h18.5c-.5,1.5-1,3-1.6,4.5H178.5c.6-1.5,1.1-3,1.6-4.5" style="fill:#adadad"/><path d="M178.5,164.6H197c-.6,1.5-1.2,3-1.8,4.4H176.7c.6-1.4,1.2-2.9,1.8-4.4" style="fill:#a8a8a8"/><path d="M176.7,169.1h18.5c-.7,1.5-1.4,3-2.1,4.4H174.6c.7-1.4,1.4-2.9,2.1-4.4" style="fill:#a3a3a3"/><path d="M174.6,173.5h18.5c-.8,1.5-1.6,3-2.4,4.4H172.2c.8-1.4,1.6-2.9,2.4-4.4" style="fill:#9e9e9e"/><path d="M172.2,178h18.5c-.9,1.5-1.9,3-2.8,4.5H169.4c.9-1.5,1.9-3,2.8-4.5" style="fill:#999"/><path d="M169.3,182.5h18.5c-1.1,1.6-2.2,3.1-3.4,4.7H166c1.2-1.6,2.3-3.1,3.3-4.7" style="fill:#949494"/><path d="M166,187.1h18.5c-1.3,1.7-2.8,3.4-4.2,5H161.7c1.5-1.6,2.9-3.2,4.3-5" style="fill:#8f8f8f"/><path d="M161.7,192.2h18.5c-.8.9-1.7,1.8-2.6,2.7H159.1c.9-.9,1.8-1.8,2.6-2.7" style="fill:#8a8a8a"/></g><polygon points="181.3 107.1 199.9 107.1 220.9 119.4 202.4 119.4 181.3 107.1"/><polygon points="180.9 106.9 199.5 106.9 220.9 119.4 202.4 119.4 180.9 106.9" style="fill:silver"/><polygon points="172.3 101.4 190.9 101.4 220.8 118.9 202.2 118.9 172.3 101.4" style="fill:silver"/><g style="clip-path:url(#clip-path-18)"><path d="M114.6,11.7h18.5c2.1.1,4.1.2,6.2.4H120.8c-2.1-.2-4.2-.3-6.2-.4"/><path d="M120.8,12.1h18.5c2.3.2,4.6.6,6.9,1H127.7c-2.3-.4-4.6-.7-6.9-1"/><path d="M127.7,13.1h18.5c2.1.4,4.3.9,6.4,1.4H134.1c-2.1-.6-4.3-1-6.4-1.4"/><path d="M134.1,14.5h18.5c2,.5,4.1,1.1,6.1,1.8H140.2c-2.1-.7-4.1-1.3-6.1-1.8"/><path d="M140.1,16.2h18.5c2,.7,3.9,1.4,5.8,2.1H145.9c-1.9-.7-3.8-1.4-5.8-2.1"/><path d="M145.9,18.4h18.5c1.9.8,3.8,1.6,5.6,2.5H151.5a39.89,39.89,0,0,0-5.6-2.5"/><path d="M151.6,20.8h18.5c1.9.9,3.7,1.9,5.6,2.9H157.2c-1.9-1-3.7-2-5.6-2.9"/><path d="M157.1,23.7h18.5a61.55,61.55,0,0,1,5.5,3.3H162.6c-1.8-1.1-3.6-2.2-5.5-3.3"/><path d="M162.6,27h18.5c1.9,1.2,3.7,2.5,5.6,3.9H168.2c-1.8-1.4-3.7-2.7-5.6-3.9"/><path d="M168.2,30.9h18.5c1.3,1,2.6,2,3.8,3l1.8,1.5H173.8l-1.9-1.5c-1.2-1-2.4-2-3.7-3"/><path d="M173.9,35.4h18.5c2,1.7,4,3.5,5.9,5.4H179.8c-1.9-1.9-3.9-3.7-5.9-5.4"/><path d="M179.8,40.8h18.5c2.1,2.1,4.2,4.3,6.2,6.6H186c-2.1-2.3-4.1-4.5-6.2-6.6"/><path d="M185.9,47.4h18.5c2.4,2.8,4.7,5.8,6.9,8.9H192.8a84.65,84.65,0,0,0-6.9-8.9"/><path d="M192.8,56.3h18.5a126,126,0,0,1,9.5,15.9H202.3a115.17,115.17,0,0,0-9.5-15.9"/><path d="M202.3,72.1h18.5a125.16,125.16,0,0,1,6.5,15.6H208.8a131.8,131.8,0,0,0-6.5-15.6"/></g><path d="M114.2,11.3h18.5c21,.7,41.1,8.4,58.1,22.3a119,119,0,0,1,36.8,53.9H209.1c-7.5-21.7-20.2-40.3-36.8-53.8C155.2,19.7,135.2,12,114.2,11.3Z" style="fill:#1c1c1c"/><g style="clip-path:url(#clip-path-19)"><path d="M114.2,11.3h18.5c2.2.1,4.4.2,6.6.4H120.8c-2.2-.2-4.4-.4-6.6-.4" style="fill:#1c1c1c;stroke:#fff;stroke-miterlimit:10"/><path d="M120.8,11.7h18.5c2.3.2,4.6.6,6.9,1H127.7c-2.3-.4-4.6-.7-6.9-1" style="fill:#1c1c1c;stroke:#fff;stroke-miterlimit:10"/><path d="M127.7,12.7h18.5c2.2.4,4.3.8,6.4,1.4H134.1c-2.1-.5-4.2-1-6.4-1.4" style="fill:#1c1c1c;stroke:#fff;stroke-miterlimit:10"/><path d="M134.2,14.1h18.5c2,.5,4.1,1.1,6.1,1.8H140.3c-2.1-.7-4.1-1.3-6.1-1.8" style="fill:#1c1c1c;stroke:#fff;stroke-miterlimit:10"/><path d="M140.2,15.9h18.5c2,.7,3.9,1.3,5.8,2.1H146a57.15,57.15,0,0,0-5.8-2.1" style="fill:#1c1c1c;stroke:#fff;stroke-miterlimit:10"/><path d="M146.1,18h18.5c1.9.8,3.8,1.6,5.7,2.5H151.8c-1.9-.9-3.8-1.7-5.7-2.5" style="fill:#1c1c1c;stroke:#fff;stroke-miterlimit:10"/><path d="M151.7,20.5h18.5c1.9.9,3.7,1.9,5.6,2.9H157.3c-1.8-1-3.7-2-5.6-2.9" style="fill:#1c1c1c;stroke:#fff;stroke-miterlimit:10"/><path d="M157.3,23.4h18.5c1.9,1,3.7,2.2,5.5,3.3H162.8c-1.8-1.2-3.7-2.3-5.5-3.3" style="fill:#1c1c1c;stroke:#fff;stroke-miterlimit:10"/><path d="M162.8,26.7h18.5c1.9,1.2,3.7,2.5,5.6,3.9H168.4c-1.8-1.4-3.7-2.7-5.6-3.9" style="fill:#1c1c1c;stroke:#fff;stroke-miterlimit:10"/><path d="M168.4,30.6h18.5l3.9,3,1.9,1.5H174.2l-1.9-1.5q-2-1.65-3.9-3" style="fill:#1c1c1c;stroke:#fff;stroke-miterlimit:10"/><path d="M174.1,35.1h18.5c2,1.7,4,3.5,5.9,5.4H180c-1.9-1.9-3.9-3.7-5.9-5.4" style="fill:#1c1c1c;stroke:#fff;stroke-miterlimit:10"/><path d="M180,40.5h18.5c2.1,2.1,4.2,4.3,6.2,6.6H186.2c-2-2.2-4.1-4.5-6.2-6.6" style="fill:#1c1c1c;stroke:#fff;stroke-miterlimit:10"/><path d="M186.2,47.2h18.5a100.51,100.51,0,0,1,6.9,8.9H193.1c-2.2-3.1-4.5-6.1-6.9-8.9" style="fill:#1c1c1c;stroke:#fff;stroke-miterlimit:10"/><path d="M193.1,56h18.5a122.55,122.55,0,0,1,9.5,16H202.6a122.55,122.55,0,0,0-9.5-16" style="fill:#1c1c1c;stroke:#fff;stroke-miterlimit:10"/><path d="M202.6,72h18.5a129,129,0,0,1,6.5,15.4H209.1A147.82,147.82,0,0,0,202.6,72" style="fill:#1c1c1c;stroke:#fff;stroke-miterlimit:10"/></g><path d="M114.2,11.3h18.5c21,.7,41.1,8.4,58.1,22.3a119,119,0,0,1,36.8,53.9H209.1c-7.5-21.7-20.2-40.3-36.8-53.8C155.2,19.7,135.2,12,114.2,11.3Z" style="fill:none;stroke:#fff;stroke-miterlimit:10"/><polygon points="217.5 84.7 236 84.7 227.4 87.9 208.9 87.9 217.5 84.7" style="fill:gray"/><polygon points="217.5 84.7 236 84.7 220.8 118.9 202.2 118.9 217.5 84.7"/><polygon points="212.1 97.6 230.6 97.6 220.9 119.4 202.4 119.4 212.1 97.6" style="fill:#b3b3b3"/><polygon points="211.9 98.1 230.4 98.1 220.9 119.4 202.4 119.4 211.9 98.1" style="fill:#b3b3b3"/><g style="clip-path:url(#clip-path-20)"><path d="M211.9,98.1h18.5a140.16,140.16,0,0,1,3,15.7H214.8a120.39,120.39,0,0,0-2.9-15.7"/><path d="M214.9,113.8h18.5c.5,3.9.8,7.9,1,11.8H215.9c-.2-3.9-.5-7.9-1-11.8"/><path d="M215.9,125.6h18.5c.1,1.9.1,3.9.1,5.8,0,1.3,0,2.6-.1,3.9H215.9c0-1.3.1-2.6.1-3.9,0-1.9-.1-3.8-.1-5.8"/><path d="M215.9,135.3h18.5c-.1,2.9-.2,5.7-.5,8.6H215.4a81.08,81.08,0,0,0,.5-8.6"/><path d="M215.4,143.9H234q-.3,3.9-.9,7.8H214.5q.6-3.9.9-7.8"/><path d="M214.5,151.7H233c-.4,2.4-.8,4.9-1.3,7.3H213.2c.5-2.4.9-4.9,1.3-7.3"/><path d="M213.2,159h18.5c-.5,2.3-1,4.6-1.6,6.9H211.6c.6-2.3,1.1-4.6,1.6-6.9"/><path d="M211.6,165.9h18.5c-.6,2.2-1.2,4.4-1.9,6.6H209.7c.7-2.2,1.3-4.4,1.9-6.6"/><path d="M209.7,172.5h18.5c-.7,2.2-1.4,4.3-2.2,6.4H207.5c.8-2.1,1.5-4.3,2.2-6.4"/><path d="M207.4,178.9H226c-.8,2.1-1.7,4.3-2.6,6.3H204.8a59.32,59.32,0,0,0,2.6-6.3"/><path d="M204.9,185.3h18.5q-1.35,3.15-3,6.3H201.9l3-6.3"/><path d="M201.9,191.6h18.5c-1.1,2.2-2.2,4.3-3.4,6.3H198.5c1.1-2.1,2.3-4.2,3.4-6.3"/><path d="M198.4,197.9H217c-1.3,2.2-2.6,4.3-4,6.4H194.4c1.4-2.1,2.8-4.2,4-6.4"/><path d="M194.4,204.3h18.5c-1.5,2.3-3.2,4.5-4.9,6.7H189.5a82.22,82.22,0,0,0,4.9-6.7"/><path d="M189.6,211h18.5c-1.9,2.5-4,4.9-6.1,7.2H183.5c2.1-2.3,4.1-4.7,6.1-7.2"/><path d="M183.5,218.2H202c-1.8,2-3.8,3.9-5.8,5.8H177.7c2-1.8,3.9-3.8,5.8-5.8"/></g><path d="M211.9,98.1a138.64,138.64,0,0,1,4.1,33.3c0,36-14,69.7-38.3,92.6l5.2,8.5-33.2-6,5.2-37.9,4,6.3c16.2-16.1,25.5-39.2,25.5-63.5a94.7,94.7,0,0,0-3.1-24.3l21.1,12.3Z" style="fill:#1c1c1c;stroke:#fff;stroke-miterlimit:10"/><path d="M216.3,131.4h18.5c0,36-14,69.8-38.3,92.8H178C202.4,201.3,216.3,167.5,216.3,131.4Z" style="fill:#1c1c1c"/><g style="clip-path:url(#clip-path-21)"><path d="M216.3,131.4h18.5c0,1.3,0,2.6-.1,3.9H216.2c.1-1.3.1-2.5.1-3.9" style="fill:#1c1c1c;stroke:#fff;stroke-miterlimit:10"/><path d="M216.3,135.4h18.5c-.1,2.9-.2,5.8-.5,8.6H215.8c.2-2.9.4-5.8.5-8.6" style="fill:#1c1c1c;stroke:#fff;stroke-miterlimit:10"/><path d="M215.8,143.9h18.5c-.2,2.6-.6,5.2-.9,7.8H214.9q.45-3.75.9-7.8" style="fill:#1c1c1c;stroke:#fff;stroke-miterlimit:10"/><path d="M214.8,151.8h18.5c-.4,2.5-.8,4.9-1.3,7.3H213.5c.5-2.5,1-4.9,1.3-7.3" style="fill:#1c1c1c;stroke:#fff;stroke-miterlimit:10"/><path d="M213.5,159.1H232c-.5,2.3-1,4.6-1.6,6.9H211.9c.6-2.3,1.2-4.6,1.6-6.9" style="fill:#1c1c1c;stroke:#fff;stroke-miterlimit:10"/><path d="M211.9,166h18.5c-.6,2.2-1.2,4.5-1.9,6.6H210c.7-2.1,1.3-4.4,1.9-6.6" style="fill:#1c1c1c;stroke:#fff;stroke-miterlimit:10"/><path d="M210,172.6h18.5c-.7,2.2-1.4,4.3-2.2,6.5H207.8c.8-2.2,1.5-4.3,2.2-6.5" style="fill:#1c1c1c;stroke:#fff;stroke-miterlimit:10"/><path d="M207.8,179.1h18.5c-.8,2.1-1.7,4.3-2.6,6.4H205.2c.9-2.1,1.8-4.3,2.6-6.4" style="fill:#1c1c1c;stroke:#fff;stroke-miterlimit:10"/><path d="M205.2,185.4h18.5q-1.35,3.15-3,6.3H202.2q1.5-3,3-6.3" style="fill:#1c1c1c;stroke:#fff;stroke-miterlimit:10"/><path d="M202.2,191.8h18.5c-1.1,2.2-2.2,4.3-3.5,6.4H198.7c1.2-2.2,2.4-4.3,3.5-6.4" style="fill:#1c1c1c;stroke:#fff;stroke-miterlimit:10"/><path d="M198.7,198.1h18.5a69.75,69.75,0,0,1-4.1,6.4H194.6a69.75,69.75,0,0,0,4.1-6.4" style="fill:#1c1c1c;stroke:#fff;stroke-miterlimit:10"/><path d="M194.7,204.6h18.5a82.22,82.22,0,0,1-4.9,6.7H189.8c1.7-2.2,3.3-4.4,4.9-6.7" style="fill:#1c1c1c;stroke:#fff;stroke-miterlimit:10"/><path d="M189.8,211.3h18.5c-1.9,2.5-4,4.9-6.1,7.2H183.7c2.1-2.3,4.2-4.7,6.1-7.2" style="fill:#1c1c1c;stroke:#fff;stroke-miterlimit:10"/><path d="M183.7,218.5h18.5c-1.8,2-3.7,3.9-5.6,5.7H178c2-1.8,3.8-3.7,5.7-5.7" style="fill:#1c1c1c;stroke:#fff;stroke-miterlimit:10"/></g><path d="M216.3,131.4h18.5c0,36-14,69.8-38.3,92.8H178C202.4,201.3,216.3,167.5,216.3,131.4Z" style="fill:none;stroke:#fff;stroke-miterlimit:10"/><path d="M212.1,97.6h18.5a137.87,137.87,0,0,1,4.2,33.8H216.3A137.87,137.87,0,0,0,212.1,97.6Z" style="fill:#1c1c1c"/><g style="clip-path:url(#clip-path-22)"><path d="M212.1,97.6h18.5a127,127,0,0,1,3.1,16.1H215.2a127,127,0,0,0-3.1-16.1" style="fill:#1c1c1c;stroke:#fff;stroke-miterlimit:10"/><path d="M215.2,113.7h18.5c.5,3.9.8,7.9,1,11.9H216.2c-.2-4-.5-7.9-1-11.9" style="fill:#1c1c1c;stroke:#fff;stroke-miterlimit:10"/><path d="M216.2,125.6h18.5c.1,1.9.1,3.9.1,5.8H216.3c0-1.9,0-3.9-.1-5.8" style="fill:#1c1c1c;stroke:#fff;stroke-miterlimit:10"/></g><path d="M212.1,97.6h18.5a137.87,137.87,0,0,1,4.2,33.8H216.3A137.87,137.87,0,0,0,212.1,97.6Z" style="fill:none;stroke:#fff;stroke-miterlimit:10"/><path d="M114.6,11.7c20.7.8,40.6,8.4,57.5,22.2,16.6,13.6,29.3,32.2,36.8,53.8l8.7-3-15.2,34.2-29.9-17.5L179,99c-11.4-30.7-37.3-50.8-66.2-51.4l16.8-19.1Z" style="fill:#1c1c1c;stroke:#fff;stroke-miterlimit:10"/><path d="M202.2,118.9l15.2-34.2-8.6,3.2c-7.5-21.8-20.2-40.4-36.8-54-16.9-13.8-36.7-21.4-57.5-22.2l14.8,16.9L112.5,47.7c28.9.6,54.8,20.7,66.1,51.2l-6.4,2.6,30,17.4" style="fill:#1c1c1c;stroke:#fff;stroke-miterlimit:10"/><polygon points="218.1 84 236.7 84 230.6 97.6 212.1 97.6 218.1 84" style="fill:#1c1c1c;stroke:#fff;stroke-miterlimit:10"/></g></g></svg>